<svg version="1.1" xmlns="http://www.w3.org/2000/svg" xmlns:xlink="http://www.w3.org/1999/xlink" width="1381" height="905"><defs/><g><g transform="translate(-2294,-838) scale(1,1)"><rect fill="#C0C0C0" stroke="none" x="2592" y="1383" width="63.18994140625" height="44" opacity="0.2"/></g><g transform="translate(-2294,-838) scale(1,1)"><rect fill="#ffffff" stroke="none" x="2585" y="1376" width="63.18994140625" height="44"/></g><g transform="translate(-2294,-838) scale(1,1)"><path fill="none" stroke="#000000" d="M 2585 1376 L 2648.18994140625 1376 L 2648.18994140625 1420 L 2585 1420 L 2585 1376 Z Z" stroke-miterlimit="10"/></g><g transform="translate(-2294,-838) scale(1,1)"><path fill="none" stroke="#000000" d="M 2585 1401 L 2648.18994140625 1401" stroke-miterlimit="10"/></g><g transform="translate(-2294,-838) scale(1,1)"><path fill="none" stroke="#000000" d="M 2585 1411 L 2648.18994140625 1411" stroke-miterlimit="10"/></g><g transform="translate(-2294,-838) scale(1,1)"><g><path fill="none" stroke="none"/><text fill="#000000" stroke="none" font-family="Arial" font-size="13px" font-style="normal" font-weight="bold" text-decoration="none" x="2591.66455078125" y="1395.5">interface</text></g></g><g transform="translate(-2294,-838) scale(1,1)"><rect fill="#C0C0C0" stroke="none" x="2518" y="1159" width="211.64892578125" height="57" opacity="0.2"/></g><g transform="translate(-2294,-838) scale(1,1)"><rect fill="#ffffff" stroke="none" x="2511" y="1152" width="211.64892578125" height="57"/></g><g transform="translate(-2294,-838) scale(1,1)"><path fill="none" stroke="#000000" d="M 2511 1152 L 2722.64892578125 1152 L 2722.64892578125 1209 L 2511 1209 L 2511 1152 Z Z" stroke-miterlimit="10"/></g><g transform="translate(-2294,-838) scale(1,1)"><path fill="none" stroke="#000000" d="M 2511 1177 L 2722.64892578125 1177" stroke-miterlimit="10"/></g><g transform="translate(-2294,-838) scale(1,1)"><path fill="none" stroke="#000000" d="M 2511 1187 L 2722.64892578125 1187" stroke-miterlimit="10"/></g><g transform="translate(-2294,-838) scale(1,1)"><g><path fill="none" stroke="none"/><text fill="#000000" stroke="none" font-family="Arial" font-size="13px" font-style="normal" font-weight="bold" text-decoration="none" x="2581.055419921875" y="1171.5">Gerenciador</text></g></g><g transform="translate(-2294,-838) scale(1,1)"><g><path fill="none" stroke="none"/><text fill="#000000" stroke="none" font-family="Arial" font-size="13px" font-style="normal" font-weight="normal" text-decoration="none" x="2516" y="1204.5">+distribuir(tx: Texto): ArrayList&lt;int&gt;</text></g></g><g transform="translate(-2294,-838) scale(1,1)"><rect fill="#C0C0C0" stroke="none" x="3149" y="855" width="99.3271484375" height="44" opacity="0.2"/></g><g transform="translate(-2294,-838) scale(1,1)"><rect fill="#ffffff" stroke="none" x="3142" y="848" width="99.3271484375" height="44"/></g><g transform="translate(-2294,-838) scale(1,1)"><path fill="none" stroke="#000000" d="M 3142 848 L 3241.3271484375 848 L 3241.3271484375 892 L 3142 892 L 3142 848 Z Z" stroke-miterlimit="10"/></g><g transform="translate(-2294,-838) scale(1,1)"><path fill="none" stroke="#000000" d="M 3142 873 L 3241.3271484375 873" stroke-miterlimit="10"/></g><g transform="translate(-2294,-838) scale(1,1)"><path fill="none" stroke="#000000" d="M 3142 883 L 3241.3271484375 883" stroke-miterlimit="10"/></g><g transform="translate(-2294,-838) scale(1,1)"><g><path fill="none" stroke="none"/><text fill="#000000" stroke="none" font-family="Arial" font-size="13px" font-style="normal" font-weight="bold" text-decoration="none" x="3165.647705078125" y="867.5">Sugestor</text></g></g><g transform="translate(-2294,-838) scale(1,1)"><path fill="#C0C0C0" stroke="none" d="M 3556.3212890625 1369 C 3556.3212890625 1359.0588736 3564.3801626625 1351 3574.3212890625 1351 C 3584.2624154625 1351 3592.3212890625 1359.0588736 3592.3212890625 1369 C 3592.3212890625 1378.9411264 3584.2624154625 1387 3574.3212890625 1387 C 3564.3801626625 1387 3556.3212890625 1378.9411264 3556.3212890625 1369 Z" opacity="0.2"/></g><g transform="translate(-2294,-838) scale(1,1)"><path fill="#ffffff" stroke="none" d="M 3549.3212890625 1362 C 3549.3212890625 1352.0588736 3557.3801626625 1344 3567.3212890625 1344 C 3577.2624154625 1344 3585.3212890625 1352.0588736 3585.3212890625 1362 C 3585.3212890625 1371.9411264 3577.2624154625 1380 3567.3212890625 1380 C 3557.3801626625 1380 3549.3212890625 1371.9411264 3549.3212890625 1362 Z"/></g><g transform="translate(-2294,-838) scale(1,1)"><path fill="none" stroke="#000000" d="M 3549.3212890625 1362 C 3549.3212890625 1352.0588736 3557.3801626625 1344 3567.3212890625 1344 C 3577.2624154625 1344 3585.3212890625 1352.0588736 3585.3212890625 1362 C 3585.3212890625 1371.9411264 3577.2624154625 1380 3567.3212890625 1380 C 3557.3801626625 1380 3549.3212890625 1371.9411264 3549.3212890625 1362 Z" stroke-miterlimit="10"/></g><g transform="translate(-2294,-838) scale(1,1)"><path fill="none" stroke="#000000" d="M 3507 1405 L 3627.642578125 1405" stroke-miterlimit="10"/></g><g transform="translate(-2294,-838) scale(1,1)"><path fill="none" stroke="#000000" d="M 3507 1415 L 3627.642578125 1415" stroke-miterlimit="10"/></g><g transform="translate(-2294,-838) scale(1,1)"><g><path fill="none" stroke="none"/><text fill="#000000" stroke="none" font-family="Arial" font-size="13px" font-style="normal" font-weight="bold" text-decoration="none" x="3529.3876953125" y="1399.5">Armazenavel</text></g></g><g transform="translate(-2294,-838) scale(1,1)"><g><path fill="none" stroke="none"/><text fill="#000000" stroke="none" font-family="Arial" font-size="13px" font-style="normal" font-weight="normal" text-decoration="none" x="3512" y="1432.5">+Salvar()</text></g></g><g transform="translate(-2294,-838) scale(1,1)"><g><path fill="none" stroke="none"/><text fill="#000000" stroke="none" font-family="Arial" font-size="13px" font-style="normal" font-weight="normal" text-decoration="none" x="3512" y="1447.5">+Carregar(id: int)</text></g></g><g transform="translate(-2294,-838) scale(1,1)"><rect fill="#C0C0C0" stroke="none" x="2311" y="974" width="625.0146484375" height="100" opacity="0.2"/></g><g transform="translate(-2294,-838) scale(1,1)"><rect fill="#ffffff" stroke="none" x="2304" y="967" width="625.0146484375" height="100"/></g><g transform="translate(-2294,-838) scale(1,1)"><path fill="none" stroke="#000000" d="M 2304 967 L 2929.0146484375 967 L 2929.0146484375 1067 L 2304 1067 L 2304 967 Z Z" stroke-miterlimit="10"/></g><g transform="translate(-2294,-838) scale(1,1)"><path fill="none" stroke="#000000" d="M 2304 992 L 2929.0146484375 992" stroke-miterlimit="10"/></g><g transform="translate(-2294,-838) scale(1,1)"><path fill="none" stroke="#000000" d="M 2304 1015 L 2929.0146484375 1015" stroke-miterlimit="10"/></g><g transform="translate(-2294,-838) scale(1,1)"><g><path fill="none" stroke="none"/><text fill="#000000" stroke="none" font-family="Arial" font-size="13px" font-style="italic" font-weight="bold" text-decoration="none" x="2541.001953125" y="986.5">GerenciadorEvo&lt;G, R, F&gt;</text></g></g><g transform="translate(-2294,-838) scale(1,1)"><g><path fill="none" stroke="none"/><text fill="#000000" stroke="none" font-family="Arial" font-size="13px" font-style="normal" font-weight="normal" text-decoration="none" x="2309" y="1009.5">-lE: ArrayList&lt;EntidadeEvo&gt;</text></g></g><g transform="translate(-2294,-838) scale(1,1)"><g><path fill="none" stroke="none"/><text fill="#000000" stroke="none" font-family="Arial" font-size="13px" font-style="italic" font-weight="normal" text-decoration="none" x="2309" y="1032.5">+rodarLE(cF: Predicate&lt;F&gt;)</text></g></g><g transform="translate(-2294,-838) scale(1,1)"><g><path fill="none" stroke="none"/><text fill="#000000" stroke="none" font-family="Arial" font-size="13px" font-style="normal" font-weight="normal" text-decoration="none" x="2309" y="1047.5">+reproduzirLE(cA: Function&lt;ArrayList&lt;EntidadeEvo&lt;G, R&gt;&gt;, ArrayList&lt;ArrayList&lt;EntidadeEvo&lt;G, R&gt;&gt;&gt;&gt;)</text></g></g><g transform="translate(-2294,-838) scale(1,1)"><g><path fill="none" stroke="none"/><text fill="#000000" stroke="none" font-family="Arial" font-size="13px" font-style="normal" font-weight="normal" text-decoration="none" x="2309" y="1062.5">+removerLE(cR: CondicaoRemocaoEvo&lt;G, R&gt;)</text></g></g><g transform="translate(-2294,-838) scale(1,1)"><rect fill="#C0C0C0" stroke="none" x="3003" y="967" width="390.17041015625" height="115" opacity="0.2"/></g><g transform="translate(-2294,-838) scale(1,1)"><rect fill="#ffffff" stroke="none" x="2996" y="960" width="390.17041015625" height="115"/></g><g transform="translate(-2294,-838) scale(1,1)"><path fill="none" stroke="#000000" d="M 2996 960 L 3386.17041015625 960 L 3386.17041015625 1075 L 2996 1075 L 2996 960 Z Z" stroke-miterlimit="10"/></g><g transform="translate(-2294,-838) scale(1,1)"><path fill="none" stroke="#000000" d="M 2996 985 L 3386.17041015625 985" stroke-miterlimit="10"/></g><g transform="translate(-2294,-838) scale(1,1)"><path fill="none" stroke="#000000" d="M 2996 1008 L 3386.17041015625 1008" stroke-miterlimit="10"/></g><g transform="translate(-2294,-838) scale(1,1)"><g><path fill="none" stroke="none"/><text fill="#000000" stroke="none" font-family="Arial" font-size="13px" font-style="italic" font-weight="bold" text-decoration="none" x="3133.270751953125" y="979.5">EntidadeEvo&lt;G, R&gt;</text></g></g><g transform="translate(-2294,-838) scale(1,1)"><g><path fill="none" stroke="none"/><text fill="#000000" stroke="none" font-family="Arial" font-size="13px" font-style="normal" font-weight="normal" text-decoration="none" x="3001" y="1002.5">-cG: CodigoGenEvo&lt;G&gt;</text></g></g><g transform="translate(-2294,-838) scale(1,1)"><g><path fill="none" stroke="none"/><text fill="#000000" stroke="none" font-family="Arial" font-size="13px" font-style="italic" font-weight="normal" text-decoration="none" x="3001" y="1025.5">+executar(h: HashMap&lt;String, Object&gt;): R</text></g></g><g transform="translate(-2294,-838) scale(1,1)"><g><path fill="none" stroke="none"/><text fill="#000000" stroke="none" font-family="Arial" font-size="13px" font-style="italic" font-weight="normal" text-decoration="none" x="3001" y="1040.5">+reproduzir(lE: ArrayList&lt;EntidadeEvo&gt;): ArrayList&lt;EntidadeEvo&gt;</text></g></g><g transform="translate(-2294,-838) scale(1,1)"><g><path fill="none" stroke="none"/><text fill="#000000" stroke="none" font-family="Arial" font-size="13px" font-style="italic" font-weight="normal" text-decoration="none" x="3001" y="1055.5">+mutar()</text></g></g><g transform="translate(-2294,-838) scale(1,1)"><g><path fill="none" stroke="none"/><text fill="#000000" stroke="none" font-family="Arial" font-size="13px" font-style="italic" font-weight="normal" text-decoration="none" x="3001" y="1070.5">+patronizaCG()</text></g></g><g transform="translate(-2294,-838) scale(1,1)"><rect fill="#C0C0C0" stroke="none" x="3509" y="988" width="130.748046875" height="72" opacity="0.2"/></g><g transform="translate(-2294,-838) scale(1,1)"><rect fill="#ffffff" stroke="none" x="3502" y="981" width="130.748046875" height="72"/></g><g transform="translate(-2294,-838) scale(1,1)"><path fill="none" stroke="#000000" d="M 3502 981 L 3632.748046875 981 L 3632.748046875 1053 L 3502 1053 L 3502 981 Z Z" stroke-miterlimit="10"/></g><g transform="translate(-2294,-838) scale(1,1)"><path fill="none" stroke="#000000" d="M 3502 1006 L 3632.748046875 1006" stroke-miterlimit="10"/></g><g transform="translate(-2294,-838) scale(1,1)"><path fill="none" stroke="#000000" d="M 3502 1029 L 3632.748046875 1029" stroke-miterlimit="10"/></g><g transform="translate(-2294,-838) scale(1,1)"><g><path fill="none" stroke="none"/><text fill="#000000" stroke="none" font-family="Arial" font-size="13px" font-style="italic" font-weight="bold" text-decoration="none" x="3510.641845703125" y="1000.5">CodigoGenEvo&lt;G&gt;</text></g></g><g transform="translate(-2294,-838) scale(1,1)"><g><path fill="none" stroke="none"/><text fill="#000000" stroke="none" font-family="Arial" font-size="13px" font-style="normal" font-weight="normal" text-decoration="none" x="3507" y="1023.5">-cg: Arraylist&lt;A&gt;</text></g></g><g transform="translate(-2294,-838) scale(1,1)"><path fill="none" stroke="#000000" d="M 3501 1017 L 3387 1017" stroke-miterlimit="10"/></g><g transform="translate(-2294,-838) scale(1,1)"><path fill="#000000" stroke="none" d="M 3397.162674857624 1012.790482243984 L 3387 1017 L 3397.162674857624 1021.209517756016 L 3409 1017"/></g><g transform="translate(-2294,-838) scale(1,1)"><path fill="none" stroke="#000000" d="M 3397.162674857624 1012.790482243984 L 3387 1017 L 3397.162674857624 1021.209517756016 L 3409 1017 L 3397.162674857624 1012.790482243984" stroke-miterlimit="10"/></g><g transform="translate(-2294,-838) scale(1,1)"><path fill="none" stroke="#000000" d="M 2995 1017 L 2930 1017" stroke-miterlimit="10"/></g><g transform="translate(-2294,-838) scale(1,1)"><path fill="#000000" stroke="none" d="M 2940.162674857624 1012.790482243984 L 2930 1017 L 2940.162674857624 1021.209517756016 L 2952 1017"/></g><g transform="translate(-2294,-838) scale(1,1)"><path fill="none" stroke="#000000" d="M 2940.162674857624 1012.790482243984 L 2930 1017 L 2940.162674857624 1021.209517756016 L 2952 1017 L 2940.162674857624 1012.790482243984" stroke-miterlimit="10"/></g><g transform="translate(-2294,-838) scale(1,1)"><path fill="none" stroke="#000000" d="M 3191 893 L 3191 959" stroke-miterlimit="10"/></g><g transform="translate(-2294,-838) scale(1,1)"><path fill="#FFFFFF" stroke="none" d="M 3182.5809644879682 938.6746502847517 L 3191 959 L 3199.4190355120318 938.6746502847517"/></g><g transform="translate(-2294,-838) scale(1,1)"><path fill="none" stroke="#000000" d="M 3182.5809644879682 938.6746502847517 L 3191 959 L 3199.4190355120318 938.6746502847517 L 3182.5809644879682 938.6746502847517" stroke-miterlimit="10"/></g><g transform="translate(-2294,-838) scale(1,1)"><path fill="none" stroke="#000000" d="M 2616 1151 L 2616 1068" stroke-miterlimit="10"/></g><g transform="translate(-2294,-838) scale(1,1)"><path fill="#FFFFFF" stroke="none" d="M 2624.4190355120318 1088.3253497152482 L 2616 1068 L 2607.5809644879682 1088.3253497152482"/></g><g transform="translate(-2294,-838) scale(1,1)"><path fill="none" stroke="#000000" d="M 2624.4190355120318 1088.3253497152482 L 2616 1068 L 2607.5809644879682 1088.3253497152482 L 2624.4190355120318 1088.3253497152482" stroke-miterlimit="10"/></g><g transform="translate(-2294,-838) scale(1,1)"><rect fill="#C0C0C0" stroke="none" x="3507" y="1159" width="135.38818359375" height="57" opacity="0.2"/></g><g transform="translate(-2294,-838) scale(1,1)"><rect fill="#ffffff" stroke="none" x="3500" y="1152" width="135.38818359375" height="57"/></g><g transform="translate(-2294,-838) scale(1,1)"><path fill="none" stroke="#000000" d="M 3500 1152 L 3635.38818359375 1152 L 3635.38818359375 1209 L 3500 1209 L 3500 1152 Z Z" stroke-miterlimit="10"/></g><g transform="translate(-2294,-838) scale(1,1)"><path fill="none" stroke="#000000" d="M 3500 1177 L 3635.38818359375 1177" stroke-miterlimit="10"/></g><g transform="translate(-2294,-838) scale(1,1)"><path fill="none" stroke="#000000" d="M 3500 1200 L 3635.38818359375 1200" stroke-miterlimit="10"/></g><g transform="translate(-2294,-838) scale(1,1)"><g><path fill="none" stroke="none"/><text fill="#000000" stroke="none" font-family="Arial" font-size="13px" font-style="normal" font-weight="bold" text-decoration="none" x="3508.794189453125" y="1171.5">CodigoGenSugestor</text></g></g><g transform="translate(-2294,-838) scale(1,1)"><g><path fill="none" stroke="none"/><text fill="#000000" stroke="none" font-family="Arial" font-size="13px" font-style="normal" font-weight="normal" text-decoration="none" x="3505" y="1194.5">-id: int</text></g></g><g transform="translate(-2294,-838) scale(1,1)"><path fill="none" stroke="#000000" d="M 3567 1151 L 3567 1054" stroke-miterlimit="10"/></g><g transform="translate(-2294,-838) scale(1,1)"><path fill="#FFFFFF" stroke="none" d="M 3575.4190355120318 1074.3253497152482 L 3567 1054 L 3558.5809644879682 1074.3253497152482"/></g><g transform="translate(-2294,-838) scale(1,1)"><path fill="none" stroke="#000000" d="M 3575.4190355120318 1074.3253497152482 L 3567 1054 L 3558.5809644879682 1074.3253497152482 L 3575.4190355120318 1074.3253497152482" stroke-miterlimit="10"/></g><g transform="translate(-2294,-838) scale(1,1)"><path fill="none" stroke="#000000" d="M 3567 1210 L 3567 1344" stroke-miterlimit="10"/></g><g transform="translate(-2294,-838) scale(1,1)"><path fill="none" stroke="#000000" d="M 2616 1375 L 2616 1210" stroke-miterlimit="10"/></g><g transform="translate(-2294,-838) scale(1,1)"><rect fill="#C0C0C0" stroke="none" x="2566" y="1623" width="114.84716796875" height="117" opacity="0.2"/></g><g transform="translate(-2294,-838) scale(1,1)"><rect fill="#ffffff" stroke="none" x="2559" y="1616" width="114.84716796875" height="117"/></g><g transform="translate(-2294,-838) scale(1,1)"><path fill="none" stroke="#000000" d="M 2559 1616 L 2673.84716796875 1616 L 2673.84716796875 1733 L 2559 1733 L 2559 1616 Z Z" stroke-miterlimit="10"/></g><g transform="translate(-2294,-838) scale(1,1)"><path fill="none" stroke="#000000" d="M 2559 1641 L 2673.84716796875 1641" stroke-miterlimit="10"/></g><g transform="translate(-2294,-838) scale(1,1)"><path fill="none" stroke="#000000" d="M 2559 1724 L 2673.84716796875 1724" stroke-miterlimit="10"/></g><g transform="translate(-2294,-838) scale(1,1)"><g><path fill="none" stroke="none"/><text fill="#000000" stroke="none" font-family="Arial" font-size="13px" font-style="normal" font-weight="bold" text-decoration="none" x="2600.167236328125" y="1635.5">Texto</text></g></g><g transform="translate(-2294,-838) scale(1,1)"><g><path fill="none" stroke="none"/><text fill="#000000" stroke="none" font-family="Arial" font-size="13px" font-style="normal" font-weight="normal" text-decoration="none" x="2564" y="1658.5">-id: int</text></g></g><g transform="translate(-2294,-838) scale(1,1)"><g><path fill="none" stroke="none"/><text fill="#000000" stroke="none" font-family="Arial" font-size="13px" font-style="normal" font-weight="normal" text-decoration="none" x="2564" y="1673.5">-lF: ArrayList&lt;int&gt;</text></g></g><g transform="translate(-2294,-838) scale(1,1)"><g><path fill="none" stroke="none"/><text fill="#000000" stroke="none" font-family="Arial" font-size="13px" font-style="normal" font-weight="normal" text-decoration="none" x="2564" y="1688.5">-fA: int</text></g></g><g transform="translate(-2294,-838) scale(1,1)"><g><path fill="none" stroke="none"/><text fill="#000000" stroke="none" font-family="Arial" font-size="13px" font-style="normal" font-weight="normal" text-decoration="none" x="2564" y="1703.5">-ds: String</text></g></g><g transform="translate(-2294,-838) scale(1,1)"><g><path fill="none" stroke="none"/><text fill="#000000" stroke="none" font-family="Arial" font-size="13px" font-style="normal" font-weight="normal" text-decoration="none" x="2564" y="1718.5">-pC: int</text></g></g><g transform="translate(-2294,-838) scale(1,1)"><path fill="none" stroke="#000000" d="M 2616 1615 L 2616 1421" stroke-miterlimit="10"/></g><g transform="translate(-2294,-838) scale(1,1)"><path fill="none" stroke="#000000" d="M 2558 1673 L 2496 1672 L 2496 1176 L 2510 1176" stroke-miterlimit="10"/></g><g transform="translate(-2294,-838) scale(1,1)"><path fill="none" stroke="#000000" d="M 2675 1674 L 3664 1672 L 3664 1360 L 3585.3212890625 1365.5460559475807" stroke-miterlimit="10"/></g><g transform="translate(-2294,-838) scale(1,1)"><path fill="none" stroke="#000000" d="M 3113 1202 L 3112 1400 L 2649 1398" stroke-miterlimit="10"/></g><g transform="translate(-2294,-838) scale(1,1)"><path fill="none" stroke="#000000" d="M 3087 1179 L 2724 1180" stroke-miterlimit="10"/></g><g transform="translate(-2294,-838) scale(1,1)"><rect fill="#C0C0C0" stroke="none" x="3095" y="1164" width="50.919921875" height="44" opacity="0.2"/></g><g transform="translate(-2294,-838) scale(1,1)"><rect fill="#ffffff" stroke="none" x="3088" y="1157" width="50.919921875" height="44"/></g><g transform="translate(-2294,-838) scale(1,1)"><path fill="none" stroke="#000000" d="M 3088 1157 L 3138.919921875 1157 L 3138.919921875 1201 L 3088 1201 L 3088 1157 Z Z" stroke-miterlimit="10"/></g><g transform="translate(-2294,-838) scale(1,1)"><path fill="none" stroke="#000000" d="M 3088 1182 L 3138.919921875 1182" stroke-miterlimit="10"/></g><g transform="translate(-2294,-838) scale(1,1)"><path fill="none" stroke="#000000" d="M 3088 1192 L 3138.919921875 1192" stroke-miterlimit="10"/></g><g transform="translate(-2294,-838) scale(1,1)"><g><path fill="none" stroke="none"/><text fill="#000000" stroke="none" font-family="Arial" font-size="13px" font-style="normal" font-weight="bold" text-decoration="none" x="3099.37451171875" y="1176.5">OBD</text></g></g><g transform="translate(-2294,-838) scale(1,1)"><path fill="none" stroke="#000000" d="M 3113 1156 L 3112 1128 L 3184 1128 L 3184 1400 L 3506 1398" stroke-miterlimit="10"/></g><g transform="translate(-2294,-838) scale(1,1)"><path fill="#000000" stroke="none" d="M 3495.8636667370856 1402.2725575459126 L 3506 1398 L 3495.811375599702 1393.853684427151 L 3484.0004243540657 1398.1366433269934"/></g><g transform="translate(-2294,-838) scale(1,1)"><path fill="none" stroke="#000000" d="M 3495.8636667370856 1402.2725575459126 L 3506 1398 L 3495.811375599702 1393.853684427151 L 3484.0004243540657 1398.1366433269934 L 3495.8636667370856 1402.2725575459126" stroke-miterlimit="10"/></g></g></svg>