<svg version="1.1" xmlns="http://www.w3.org/2000/svg" xmlns:xlink="http://www.w3.org/1999/xlink" width="621.36328125" height="341"><defs/><g><g transform="translate(-334,-158) scale(1,1)"><path fill="#C0C0C0" stroke="none" d="M 642 184.5 C 642 179.2532944 646.2532944 175 651.5 175 C 656.7467056 175 661 179.2532944 661 184.5 C 661 189.7467056 656.7467056 194 651.5 194 C 646.2532944 194 642 189.7467056 642 184.5 Z" opacity="0.2"/></g><g transform="translate(-334,-158) scale(1,1)"><path fill="#000000" stroke="none" d="M 635 177.5 C 635 172.2532944 639.2532944 168 644.5 168 C 649.7467056 168 654 172.2532944 654 177.5 C 654 182.7467056 649.7467056 187 644.5 187 C 639.2532944 187 635 182.7467056 635 177.5 Z"/></g><g transform="translate(-334,-158) scale(1,1)"><path fill="#C0C0C0" stroke="none" d="M 639 483.5 C 639 476.59644 644.59644 471 651.5 471 C 658.40356 471 664 476.59644 664 483.5 C 664 490.40356 658.40356 496 651.5 496 C 644.59644 496 639 490.40356 639 483.5 Z" opacity="0.2"/></g><g transform="translate(-334,-158) scale(1,1)"><path fill="none" stroke="#000000" d="M 632 476.5 C 632 469.59644 637.59644 464 644.5 464 C 651.40356 464 657 469.59644 657 476.5 C 657 483.40356 651.40356 489 644.5 489 C 637.59644 489 632 483.40356 632 476.5 Z" stroke-miterlimit="10"/></g><g transform="translate(-334,-158) scale(1,1)"><path fill="#000000" stroke="none" d="M 637 476.5 C 637 472.357864 640.357864 469 644.5 469 C 648.642136 469 652 472.357864 652 476.5 C 652 480.642136 648.642136 484 644.5 484 C 640.357864 484 637 480.642136 637 476.5 Z"/></g><g transform="translate(-334,-158) scale(1,1)"><path fill="#C0C0C0" stroke="none" d="M 361 327 L 942.36328125 327 Q 952.36328125 327 952.36328125 337 L 952.36328125 357 Q 952.36328125 367 942.36328125 367 L 361 367 Q 351 367 351 357 L 351 337 Q 351 327 361 327 Z" opacity="0.2"/></g><g transform="translate(-334,-158) scale(1,1)"><path fill="#ffffff" stroke="none" d="M 354 320 L 935.36328125 320 Q 945.36328125 320 945.36328125 330 L 945.36328125 350 Q 945.36328125 360 935.36328125 360 L 354 360 Q 344 360 344 350 L 344 330 Q 344 320 354 320 Z"/></g><g transform="translate(-334,-158) scale(1,1)"><path fill="none" stroke="#000000" d="M 354 320 L 935.36328125 320 Q 945.36328125 320 945.36328125 330 L 945.36328125 350 Q 945.36328125 360 935.36328125 360 L 354 360 Q 344 360 344 350 L 344 330 Q 344 320 354 320 Z" stroke-miterlimit="10"/></g><g transform="translate(-334,-158) scale(1,1)"><g><path fill="none" stroke="none"/><text fill="#000000" stroke="none" font-family="Arial" font-size="13px" font-style="normal" font-weight="bold" text-decoration="none" x="369.342529296875" y="339.5">Gerenciador envia o trecho de texto digitado pelo usuário para as entidades ativas no momento</text></g></g><g transform="translate(-334,-158) scale(1,1)"><path fill="none" stroke="#000000" d="M 644 188 L 644 319" stroke-miterlimit="10"/></g><g transform="translate(-334,-158) scale(1,1)"><path fill="none" stroke="#000000" d="M 639.790482243984 308.83732514237585 L 644 319 L 648.209517756016 308.83732514237585" stroke-miterlimit="10"/></g><g transform="translate(-334,-158) scale(1,1)"><path fill="none" stroke="#000000" d="M 644 361 L 644 463" stroke-miterlimit="10"/></g><g transform="translate(-334,-158) scale(1,1)"><path fill="none" stroke="#000000" d="M 639.790482243984 452.83732514237585 L 644 463 L 648.209517756016 452.83732514237585" stroke-miterlimit="10"/></g></g></svg>