<svg version="1.1" xmlns="http://www.w3.org/2000/svg" xmlns:xlink="http://www.w3.org/1999/xlink" width="554.94775390625" height="781"><defs/><g><g transform="translate(-404,-94) scale(1,1)"><path fill="#C0C0C0" stroke="none" d="M 679 120.5 C 679 115.2532944 683.2532944 111 688.5 111 C 693.7467056 111 698 115.2532944 698 120.5 C 698 125.7467056 693.7467056 130 688.5 130 C 683.2532944 130 679 125.7467056 679 120.5 Z" opacity="0.2"/></g><g transform="translate(-404,-94) scale(1,1)"><path fill="#000000" stroke="none" d="M 672 113.5 C 672 108.2532944 676.2532944 104 681.5 104 C 686.7467056 104 691 108.2532944 691 113.5 C 691 118.7467056 686.7467056 123 681.5 123 C 676.2532944 123 672 118.7467056 672 113.5 Z"/></g><g transform="translate(-404,-94) scale(1,1)"><path fill="#C0C0C0" stroke="none" d="M 439 455.5 C 439 448.59644 444.59644 443 451.5 443 C 458.40356 443 464 448.59644 464 455.5 C 464 462.40356 458.40356 468 451.5 468 C 444.59644 468 439 462.40356 439 455.5 Z" opacity="0.2"/></g><g transform="translate(-404,-94) scale(1,1)"><path fill="none" stroke="#000000" d="M 432 448.5 C 432 441.59644 437.59644 436 444.5 436 C 451.40356 436 457 441.59644 457 448.5 C 457 455.40356 451.40356 461 444.5 461 C 437.59644 461 432 455.40356 432 448.5 Z" stroke-miterlimit="10"/></g><g transform="translate(-404,-94) scale(1,1)"><path fill="#000000" stroke="none" d="M 437 448.5 C 437 444.357864 440.357864 441 444.5 441 C 448.642136 441 452 444.357864 452 448.5 C 452 452.642136 448.642136 456 444.5 456 C 440.357864 456 437 452.642136 437 448.5 Z"/></g><g transform="translate(-404,-94) scale(1,1)"><path fill="#C0C0C0" stroke="none" d="M 583 199 L 794.5361328125 199 Q 804.5361328125 199 804.5361328125 209 L 804.5361328125 229 Q 804.5361328125 239 794.5361328125 239 L 583 239 Q 573 239 573 229 L 573 209 Q 573 199 583 199 Z" opacity="0.2"/></g><g transform="translate(-404,-94) scale(1,1)"><path fill="#ffffff" stroke="none" d="M 576 192 L 787.5361328125 192 Q 797.5361328125 192 797.5361328125 202 L 797.5361328125 222 Q 797.5361328125 232 787.5361328125 232 L 576 232 Q 566 232 566 222 L 566 202 Q 566 192 576 192 Z"/></g><g transform="translate(-404,-94) scale(1,1)"><path fill="none" stroke="#000000" d="M 576 192 L 787.5361328125 192 Q 797.5361328125 192 797.5361328125 202 L 797.5361328125 222 Q 797.5361328125 232 787.5361328125 232 L 576 232 Q 566 232 566 222 L 566 202 Q 566 192 576 192 Z" stroke-miterlimit="10"/></g><g transform="translate(-404,-94) scale(1,1)"><g><path fill="none" stroke="none"/><text fill="#000000" stroke="none" font-family="Arial" font-size="13px" font-style="normal" font-weight="bold" text-decoration="none" x="578.069580078125" y="211.5">Apresenta sugestões sem repetição</text></g></g><g transform="translate(-404,-94) scale(1,1)"><path fill="#C0C0C0" stroke="none" d="M 604 303 L 773.603515625 303 Q 783.603515625 303 783.603515625 313 L 783.603515625 333 Q 783.603515625 343 773.603515625 343 L 604 343 Q 594 343 594 333 L 594 313 Q 594 303 604 303 Z" opacity="0.2"/></g><g transform="translate(-404,-94) scale(1,1)"><path fill="#ffffff" stroke="none" d="M 597 296 L 766.603515625 296 Q 776.603515625 296 776.603515625 306 L 776.603515625 326 Q 776.603515625 336 766.603515625 336 L 597 336 Q 587 336 587 326 L 587 306 Q 587 296 597 296 Z"/></g><g transform="translate(-404,-94) scale(1,1)"><path fill="none" stroke="#000000" d="M 597 296 L 766.603515625 296 Q 776.603515625 296 776.603515625 306 L 776.603515625 326 Q 776.603515625 336 766.603515625 336 L 597 336 Q 587 336 587 326 L 587 306 Q 587 296 597 296 Z" stroke-miterlimit="10"/></g><g transform="translate(-404,-94) scale(1,1)"><g><path fill="none" stroke="none"/><text fill="#000000" stroke="none" font-family="Arial" font-size="13px" font-style="normal" font-weight="bold" text-decoration="none" x="598.333251953125" y="315.5">Usuário seleciono sugestão?</text></g></g><g transform="translate(-404,-94) scale(1,1)"><path fill="#C0C0C0" stroke="none" d="M 587 567 L 789.84619140625 567 Q 799.84619140625 567 799.84619140625 577 L 799.84619140625 597 Q 799.84619140625 607 789.84619140625 607 L 587 607 Q 577 607 577 597 L 577 577 Q 577 567 587 567 Z" opacity="0.2"/></g><g transform="translate(-404,-94) scale(1,1)"><path fill="#ffffff" stroke="none" d="M 580 560 L 782.84619140625 560 Q 792.84619140625 560 792.84619140625 570 L 792.84619140625 590 Q 792.84619140625 600 782.84619140625 600 L 580 600 Q 570 600 570 590 L 570 570 Q 570 560 580 560 Z"/></g><g transform="translate(-404,-94) scale(1,1)"><path fill="none" stroke="#000000" d="M 580 560 L 782.84619140625 560 Q 792.84619140625 560 792.84619140625 570 L 792.84619140625 590 Q 792.84619140625 600 782.84619140625 600 L 580 600 Q 570 600 570 590 L 570 570 Q 570 560 580 560 Z" stroke-miterlimit="10"/></g><g transform="translate(-404,-94) scale(1,1)"><g><path fill="none" stroke="none"/><text fill="#000000" stroke="none" font-family="Arial" font-size="13px" font-style="normal" font-weight="bold" text-decoration="none" x="581.695068359375" y="579.5">Preenche com o texto selecionado</text></g></g><g transform="translate(-404,-94) scale(1,1)"><path fill="#C0C0C0" stroke="none" d="M 657 455.5 L 688.5 431 L 719 455.5 L 688.5 479 L 657 455.5" opacity="0.2"/></g><g transform="translate(-404,-94) scale(1,1)"><path fill="#ffffff" stroke="none" d="M 650 448 L 681 424 L 712 448 L 681 472 L 650 448"/></g><g transform="translate(-404,-94) scale(1,1)"><path fill="none" stroke="#000000" d="M 650 448 L 681 424 L 712 448 L 681 472 L 650 448 L 650 448" stroke-miterlimit="10"/></g><g transform="translate(-404,-94) scale(1,1)"><path fill="none" stroke="#000000" d="M 649 448 L 458 448" stroke-miterlimit="10"/></g><g transform="translate(-404,-94) scale(1,1)"><path fill="none" stroke="#000000" d="M 468.16267485762415 443.790482243984 L 458 448 L 468.16267485762415 452.209517756016" stroke-miterlimit="10"/></g><g transform="translate(-404,-94) scale(1,1)"><g><path fill="none" stroke="none"/><text fill="#000000" stroke="none" font-family="Arial" font-size="13px" font-style="normal" font-weight="normal" text-decoration="none" x="541" y="470">Não</text></g></g><g transform="translate(-404,-94) scale(1,1)"><path fill="#C0C0C0" stroke="none" d="M 431 687 L 945.94775390625 687 Q 955.94775390625 687 955.94775390625 697 L 955.94775390625 717 Q 955.94775390625 727 945.94775390625 727 L 431 727 Q 421 727 421 717 L 421 697 Q 421 687 431 687 Z" opacity="0.2"/></g><g transform="translate(-404,-94) scale(1,1)"><path fill="#ffffff" stroke="none" d="M 424 680 L 938.94775390625 680 Q 948.94775390625 680 948.94775390625 690 L 948.94775390625 710 Q 948.94775390625 720 938.94775390625 720 L 424 720 Q 414 720 414 710 L 414 690 Q 414 680 424 680 Z"/></g><g transform="translate(-404,-94) scale(1,1)"><path fill="none" stroke="#000000" d="M 424 680 L 938.94775390625 680 Q 948.94775390625 680 948.94775390625 690 L 948.94775390625 710 Q 948.94775390625 720 938.94775390625 720 L 424 720 Q 414 720 414 710 L 414 690 Q 414 680 424 680 Z" stroke-miterlimit="10"/></g><g transform="translate(-404,-94) scale(1,1)"><g><path fill="none" stroke="none"/><text fill="#000000" stroke="none" font-family="Arial" font-size="13px" font-style="normal" font-weight="bold" text-decoration="none" x="437.946044921875" y="699.5">Notifica o gerenciador para incrementar os sugestores cuja sugestão foi selecionada</text></g></g><g transform="translate(-404,-94) scale(1,1)"><path fill="none" stroke="#000000" d="M 681 124 L 681 191" stroke-miterlimit="10"/></g><g transform="translate(-404,-94) scale(1,1)"><path fill="none" stroke="#000000" d="M 676.790482243984 180.83732514237585 L 681 191 L 685.209517756016 180.83732514237585" stroke-miterlimit="10"/></g><g transform="translate(-404,-94) scale(1,1)"><path fill="none" stroke="#000000" d="M 681 233 L 681 295" stroke-miterlimit="10"/></g><g transform="translate(-404,-94) scale(1,1)"><path fill="none" stroke="#000000" d="M 676.790482243984 284.83732514237585 L 681 295 L 685.209517756016 284.83732514237585" stroke-miterlimit="10"/></g><g transform="translate(-404,-94) scale(1,1)"><path fill="none" stroke="#000000" d="M 681 337 L 681 423" stroke-miterlimit="10"/></g><g transform="translate(-404,-94) scale(1,1)"><path fill="none" stroke="#000000" d="M 676.790482243984 412.83732514237585 L 681 423 L 685.209517756016 412.83732514237585" stroke-miterlimit="10"/></g><g transform="translate(-404,-94) scale(1,1)"><path fill="none" stroke="#000000" d="M 681 473 L 681 559" stroke-miterlimit="10"/></g><g transform="translate(-404,-94) scale(1,1)"><path fill="none" stroke="#000000" d="M 676.790482243984 548.8373251423759 L 681 559 L 685.209517756016 548.8373251423759" stroke-miterlimit="10"/></g><g transform="translate(-404,-94) scale(1,1)"><g><path fill="none" stroke="none"/><text fill="#000000" stroke="none" font-family="Arial" font-size="13px" font-style="normal" font-weight="normal" text-decoration="none" x="684" y="522">Sim</text></g></g><g transform="translate(-404,-94) scale(1,1)"><path fill="none" stroke="#000000" d="M 681 601 L 681 679" stroke-miterlimit="10"/></g><g transform="translate(-404,-94) scale(1,1)"><path fill="none" stroke="#000000" d="M 676.790482243984 668.8373251423759 L 681 679 L 685.209517756016 668.8373251423759" stroke-miterlimit="10"/></g><g transform="translate(-404,-94) scale(1,1)"><path fill="#C0C0C0" stroke="none" d="M 676 859.5 C 676 852.59644 681.59644 847 688.5 847 C 695.40356 847 701 852.59644 701 859.5 C 701 866.40356 695.40356 872 688.5 872 C 681.59644 872 676 866.40356 676 859.5 Z" opacity="0.2"/></g><g transform="translate(-404,-94) scale(1,1)"><path fill="none" stroke="#000000" d="M 669 852.5 C 669 845.59644 674.59644 840 681.5 840 C 688.40356 840 694 845.59644 694 852.5 C 694 859.40356 688.40356 865 681.5 865 C 674.59644 865 669 859.40356 669 852.5 Z" stroke-miterlimit="10"/></g><g transform="translate(-404,-94) scale(1,1)"><path fill="#000000" stroke="none" d="M 674 852.5 C 674 848.357864 677.357864 845 681.5 845 C 685.642136 845 689 848.357864 689 852.5 C 689 856.642136 685.642136 860 681.5 860 C 677.357864 860 674 856.642136 674 852.5 Z"/></g><g transform="translate(-404,-94) scale(1,1)"><path fill="none" stroke="#000000" d="M 681 721 L 681 839" stroke-miterlimit="10"/></g><g transform="translate(-404,-94) scale(1,1)"><path fill="none" stroke="#000000" d="M 676.790482243984 828.8373251423759 L 681 839 L 685.209517756016 828.8373251423759" stroke-miterlimit="10"/></g></g></svg>