<svg version="1.1" xmlns="http://www.w3.org/2000/svg" xmlns:xlink="http://www.w3.org/1999/xlink" width="266.6943359375" height="325"><defs/><g><g transform="translate(-133,-78) scale(1,1)"><path fill="#C0C0C0" stroke="none" d="M 264 104.5 C 264 99.2532944 268.2532944 95 273.5 95 C 278.7467056 95 283 99.2532944 283 104.5 C 283 109.7467056 278.7467056 114 273.5 114 C 268.2532944 114 264 109.7467056 264 104.5 Z" opacity="0.2"/></g><g transform="translate(-133,-78) scale(1,1)"><path fill="#000000" stroke="none" d="M 257 97.5 C 257 92.2532944 261.2532944 88 266.5 88 C 271.7467056 88 276 92.2532944 276 97.5 C 276 102.7467056 271.7467056 107 266.5 107 C 261.2532944 107 257 102.7467056 257 97.5 Z"/></g><g transform="translate(-133,-78) scale(1,1)"><path fill="#C0C0C0" stroke="none" d="M 261 387.5 C 261 380.59644 266.59644 375 273.5 375 C 280.40356 375 286 380.59644 286 387.5 C 286 394.40356 280.40356 400 273.5 400 C 266.59644 400 261 394.40356 261 387.5 Z" opacity="0.2"/></g><g transform="translate(-133,-78) scale(1,1)"><path fill="none" stroke="#000000" d="M 254 380.5 C 254 373.59644 259.59644 368 266.5 368 C 273.40356 368 279 373.59644 279 380.5 C 279 387.40356 273.40356 393 266.5 393 C 259.59644 393 254 387.40356 254 380.5 Z" stroke-miterlimit="10"/></g><g transform="translate(-133,-78) scale(1,1)"><path fill="#000000" stroke="none" d="M 259 380.5 C 259 376.357864 262.357864 373 266.5 373 C 270.642136 373 274 376.357864 274 380.5 C 274 384.642136 270.642136 388 266.5 388 C 262.357864 388 259 384.642136 259 380.5 Z"/></g><g transform="translate(-133,-78) scale(1,1)"><path fill="#C0C0C0" stroke="none" d="M 228 167 L 318.892578125 167 Q 328.892578125 167 328.892578125 177 L 328.892578125 197 Q 328.892578125 207 318.892578125 207 L 228 207 Q 218 207 218 197 L 218 177 Q 218 167 228 167 Z" opacity="0.2"/></g><g transform="translate(-133,-78) scale(1,1)"><path fill="#ffffff" stroke="none" d="M 221 160 L 311.892578125 160 Q 321.892578125 160 321.892578125 170 L 321.892578125 190 Q 321.892578125 200 311.892578125 200 L 221 200 Q 211 200 211 190 L 211 170 Q 211 160 221 160 Z"/></g><g transform="translate(-133,-78) scale(1,1)"><path fill="none" stroke="#000000" d="M 221 160 L 311.892578125 160 Q 321.892578125 160 321.892578125 170 L 321.892578125 190 Q 321.892578125 200 311.892578125 200 L 221 200 Q 211 200 211 190 L 211 170 Q 211 160 221 160 Z" stroke-miterlimit="10"/></g><g transform="translate(-133,-78) scale(1,1)"><g><path fill="none" stroke="none"/><text fill="#000000" stroke="none" font-family="Arial" font-size="13px" font-style="normal" font-weight="bold" text-decoration="none" x="218.7626953125" y="179.5">Usuario Escreve</text></g></g><g transform="translate(-133,-78) scale(1,1)"><path fill="#C0C0C0" stroke="none" d="M 160 279 L 386.6943359375 279 Q 396.6943359375 279 396.6943359375 289 L 396.6943359375 309 Q 396.6943359375 319 386.6943359375 319 L 160 319 Q 150 319 150 309 L 150 289 Q 150 279 160 279 Z" opacity="0.2"/></g><g transform="translate(-133,-78) scale(1,1)"><path fill="#ffffff" stroke="none" d="M 153 272 L 379.6943359375 272 Q 389.6943359375 272 389.6943359375 282 L 389.6943359375 302 Q 389.6943359375 312 379.6943359375 312 L 153 312 Q 143 312 143 302 L 143 282 Q 143 272 153 272 Z"/></g><g transform="translate(-133,-78) scale(1,1)"><path fill="none" stroke="#000000" d="M 153 272 L 379.6943359375 272 Q 389.6943359375 272 389.6943359375 282 L 389.6943359375 302 Q 389.6943359375 312 379.6943359375 312 L 153 312 Q 143 312 143 302 L 143 282 Q 143 272 153 272 Z" stroke-miterlimit="10"/></g><g transform="translate(-133,-78) scale(1,1)"><g><path fill="none" stroke="none"/><text fill="#000000" stroke="none" font-family="Arial" font-size="13px" font-style="normal" font-weight="bold" text-decoration="none" x="155.06005859375" y="291.5">A interface encaminha ao Gerenciador</text></g></g><g transform="translate(-133,-78) scale(1,1)"><path fill="none" stroke="#000000" d="M 266 108 L 266 159" stroke-miterlimit="10"/></g><g transform="translate(-133,-78) scale(1,1)"><path fill="none" stroke="#000000" d="M 261.790482243984 148.83732514237585 L 266 159 L 270.209517756016 148.83732514237585" stroke-miterlimit="10"/></g><g transform="translate(-133,-78) scale(1,1)"><path fill="none" stroke="#000000" d="M 266 201 L 266 271" stroke-miterlimit="10"/></g><g transform="translate(-133,-78) scale(1,1)"><path fill="none" stroke="#000000" d="M 261.790482243984 260.83732514237585 L 266 271 L 270.209517756016 260.83732514237585" stroke-miterlimit="10"/></g><g transform="translate(-133,-78) scale(1,1)"><path fill="none" stroke="#000000" d="M 266 313 L 266 367" stroke-miterlimit="10"/></g><g transform="translate(-133,-78) scale(1,1)"><path fill="none" stroke="#000000" d="M 261.790482243984 356.83732514237585 L 266 367 L 270.209517756016 356.83732514237585" stroke-miterlimit="10"/></g></g></svg>