<svg version="1.1" xmlns="http://www.w3.org/2000/svg" xmlns:xlink="http://www.w3.org/1999/xlink" width="302.0888671875" height="501"><defs/><g><g transform="translate(-519,-86) scale(1,1)"><path fill="#C0C0C0" stroke="none" d="M 668 112.5 C 668 107.2532944 672.2532944 103 677.5 103 C 682.7467056 103 687 107.2532944 687 112.5 C 687 117.7467056 682.7467056 122 677.5 122 C 672.2532944 122 668 117.7467056 668 112.5 Z" opacity="0.2"/></g><g transform="translate(-519,-86) scale(1,1)"><path fill="#000000" stroke="none" d="M 661 105.5 C 661 100.2532944 665.2532944 96 670.5 96 C 675.7467056 96 680 100.2532944 680 105.5 C 680 110.7467056 675.7467056 115 670.5 115 C 665.2532944 115 661 110.7467056 661 105.5 Z"/></g><g transform="translate(-519,-86) scale(1,1)"><path fill="#C0C0C0" stroke="none" d="M 665 571.5 C 665 564.59644 670.59644 559 677.5 559 C 684.40356 559 690 564.59644 690 571.5 C 690 578.40356 684.40356 584 677.5 584 C 670.59644 584 665 578.40356 665 571.5 Z" opacity="0.2"/></g><g transform="translate(-519,-86) scale(1,1)"><path fill="none" stroke="#000000" d="M 658 564.5 C 658 557.59644 663.59644 552 670.5 552 C 677.40356 552 683 557.59644 683 564.5 C 683 571.40356 677.40356 577 670.5 577 C 663.59644 577 658 571.40356 658 564.5 Z" stroke-miterlimit="10"/></g><g transform="translate(-519,-86) scale(1,1)"><path fill="#000000" stroke="none" d="M 663 564.5 C 663 560.357864 666.357864 557 670.5 557 C 674.642136 557 678 560.357864 678 564.5 C 678 568.642136 674.642136 572 670.5 572 C 666.357864 572 663 568.642136 663 564.5 Z"/></g><g transform="translate(-519,-86) scale(1,1)"><path fill="#C0C0C0" stroke="none" d="M 558 167 L 797.6943359375 167 Q 807.6943359375 167 807.6943359375 177 L 807.6943359375 197 Q 807.6943359375 207 797.6943359375 207 L 558 207 Q 548 207 548 197 L 548 177 Q 548 167 558 167 Z" opacity="0.2"/></g><g transform="translate(-519,-86) scale(1,1)"><path fill="#ffffff" stroke="none" d="M 551 160 L 790.6943359375 160 Q 800.6943359375 160 800.6943359375 170 L 800.6943359375 190 Q 800.6943359375 200 790.6943359375 200 L 551 200 Q 541 200 541 190 L 541 170 Q 541 160 551 160 Z"/></g><g transform="translate(-519,-86) scale(1,1)"><path fill="none" stroke="#000000" d="M 551 160 L 790.6943359375 160 Q 800.6943359375 160 800.6943359375 170 L 800.6943359375 190 Q 800.6943359375 200 790.6943359375 200 L 551 200 Q 541 200 541 190 L 541 170 Q 541 160 551 160 Z" stroke-miterlimit="10"/></g><g transform="translate(-519,-86) scale(1,1)"><g><path fill="none" stroke="none"/><text fill="#000000" stroke="none" font-family="Arial" font-size="13px" font-style="normal" font-weight="bold" text-decoration="none" x="554.5009765625" y="179.5">Sugestor concatena as estruturas de sql</text></g></g><g transform="translate(-519,-86) scale(1,1)"><path fill="#C0C0C0" stroke="none" d="M 629 255 L 726.37353515625 255 Q 736.37353515625 255 736.37353515625 265 L 736.37353515625 285 Q 736.37353515625 295 726.37353515625 295 L 629 295 Q 619 295 619 285 L 619 265 Q 619 255 629 255 Z" opacity="0.2"/></g><g transform="translate(-519,-86) scale(1,1)"><path fill="#ffffff" stroke="none" d="M 622 248 L 719.37353515625 248 Q 729.37353515625 248 729.37353515625 258 L 729.37353515625 278 Q 729.37353515625 288 719.37353515625 288 L 622 288 Q 612 288 612 278 L 612 258 Q 612 248 622 248 Z"/></g><g transform="translate(-519,-86) scale(1,1)"><path fill="none" stroke="#000000" d="M 622 248 L 719.37353515625 248 Q 729.37353515625 248 729.37353515625 258 L 729.37353515625 278 Q 729.37353515625 288 719.37353515625 288 L 622 288 Q 612 288 612 278 L 612 258 Q 612 248 622 248 Z" stroke-miterlimit="10"/></g><g transform="translate(-519,-86) scale(1,1)"><g><path fill="none" stroke="none"/><text fill="#000000" stroke="none" font-family="Arial" font-size="13px" font-style="normal" font-weight="bold" text-decoration="none" x="620.09912109375" y="267.5">Sugestor executa</text></g></g><g transform="translate(-519,-86) scale(1,1)"><path fill="#C0C0C0" stroke="none" d="M 587 335 L 768.87353515625 335 Q 778.87353515625 335 778.87353515625 345 L 778.87353515625 365 Q 778.87353515625 375 768.87353515625 375 L 587 375 Q 577 375 577 365 L 577 345 Q 577 335 587 335 Z" opacity="0.2"/></g><g transform="translate(-519,-86) scale(1,1)"><path fill="#ffffff" stroke="none" d="M 580 328 L 761.87353515625 328 Q 771.87353515625 328 771.87353515625 338 L 771.87353515625 358 Q 771.87353515625 368 761.87353515625 368 L 580 368 Q 570 368 570 358 L 570 338 Q 570 328 580 328 Z"/></g><g transform="translate(-519,-86) scale(1,1)"><path fill="none" stroke="#000000" d="M 580 328 L 761.87353515625 328 Q 771.87353515625 328 771.87353515625 338 L 771.87353515625 358 Q 771.87353515625 368 761.87353515625 368 L 580 368 Q 570 368 570 358 L 570 338 Q 570 328 580 328 Z" stroke-miterlimit="10"/></g><g transform="translate(-519,-86) scale(1,1)"><g><path fill="none" stroke="none"/><text fill="#000000" stroke="none" font-family="Arial" font-size="13px" font-style="normal" font-weight="bold" text-decoration="none" x="581.326904296875" y="347.5">Incrementa o contador de usos</text></g></g><g transform="translate(-519,-86) scale(1,1)"><path fill="#C0C0C0" stroke="none" d="M 546 447 L 808.0888671875 447 Q 818.0888671875 447 818.0888671875 457 L 818.0888671875 477 Q 818.0888671875 487 808.0888671875 487 L 546 487 Q 536 487 536 477 L 536 457 Q 536 447 546 447 Z" opacity="0.2"/></g><g transform="translate(-519,-86) scale(1,1)"><path fill="#ffffff" stroke="none" d="M 539 440 L 801.0888671875 440 Q 811.0888671875 440 811.0888671875 450 L 811.0888671875 470 Q 811.0888671875 480 801.0888671875 480 L 539 480 Q 529 480 529 470 L 529 450 Q 529 440 539 440 Z"/></g><g transform="translate(-519,-86) scale(1,1)"><path fill="none" stroke="#000000" d="M 539 440 L 801.0888671875 440 Q 811.0888671875 440 811.0888671875 450 L 811.0888671875 470 Q 811.0888671875 480 801.0888671875 480 L 539 480 Q 529 480 529 470 L 529 450 Q 529 440 539 440 Z" stroke-miterlimit="10"/></g><g transform="translate(-519,-86) scale(1,1)"><g><path fill="none" stroke="none"/><text fill="#000000" stroke="none" font-family="Arial" font-size="13px" font-style="normal" font-weight="bold" text-decoration="none" x="542.129638671875" y="459.5">Sugestor encaminha para a interface de uso</text></g></g><g transform="translate(-519,-86) scale(1,1)"><path fill="none" stroke="#000000" d="M 670 116 L 670 159" stroke-miterlimit="10"/></g><g transform="translate(-519,-86) scale(1,1)"><path fill="none" stroke="#000000" d="M 665.790482243984 148.83732514237585 L 670 159 L 674.209517756016 148.83732514237585" stroke-miterlimit="10"/></g><g transform="translate(-519,-86) scale(1,1)"><path fill="none" stroke="#000000" d="M 670 201 L 670 247" stroke-miterlimit="10"/></g><g transform="translate(-519,-86) scale(1,1)"><path fill="none" stroke="#000000" d="M 665.790482243984 236.83732514237585 L 670 247 L 674.209517756016 236.83732514237585" stroke-miterlimit="10"/></g><g transform="translate(-519,-86) scale(1,1)"><path fill="none" stroke="#000000" d="M 670 289 L 670 327" stroke-miterlimit="10"/></g><g transform="translate(-519,-86) scale(1,1)"><path fill="none" stroke="#000000" d="M 665.790482243984 316.83732514237585 L 670 327 L 674.209517756016 316.83732514237585" stroke-miterlimit="10"/></g><g transform="translate(-519,-86) scale(1,1)"><path fill="none" stroke="#000000" d="M 670 369 L 670 439" stroke-miterlimit="10"/></g><g transform="translate(-519,-86) scale(1,1)"><path fill="none" stroke="#000000" d="M 665.790482243984 428.83732514237585 L 670 439 L 674.209517756016 428.83732514237585" stroke-miterlimit="10"/></g><g transform="translate(-519,-86) scale(1,1)"><path fill="none" stroke="#000000" d="M 670 481 L 670 551" stroke-miterlimit="10"/></g><g transform="translate(-519,-86) scale(1,1)"><path fill="none" stroke="#000000" d="M 665.790482243984 540.8373251423759 L 670 551 L 674.209517756016 540.8373251423759" stroke-miterlimit="10"/></g></g></svg>