<svg version="1.1" xmlns="http://www.w3.org/2000/svg" xmlns:xlink="http://www.w3.org/1999/xlink" width="1605" height="533"><defs/><g><g transform="translate(-30,-118) scale(1,1)"><path fill="#ffffff" stroke="none" d="M 219.02116672585228 225.68 C 219.02116672585228 220.886167936 222.90700905079774 217 227.700439453125 217 C 232.49386985545226 217 236.37971218039772 220.886167936 236.37971218039772 225.68 C 236.37971218039772 230.47383206400002 232.49386985545226 234.36 227.700439453125 234.36 C 222.90700905079774 234.36 219.02116672585228 230.47383206400002 219.02116672585228 225.68 Z"/></g><g transform="translate(-30,-118) scale(1,1)"><path fill="none" stroke="#000000" d="M 219.02116672585228 225.68 C 219.02116672585228 220.886167936 222.90700905079774 217 227.700439453125 217 C 232.49386985545226 217 236.37971218039772 220.886167936 236.37971218039772 225.68 C 236.37971218039772 230.47383206400002 232.49386985545226 234.36 227.700439453125 234.36 C 222.90700905079774 234.36 219.02116672585228 230.47383206400002 219.02116672585228 225.68 Z" stroke-miterlimit="10"/></g><g transform="translate(-30,-118) scale(1,1)"><path fill="none" stroke="#000000" d="M 227.700439453125 234.36 L 227.700439453125 251.64" stroke-miterlimit="10"/></g><g transform="translate(-30,-118) scale(1,1)"><path fill="none" stroke="#000000" d="M 218.51062127130683 240.84 L 236.89025763494317 240.84" stroke-miterlimit="10"/></g><g transform="translate(-30,-118) scale(1,1)"><path fill="none" stroke="#000000" d="M 227.700439453125 251.64 L 214.93680308948865 269" stroke-miterlimit="10"/></g><g transform="translate(-30,-118) scale(1,1)"><path fill="none" stroke="#000000" d="M 227.700439453125 251.64 L 240.46407581676135 269" stroke-miterlimit="10"/></g><g transform="translate(-30,-118) scale(1,1)"><g><path fill="none" stroke="none"/><text fill="#000000" stroke="none" font-family="Arial" font-size="13px" font-style="normal" font-weight="bold" text-decoration="none" x="205.302734375" y="289.5">Usuário</text></g></g><g transform="translate(-30,-118) scale(1,1)"><path fill="#C0C0C0" stroke="none" d="M 370 165 C 370 155.6111584 415.6669504 148 472 148 C 528.3330496 148 574 155.6111584 574 165 C 574 174.3888416 528.3330496 182 472 182 C 415.6669504 182 370 174.3888416 370 165 Z" opacity="0.2"/></g><g transform="translate(-30,-118) scale(1,1)"><path fill="#ffffff" stroke="none" d="M 363 158 C 363 148.6111584 408.6669504 141 465 141 C 521.3330496 141 567 148.6111584 567 158 C 567 167.3888416 521.3330496 175 465 175 C 408.6669504 175 363 167.3888416 363 158 Z"/></g><g transform="translate(-30,-118) scale(1,1)"><path fill="none" stroke="#000000" d="M 363 158 C 363 148.6111584 408.6669504 141 465 141 C 521.3330496 141 567 148.6111584 567 158 C 567 167.3888416 521.3330496 175 465 175 C 408.6669504 175 363 167.3888416 363 158 Z" stroke-miterlimit="10"/></g><g transform="translate(-30,-118) scale(1,1)"><g><path fill="none" stroke="none"/><text fill="#000000" stroke="none" font-family="Arial" font-size="13px" font-style="normal" font-weight="bold" text-decoration="none" x="402.129638671875" y="165">Insere trecho de texto</text></g></g><g transform="translate(-30,-118) scale(1,1)"><path fill="none" stroke="#000000" d="M 226 215 L 224 160 L 362 159" stroke-miterlimit="10"/></g><g transform="translate(-30,-118) scale(1,1)"><path fill="#ffffff" stroke="none" d="M 219.08024875710228 409.68 C 219.08024875710228 404.886167936 222.96609108204774 401 227.759521484375 401 C 232.55295188670226 401 236.43879421164772 404.886167936 236.43879421164772 409.68 C 236.43879421164772 414.473832064 232.55295188670226 418.36 227.759521484375 418.36 C 222.96609108204774 418.36 219.08024875710228 414.473832064 219.08024875710228 409.68 Z"/></g><g transform="translate(-30,-118) scale(1,1)"><path fill="none" stroke="#000000" d="M 219.08024875710228 409.68 C 219.08024875710228 404.886167936 222.96609108204774 401 227.759521484375 401 C 232.55295188670226 401 236.43879421164772 404.886167936 236.43879421164772 409.68 C 236.43879421164772 414.473832064 232.55295188670226 418.36 227.759521484375 418.36 C 222.96609108204774 418.36 219.08024875710228 414.473832064 219.08024875710228 409.68 Z" stroke-miterlimit="10"/></g><g transform="translate(-30,-118) scale(1,1)"><path fill="none" stroke="#000000" d="M 227.759521484375 418.36 L 227.759521484375 435.64" stroke-miterlimit="10"/></g><g transform="translate(-30,-118) scale(1,1)"><path fill="none" stroke="#000000" d="M 218.56970330255683 424.84 L 236.94933966619317 424.84" stroke-miterlimit="10"/></g><g transform="translate(-30,-118) scale(1,1)"><path fill="none" stroke="#000000" d="M 227.759521484375 435.64 L 214.99588512073865 453" stroke-miterlimit="10"/></g><g transform="translate(-30,-118) scale(1,1)"><path fill="none" stroke="#000000" d="M 227.759521484375 435.64 L 240.52315784801135 453" stroke-miterlimit="10"/></g><g transform="translate(-30,-118) scale(1,1)"><g><path fill="none" stroke="none"/><text fill="#000000" stroke="none" font-family="Arial" font-size="13px" font-style="normal" font-weight="bold" text-decoration="none" x="176.457763671875" y="473.5">Usuário Simulado</text></g></g><g transform="translate(-30,-118) scale(1,1)"><path fill="none" stroke="#000000" d="M 227 399 L 227 296" stroke-miterlimit="10"/></g><g transform="translate(-30,-118) scale(1,1)"><path fill="#FFFFFF" stroke="none" d="M 235.41903551203197 316.3253497152483 L 227 296 L 218.58096448796803 316.3253497152483"/></g><g transform="translate(-30,-118) scale(1,1)"><path fill="none" stroke="#000000" d="M 235.41903551203197 316.3253497152483 L 227 296 L 218.58096448796803 316.3253497152483 L 235.41903551203197 316.3253497152483" stroke-miterlimit="10"/></g><g transform="translate(-30,-118) scale(1,1)"><path fill="#ffffff" stroke="none" d="M 962.1129636008523 289.68 C 962.1129636008523 284.886167936 965.9988059257977 281 970.792236328125 281 C 975.5856667304523 281 979.4715090553977 284.886167936 979.4715090553977 289.68 C 979.4715090553977 294.473832064 975.5856667304523 298.36 970.792236328125 298.36 C 965.9988059257977 298.36 962.1129636008523 294.473832064 962.1129636008523 289.68 Z"/></g><g transform="translate(-30,-118) scale(1,1)"><path fill="none" stroke="#000000" d="M 962.1129636008523 289.68 C 962.1129636008523 284.886167936 965.9988059257977 281 970.792236328125 281 C 975.5856667304523 281 979.4715090553977 284.886167936 979.4715090553977 289.68 C 979.4715090553977 294.473832064 975.5856667304523 298.36 970.792236328125 298.36 C 965.9988059257977 298.36 962.1129636008523 294.473832064 962.1129636008523 289.68 Z" stroke-miterlimit="10"/></g><g transform="translate(-30,-118) scale(1,1)"><path fill="none" stroke="#000000" d="M 970.792236328125 298.36 L 970.792236328125 315.64" stroke-miterlimit="10"/></g><g transform="translate(-30,-118) scale(1,1)"><path fill="none" stroke="#000000" d="M 961.6024181463068 304.84 L 979.9820545099432 304.84" stroke-miterlimit="10"/></g><g transform="translate(-30,-118) scale(1,1)"><path fill="none" stroke="#000000" d="M 970.792236328125 315.64 L 958.0285999644886 333" stroke-miterlimit="10"/></g><g transform="translate(-30,-118) scale(1,1)"><path fill="none" stroke="#000000" d="M 970.792236328125 315.64 L 983.5558726917614 333" stroke-miterlimit="10"/></g><g transform="translate(-30,-118) scale(1,1)"><g><path fill="none" stroke="none"/><text fill="#000000" stroke="none" font-family="Arial" font-size="13px" font-style="normal" font-weight="bold" text-decoration="none" x="935.023193359375" y="353.5">Gerenciador</text></g></g><g transform="translate(-30,-118) scale(1,1)"><path fill="#ffffff" stroke="none" d="M 951.9916257102273 561.6800000000001 C 951.9916257102273 556.8861679360001 955.8774680351727 553 960.6708984375 553 C 965.4643288398273 553 969.3501711647727 556.8861679360001 969.3501711647727 561.6800000000001 C 969.3501711647727 566.473832064 965.4643288398273 570.36 960.6708984375 570.36 C 955.8774680351727 570.36 951.9916257102273 566.473832064 951.9916257102273 561.6800000000001 Z"/></g><g transform="translate(-30,-118) scale(1,1)"><path fill="none" stroke="#000000" d="M 951.9916257102273 561.6800000000001 C 951.9916257102273 556.8861679360001 955.8774680351727 553 960.6708984375 553 C 965.4643288398273 553 969.3501711647727 556.8861679360001 969.3501711647727 561.6800000000001 C 969.3501711647727 566.473832064 965.4643288398273 570.36 960.6708984375 570.36 C 955.8774680351727 570.36 951.9916257102273 566.473832064 951.9916257102273 561.6800000000001 Z" stroke-miterlimit="10"/></g><g transform="translate(-30,-118) scale(1,1)"><path fill="none" stroke="#000000" d="M 960.6708984375 570.36 L 960.6708984375 587.64" stroke-miterlimit="10"/></g><g transform="translate(-30,-118) scale(1,1)"><path fill="none" stroke="#000000" d="M 951.4810802556818 576.84 L 969.8607166193182 576.84" stroke-miterlimit="10"/></g><g transform="translate(-30,-118) scale(1,1)"><path fill="none" stroke="#000000" d="M 960.6708984375 587.64 L 947.9072620738636 605" stroke-miterlimit="10"/></g><g transform="translate(-30,-118) scale(1,1)"><path fill="none" stroke="#000000" d="M 960.6708984375 587.64 L 973.4345348011364 605" stroke-miterlimit="10"/></g><g transform="translate(-30,-118) scale(1,1)"><g><path fill="none" stroke="none"/><text fill="#000000" stroke="none" font-family="Arial" font-size="13px" font-style="normal" font-weight="bold" text-decoration="none" x="934.655029296875" y="625.5">Sugestor</text></g></g><g transform="translate(-30,-118) scale(1,1)"><path fill="#C0C0C0" stroke="none" d="M 352 288 C 352 278.6111584 405.725824 271 472 271 C 538.274176 271 592 278.6111584 592 288 C 592 297.3888416 538.274176 305 472 305 C 405.725824 305 352 297.3888416 352 288 Z" opacity="0.2"/></g><g transform="translate(-30,-118) scale(1,1)"><path fill="#ffffff" stroke="none" d="M 345 281 C 345 271.6111584 398.725824 264 465 264 C 531.274176 264 585 271.6111584 585 281 C 585 290.3888416 531.274176 298 465 298 C 398.725824 298 345 290.3888416 345 281 Z"/></g><g transform="translate(-30,-118) scale(1,1)"><path fill="none" stroke="#000000" d="M 345 281 C 345 271.6111584 398.725824 264 465 264 C 531.274176 264 585 271.6111584 585 281 C 585 290.3888416 531.274176 298 465 298 C 398.725824 298 345 290.3888416 345 281 Z" stroke-miterlimit="10"/></g><g transform="translate(-30,-118) scale(1,1)"><g><path fill="none" stroke="none"/><text fill="#000000" stroke="none" font-family="Arial" font-size="13px" font-style="normal" font-weight="bold" text-decoration="none" x="391.29736328125" y="288">Distribui o trecho de texto</text></g></g><g transform="translate(-30,-118) scale(1,1)"><path fill="none" stroke="#000000" d="M 465 176 L 465 263" stroke-miterlimit="10" stroke-dasharray="3"/></g><g transform="translate(-30,-118) scale(1,1)"><path fill="none" stroke="#000000" d="M 460.790482243984 252.83732514237585 L 465 263 L 469.209517756016 252.83732514237585" stroke-miterlimit="10"/></g><g transform="translate(-30,-118) scale(1,1)"><g><path fill="none" stroke="none"/><text fill="#000000" stroke="none" font-family="Arial" font-size="13px" font-style="normal" font-weight="normal" text-decoration="none" x="479" y="233">«include»</text></g></g><g transform="translate(-30,-118) scale(1,1)"><path fill="none" stroke="#000000" d="M 927 320 L 888 320 L 888 280 L 586 281" stroke-miterlimit="10"/></g><g transform="translate(-30,-118) scale(1,1)"><path fill="#C0C0C0" stroke="none" d="M 423 408 C 423 398.6111584 445.6096176 391 473.5 391 C 501.3903824 391 524 398.6111584 524 408 C 524 417.3888416 501.3903824 425 473.5 425 C 445.6096176 425 423 417.3888416 423 408 Z" opacity="0.2"/></g><g transform="translate(-30,-118) scale(1,1)"><path fill="#ffffff" stroke="none" d="M 416 401 C 416 391.6111584 438.6096176 384 466.5 384 C 494.3903824 384 517 391.6111584 517 401 C 517 410.3888416 494.3903824 418 466.5 418 C 438.6096176 418 416 410.3888416 416 401 Z"/></g><g transform="translate(-30,-118) scale(1,1)"><path fill="none" stroke="#000000" d="M 416 401 C 416 391.6111584 438.6096176 384 466.5 384 C 494.3903824 384 517 391.6111584 517 401 C 517 410.3888416 494.3903824 418 466.5 418 C 438.6096176 418 416 410.3888416 416 401 Z" stroke-miterlimit="10"/></g><g transform="translate(-30,-118) scale(1,1)"><g><path fill="none" stroke="none"/><text fill="#000000" stroke="none" font-family="Arial" font-size="13px" font-style="normal" font-weight="bold" text-decoration="none" x="445.5400390625" y="408">Sugere</text></g></g><g transform="translate(-30,-118) scale(1,1)"><path fill="none" stroke="#000000" d="M 465 299 L 464 320 L 384 320 L 384 400 L 415 400" stroke-miterlimit="10" stroke-dasharray="3"/></g><g transform="translate(-30,-118) scale(1,1)"><path fill="none" stroke="#000000" d="M 404.83732514237585 404.209517756016 L 415 400 L 404.83732514237585 395.790482243984" stroke-miterlimit="10"/></g><g transform="translate(-30,-118) scale(1,1)"><g><path fill="none" stroke="none"/><text fill="#000000" stroke="none" font-family="Arial" font-size="13px" font-style="normal" font-weight="normal" text-decoration="none" x="399" y="340">«include»</text></g></g><g transform="translate(-30,-118) scale(1,1)"><path fill="none" stroke="#000000" d="M 927 591 L 576 592 L 576 400 L 518 401" stroke-miterlimit="10"/></g><g transform="translate(-30,-118) scale(1,1)"><path fill="#C0C0C0" stroke="none" d="M 669 165 C 669 155.6111584 726.9791184000001 148 798.5 148 C 870.0208815999999 148 928 155.6111584 928 165 C 928 174.3888416 870.0208815999999 182 798.5 182 C 726.9791184000001 182 669 174.3888416 669 165 Z" opacity="0.2"/></g><g transform="translate(-30,-118) scale(1,1)"><path fill="#ffffff" stroke="none" d="M 662 158 C 662 148.6111584 719.9791184000001 141 791.5 141 C 863.0208815999999 141 921 148.6111584 921 158 C 921 167.3888416 863.0208815999999 175 791.5 175 C 719.9791184000001 175 662 167.3888416 662 158 Z"/></g><g transform="translate(-30,-118) scale(1,1)"><path fill="none" stroke="#000000" d="M 662 158 C 662 148.6111584 719.9791184000001 141 791.5 141 C 863.0208815999999 141 921 148.6111584 921 158 C 921 167.3888416 863.0208815999999 175 791.5 175 C 719.9791184000001 175 662 167.3888416 662 158 Z" stroke-miterlimit="10"/></g><g transform="translate(-30,-118) scale(1,1)"><g><path fill="none" stroke="none"/><text fill="#000000" stroke="none" font-family="Arial" font-size="13px" font-style="normal" font-weight="bold" text-decoration="none" x="711.646484375" y="165">Adiciona frase ao dicionário</text></g></g><g transform="translate(-30,-118) scale(1,1)"><path fill="none" stroke="#000000" d="M 969 279 L 968 160 L 922 159" stroke-miterlimit="10"/></g><g transform="translate(-30,-118) scale(1,1)"><path fill="none" stroke="#000000" d="M 661 158 L 568 158" stroke-miterlimit="10" stroke-dasharray="3"/></g><g transform="translate(-30,-118) scale(1,1)"><path fill="none" stroke="#000000" d="M 578.1626748576241 153.790482243984 L 568 158 L 578.1626748576241 162.209517756016" stroke-miterlimit="10"/></g><g transform="translate(-30,-118) scale(1,1)"><g><path fill="none" stroke="none"/><text fill="#000000" stroke="none" font-family="Arial" font-size="13px" font-style="normal" font-weight="normal" text-decoration="none" x="572" y="148">«extend»</text></g></g><g transform="translate(-30,-118) scale(1,1)"><path fill="#C0C0C0" stroke="none" d="M 698 408 C 698 398.6111584 742.9953776 391 798.5 391 C 854.0046224 391 899 398.6111584 899 408 C 899 417.3888416 854.0046224 425 798.5 425 C 742.9953776 425 698 417.3888416 698 408 Z" opacity="0.2"/></g><g transform="translate(-30,-118) scale(1,1)"><path fill="#ffffff" stroke="none" d="M 691 401 C 691 391.6111584 735.9953776 384 791.5 384 C 847.0046224 384 892 391.6111584 892 401 C 892 410.3888416 847.0046224 418 791.5 418 C 735.9953776 418 691 410.3888416 691 401 Z"/></g><g transform="translate(-30,-118) scale(1,1)"><path fill="none" stroke="#000000" d="M 691 401 C 691 391.6111584 735.9953776 384 791.5 384 C 847.0046224 384 892 391.6111584 892 401 C 892 410.3888416 847.0046224 418 791.5 418 C 735.9953776 418 691 410.3888416 691 401 Z" stroke-miterlimit="10"/></g><g transform="translate(-30,-118) scale(1,1)"><g><path fill="none" stroke="none"/><text fill="#000000" stroke="none" font-family="Arial" font-size="13px" font-style="normal" font-weight="bold" text-decoration="none" x="731.524169921875" y="408">Gerencia sugestores</text></g></g><g transform="translate(-30,-118) scale(1,1)"><path fill="none" stroke="#000000" d="M 968 360 L 968 368 L 792 368 L 792 383" stroke-miterlimit="10"/></g><g transform="translate(-30,-118) scale(1,1)"><path fill="none" stroke="#000000" d="M 960 551 L 960 440 L 792 440 L 791 419" stroke-miterlimit="10"/></g><g transform="translate(-30,-118) scale(1,1)"><path fill="#ffffff" stroke="none" d="M 85.66887180397727 273.68 C 85.66887180397727 268.886167936 89.55471412892273 265 94.34814453125 265 C 99.14157493357727 265 103.02741725852273 268.886167936 103.02741725852273 273.68 C 103.02741725852273 278.473832064 99.14157493357727 282.36 94.34814453125 282.36 C 89.55471412892273 282.36 85.66887180397727 278.473832064 85.66887180397727 273.68 Z"/></g><g transform="translate(-30,-118) scale(1,1)"><path fill="none" stroke="#000000" d="M 85.66887180397727 273.68 C 85.66887180397727 268.886167936 89.55471412892273 265 94.34814453125 265 C 99.14157493357727 265 103.02741725852273 268.886167936 103.02741725852273 273.68 C 103.02741725852273 278.473832064 99.14157493357727 282.36 94.34814453125 282.36 C 89.55471412892273 282.36 85.66887180397727 278.473832064 85.66887180397727 273.68 Z" stroke-miterlimit="10"/></g><g transform="translate(-30,-118) scale(1,1)"><path fill="none" stroke="#000000" d="M 94.34814453125 282.36 L 94.34814453125 299.64" stroke-miterlimit="10"/></g><g transform="translate(-30,-118) scale(1,1)"><path fill="none" stroke="#000000" d="M 85.15832634943182 288.84 L 103.53796271306818 288.84" stroke-miterlimit="10"/></g><g transform="translate(-30,-118) scale(1,1)"><path fill="none" stroke="#000000" d="M 94.34814453125 299.64 L 81.58450816761363 317" stroke-miterlimit="10"/></g><g transform="translate(-30,-118) scale(1,1)"><path fill="none" stroke="#000000" d="M 94.34814453125 299.64 L 107.11178089488637 317" stroke-miterlimit="10"/></g><g transform="translate(-30,-118) scale(1,1)"><g><path fill="none" stroke="none"/><text fill="#000000" stroke="none" font-family="Arial" font-size="13px" font-style="normal" font-weight="bold" text-decoration="none" x="47.734130859375" y="337.5">Interface de uso</text></g></g><g transform="translate(-30,-118) scale(1,1)"><path fill="none" stroke="#000000" d="M 94 263 L 96 128 L 464 128 L 464 140" stroke-miterlimit="10"/></g><g transform="translate(-30,-118) scale(1,1)"><path fill="#C0C0C0" stroke="none" d="M 372 504 C 372 494.6111584 416.9953776 487 472.5 487 C 528.0046224 487 573 494.6111584 573 504 C 573 513.3888416 528.0046224 521 472.5 521 C 416.9953776 521 372 513.3888416 372 504 Z" opacity="0.2"/></g><g transform="translate(-30,-118) scale(1,1)"><path fill="#ffffff" stroke="none" d="M 365 497 C 365 487.6111584 409.9953776 480 465.5 480 C 521.0046224 480 566 487.6111584 566 497 C 566 506.3888416 521.0046224 514 465.5 514 C 409.9953776 514 365 506.3888416 365 497 Z"/></g><g transform="translate(-30,-118) scale(1,1)"><path fill="none" stroke="#000000" d="M 365 497 C 365 487.6111584 409.9953776 480 465.5 480 C 521.0046224 480 566 487.6111584 566 497 C 566 506.3888416 521.0046224 514 465.5 514 C 409.9953776 514 365 506.3888416 365 497 Z" stroke-miterlimit="10"/></g><g transform="translate(-30,-118) scale(1,1)"><g><path fill="none" stroke="none"/><text fill="#000000" stroke="none" font-family="Arial" font-size="13px" font-style="normal" font-weight="bold" text-decoration="none" x="403.346923828125" y="504">Apresenta Sugestões</text></g></g><g transform="translate(-30,-118) scale(1,1)"><path fill="none" stroke="#000000" d="M 94 344 L 96 536 L 464 536 L 465 515" stroke-miterlimit="10"/></g><g transform="translate(-30,-118) scale(1,1)"><path fill="none" stroke="#000000" d="M 466 419 L 465 479" stroke-miterlimit="10" stroke-dasharray="3"/></g><g transform="translate(-30,-118) scale(1,1)"><path fill="none" stroke="#000000" d="M 460.96042117193616 468.7685874439617 L 465 479 L 469.37828761703037 468.9088852180466" stroke-miterlimit="10"/></g><g transform="translate(-30,-118) scale(1,1)"><g><path fill="none" stroke="none"/><text fill="#000000" stroke="none" font-family="Arial" font-size="13px" font-style="normal" font-weight="normal" text-decoration="none" x="463" y="465">«include»</text></g></g><g transform="translate(-30,-118) scale(1,1)"><path fill="none" stroke="#000000" d="M 257 255 L 336 256 L 336 496 L 364 496" stroke-miterlimit="10"/></g><g transform="translate(-30,-118) scale(1,1)"><path fill="none" stroke="#000000" d="M 465 383 L 464 368 L 624 368 L 624 400 L 690 400" stroke-miterlimit="10"/></g><g transform="translate(-30,-118) scale(1,1)"><path fill="#C0C0C0" stroke="none" d="M 1262 408 C 1262 398.6111584 1338.5592992 391 1433 391 C 1527.4407008 391 1604 398.6111584 1604 408 C 1604 417.3888416 1527.4407008 425 1433 425 C 1338.5592992 425 1262 417.3888416 1262 408 Z" opacity="0.2"/></g><g transform="translate(-30,-118) scale(1,1)"><path fill="#ffffff" stroke="none" d="M 1255 401 C 1255 391.6111584 1331.5592992 384 1426 384 C 1520.4407008 384 1597 391.6111584 1597 401 C 1597 410.3888416 1520.4407008 418 1426 418 C 1331.5592992 418 1255 410.3888416 1255 401 Z"/></g><g transform="translate(-30,-118) scale(1,1)"><path fill="none" stroke="#000000" d="M 1255 401 C 1255 391.6111584 1331.5592992 384 1426 384 C 1520.4407008 384 1597 391.6111584 1597 401 C 1597 410.3888416 1520.4407008 418 1426 418 C 1331.5592992 418 1255 410.3888416 1255 401 Z" stroke-miterlimit="10"/></g><g transform="translate(-30,-118) scale(1,1)"><g><path fill="none" stroke="none"/><text fill="#000000" stroke="none" font-family="Arial" font-size="13px" font-style="normal" font-weight="bold" text-decoration="none" x="1319.064208984375" y="408">Elimina sugestores com baixo fitness</text></g></g><g transform="translate(-30,-118) scale(1,1)"><path fill="none" stroke="#000000" d="M 893 401 L 1254 401" stroke-miterlimit="10" stroke-dasharray="3"/></g><g transform="translate(-30,-118) scale(1,1)"><path fill="none" stroke="#000000" d="M 1243.837325142376 405.209517756016 L 1254 401 L 1243.837325142376 396.790482243984" stroke-miterlimit="10"/></g><g transform="translate(-30,-118) scale(1,1)"><g><path fill="none" stroke="none"/><text fill="#000000" stroke="none" font-family="Arial" font-size="13px" font-style="normal" font-weight="normal" text-decoration="none" x="1151" y="397">«include»</text></g></g><g transform="translate(-30,-118) scale(1,1)"><path fill="#C0C0C0" stroke="none" d="M 1333 464 C 1333 454.6111584 1377.9953776 447 1433.5 447 C 1489.0046224 447 1534 454.6111584 1534 464 C 1534 473.3888416 1489.0046224 481 1433.5 481 C 1377.9953776 481 1333 473.3888416 1333 464 Z" opacity="0.2"/></g><g transform="translate(-30,-118) scale(1,1)"><path fill="#ffffff" stroke="none" d="M 1326 457 C 1326 447.6111584 1370.9953776 440 1426.5 440 C 1482.0046224 440 1527 447.6111584 1527 457 C 1527 466.3888416 1482.0046224 474 1426.5 474 C 1370.9953776 474 1326 466.3888416 1326 457 Z"/></g><g transform="translate(-30,-118) scale(1,1)"><path fill="none" stroke="#000000" d="M 1326 457 C 1326 447.6111584 1370.9953776 440 1426.5 440 C 1482.0046224 440 1527 447.6111584 1527 457 C 1527 466.3888416 1482.0046224 474 1426.5 474 C 1370.9953776 474 1326 466.3888416 1326 457 Z" stroke-miterlimit="10"/></g><g transform="translate(-30,-118) scale(1,1)"><g><path fill="none" stroke="none"/><text fill="#000000" stroke="none" font-family="Arial" font-size="13px" font-style="normal" font-weight="bold" text-decoration="none" x="1364.715087890625" y="464">Reproduz sugestores</text></g></g><g transform="translate(-30,-118) scale(1,1)"><path fill="#C0C0C0" stroke="none" d="M 1309 520 C 1309 510.6111584 1364.5166848 503 1433 503 C 1501.4833152 503 1557 510.6111584 1557 520 C 1557 529.3888416 1501.4833152 537 1433 537 C 1364.5166848 537 1309 529.3888416 1309 520 Z" opacity="0.2"/></g><g transform="translate(-30,-118) scale(1,1)"><path fill="#ffffff" stroke="none" d="M 1302 513 C 1302 503.6111584 1357.5166848 496 1426 496 C 1494.4833152 496 1550 503.6111584 1550 513 C 1550 522.3888416 1494.4833152 530 1426 530 C 1357.5166848 530 1302 522.3888416 1302 513 Z"/></g><g transform="translate(-30,-118) scale(1,1)"><path fill="none" stroke="#000000" d="M 1302 513 C 1302 503.6111584 1357.5166848 496 1426 496 C 1494.4833152 496 1550 503.6111584 1550 513 C 1550 522.3888416 1494.4833152 530 1426 530 C 1357.5166848 530 1302 522.3888416 1302 513 Z" stroke-miterlimit="10"/></g><g transform="translate(-30,-118) scale(1,1)"><g><path fill="none" stroke="none"/><text fill="#000000" stroke="none" font-family="Arial" font-size="13px" font-style="normal" font-weight="bold" text-decoration="none" x="1349.041015625" y="520">Normatiza código genético</text></g></g><g transform="translate(-30,-118) scale(1,1)"><path fill="none" stroke="#000000" d="M 893 401 L 1040 400 L 1040 456 L 1325 457" stroke-miterlimit="10" stroke-dasharray="3"/></g><g transform="translate(-30,-118) scale(1,1)"><path fill="none" stroke="#000000" d="M 1314.8226175537652 461.17383355478756 L 1325 457 L 1314.8521578474042 452.75484986767265" stroke-miterlimit="10"/></g><g transform="translate(-30,-118) scale(1,1)"><g><path fill="none" stroke="none"/><text fill="#000000" stroke="none" font-family="Arial" font-size="13px" font-style="normal" font-weight="normal" text-decoration="none" x="1151" y="449">«include»</text></g></g><g transform="translate(-30,-118) scale(1,1)"><path fill="none" stroke="#000000" d="M 893 400 L 992 400 L 992 512 L 1301 513" stroke-miterlimit="10" stroke-dasharray="3"/></g><g transform="translate(-30,-118) scale(1,1)"><path fill="none" stroke="#000000" d="M 1290.8237553967967 517.1766069692728 L 1301 513 L 1290.8510013237383 508.7576155443858" stroke-miterlimit="10"/></g><g transform="translate(-30,-118) scale(1,1)"><g><path fill="none" stroke="none"/><text fill="#000000" stroke="none" font-family="Arial" font-size="13px" font-style="normal" font-weight="normal" text-decoration="none" x="1151" y="509">«include»</text></g></g><g transform="translate(-30,-118) scale(1,1)"><path fill="none" stroke="#000000" d="M 1015 319 L 1424 320 L 1426 383" stroke-miterlimit="10"/></g><g transform="translate(-30,-118) scale(1,1)"><path fill="none" stroke="#000000" d="M 1015 304 L 1016 304 L 1624 304 L 1624 432 L 1424 432 L 1425 439" stroke-miterlimit="10"/></g><g transform="translate(-30,-118) scale(1,1)"><path fill="none" stroke="#000000" d="M 994 591 L 1424 592 L 1426 531" stroke-miterlimit="10"/></g><g transform="translate(-30,-118) scale(1,1)"><path fill="none" stroke="#000000" d="M 960 632 L 960 640 L 1568 640 L 1568 456 L 1528 456" stroke-miterlimit="10"/></g></g></svg>