<svg version="1.1" xmlns="http://www.w3.org/2000/svg" xmlns:xlink="http://www.w3.org/1999/xlink" width="749" height="461"><defs/><g><g transform="translate(-334,-86) scale(1,1)"><path fill="#C0C0C0" stroke="none" d="M 756 112.5 C 756 107.2532944 760.2532944 103 765.5 103 C 770.7467056 103 775 107.2532944 775 112.5 C 775 117.7467056 770.7467056 122 765.5 122 C 760.2532944 122 756 117.7467056 756 112.5 Z" opacity="0.2"/></g><g transform="translate(-334,-86) scale(1,1)"><path fill="#000000" stroke="none" d="M 749 105.5 C 749 100.2532944 753.2532944 96 758.5 96 C 763.7467056 96 768 100.2532944 768 105.5 C 768 110.7467056 763.7467056 115 758.5 115 C 753.2532944 115 749 110.7467056 749 105.5 Z"/></g><g transform="translate(-334,-86) scale(1,1)"><path fill="#C0C0C0" stroke="none" d="M 743 531.5 C 743 524.59644 748.59644 519 755.5 519 C 762.40356 519 768 524.59644 768 531.5 C 768 538.40356 762.40356 544 755.5 544 C 748.59644 544 743 538.40356 743 531.5 Z" opacity="0.2"/></g><g transform="translate(-334,-86) scale(1,1)"><path fill="none" stroke="#000000" d="M 736 524.5 C 736 517.59644 741.59644 512 748.5 512 C 755.40356 512 761 517.59644 761 524.5 C 761 531.40356 755.40356 537 748.5 537 C 741.59644 537 736 531.40356 736 524.5 Z" stroke-miterlimit="10"/></g><g transform="translate(-334,-86) scale(1,1)"><path fill="#000000" stroke="none" d="M 741 524.5 C 741 520.357864 744.357864 517 748.5 517 C 752.642136 517 756 520.357864 756 524.5 C 756 528.642136 752.642136 532 748.5 532 C 744.357864 532 741 528.642136 741 524.5 Z"/></g><g transform="translate(-334,-86) scale(1,1)"><path fill="#C0C0C0" stroke="none" d="M 745 247.5 L 765.5 231 L 785 247.5 L 765.5 263 L 745 247.5" opacity="0.2"/></g><g transform="translate(-334,-86) scale(1,1)"><path fill="#ffffff" stroke="none" d="M 738 240 L 758 224 L 778 240 L 758 256 L 738 240"/></g><g transform="translate(-334,-86) scale(1,1)"><path fill="none" stroke="#000000" d="M 738 240 L 758 224 L 778 240 L 758 256 L 738 240 L 738 240" stroke-miterlimit="10"/></g><g transform="translate(-334,-86) scale(1,1)"><path fill="#C0C0C0" stroke="none" d="M 720 167 L 810.8798828125 167 Q 820.8798828125 167 820.8798828125 177 L 820.8798828125 197 Q 820.8798828125 207 810.8798828125 207 L 720 207 Q 710 207 710 197 L 710 177 Q 710 167 720 167 Z" opacity="0.2"/></g><g transform="translate(-334,-86) scale(1,1)"><path fill="#ffffff" stroke="none" d="M 713 160 L 803.8798828125 160 Q 813.8798828125 160 813.8798828125 170 L 813.8798828125 190 Q 813.8798828125 200 803.8798828125 200 L 713 200 Q 703 200 703 190 L 703 170 Q 703 160 713 160 Z"/></g><g transform="translate(-334,-86) scale(1,1)"><path fill="none" stroke="#000000" d="M 713 160 L 803.8798828125 160 Q 813.8798828125 160 813.8798828125 170 L 813.8798828125 190 Q 813.8798828125 200 803.8798828125 200 L 713 200 Q 703 200 703 190 L 703 170 Q 703 160 713 160 Z" stroke-miterlimit="10"/></g><g transform="translate(-334,-86) scale(1,1)"><g><path fill="none" stroke="none"/><text fill="#000000" stroke="none" font-family="Arial" font-size="13px" font-style="normal" font-weight="bold" text-decoration="none" x="710.3818359375" y="179.5">É nova sessão ?</text></g></g><g transform="translate(-334,-86) scale(1,1)"><path fill="#C0C0C0" stroke="none" d="M 361 323 L 627.42431640625 323 Q 637.42431640625 323 637.42431640625 333 L 637.42431640625 353 Q 637.42431640625 363 627.42431640625 363 L 361 363 Q 351 363 351 353 L 351 333 Q 351 323 361 323 Z" opacity="0.2"/></g><g transform="translate(-334,-86) scale(1,1)"><path fill="#ffffff" stroke="none" d="M 354 316 L 620.42431640625 316 Q 630.42431640625 316 630.42431640625 326 L 630.42431640625 346 Q 630.42431640625 356 620.42431640625 356 L 354 356 Q 344 356 344 346 L 344 326 Q 344 316 354 316 Z"/></g><g transform="translate(-334,-86) scale(1,1)"><path fill="none" stroke="#000000" d="M 354 316 L 620.42431640625 316 Q 630.42431640625 316 630.42431640625 326 L 630.42431640625 346 Q 630.42431640625 356 620.42431640625 356 L 354 356 Q 344 356 344 346 L 344 326 Q 344 316 354 316 Z" stroke-miterlimit="10"/></g><g transform="translate(-334,-86) scale(1,1)"><g><path fill="none" stroke="none"/><text fill="#000000" stroke="none" font-family="Arial" font-size="13px" font-style="normal" font-weight="bold" text-decoration="none" x="357.491455078125" y="335.5">Atualiza a sessão e insere o trecho no banco</text></g></g><g transform="translate(-334,-86) scale(1,1)"><path fill="#C0C0C0" stroke="none" d="M 953 323 L 1070 323 Q 1080 323 1080 333 L 1080 353 Q 1080 363 1070 363 L 953 363 Q 943 363 943 353 L 943 333 Q 943 323 953 323 Z" opacity="0.2"/></g><g transform="translate(-334,-86) scale(1,1)"><path fill="#ffffff" stroke="none" d="M 946 316 L 1063 316 Q 1073 316 1073 326 L 1073 346 Q 1073 356 1063 356 L 946 356 Q 936 356 936 346 L 936 326 Q 936 316 946 316 Z"/></g><g transform="translate(-334,-86) scale(1,1)"><path fill="none" stroke="#000000" d="M 946 316 L 1063 316 Q 1073 316 1073 326 L 1073 346 Q 1073 356 1063 356 L 946 356 Q 936 356 936 346 L 936 326 Q 936 316 946 316 Z" stroke-miterlimit="10"/></g><g transform="translate(-334,-86) scale(1,1)"><g><path fill="none" stroke="none"/><text fill="#000000" stroke="none" font-family="Insere Trecho no banco" font-size="13px" font-style="normal" font-weight="bold" text-decoration="none" x="943.5" y="335.5">Insere trecho no banco</text></g></g><g transform="translate(-334,-86) scale(1,1)"><path fill="none" stroke="#000000" d="M 758 116 L 758 159" stroke-miterlimit="10"/></g><g transform="translate(-334,-86) scale(1,1)"><path fill="none" stroke="#000000" d="M 753.790482243984 148.83732514237585 L 758 159 L 762.209517756016 148.83732514237585" stroke-miterlimit="10"/></g><g transform="translate(-334,-86) scale(1,1)"><path fill="none" stroke="#000000" d="M 737 247 L 546 315" stroke-miterlimit="10"/></g><g transform="translate(-334,-86) scale(1,1)"><path fill="none" stroke="#000000" d="M 554.1621468347005 307.6257638328578 L 546 315 L 556.9858817757145 315.5571369759997" stroke-miterlimit="10"/></g><g transform="translate(-334,-86) scale(1,1)"><g><path fill="none" stroke="none"/><text fill="#000000" stroke="none" font-family="Arial" font-size="13px" font-style="normal" font-weight="normal" text-decoration="none" x="632" y="299">Não</text></g></g><g transform="translate(-334,-86) scale(1,1)"><path fill="none" stroke="#000000" d="M 779 248 L 950 315" stroke-miterlimit="10"/></g><g transform="translate(-334,-86) scale(1,1)"><path fill="none" stroke="#000000" d="M 939.0020423616118 315.2119617517829 L 950 315 L 942.0733899826555 307.3731491667312" stroke-miterlimit="10"/></g><g transform="translate(-334,-86) scale(1,1)"><g><path fill="none" stroke="none"/><text fill="#000000" stroke="none" font-family="Arial" font-size="13px" font-style="normal" font-weight="normal" text-decoration="none" x="849" y="298">Sim</text></g></g><g transform="translate(-334,-86) scale(1,1)"><path fill="none" stroke="#000000" d="M 758 201 L 758 223" stroke-miterlimit="10"/></g><g transform="translate(-334,-86) scale(1,1)"><path fill="none" stroke="#000000" d="M 753.790482243984 212.83732514237585 L 758 223 L 762.209517756016 212.83732514237585" stroke-miterlimit="10"/></g><g transform="translate(-334,-86) scale(1,1)"><path fill="none" stroke="#000000" d="M 631 341 L 720 344 L 720 528 L 735 526" stroke-miterlimit="10"/></g><g transform="translate(-334,-86) scale(1,1)"><path fill="none" stroke="#000000" d="M 725.4828186619812 531.5157283634411 L 735 526 L 724.3701276091327 523.1705454670771" stroke-miterlimit="10"/></g><g transform="translate(-334,-86) scale(1,1)"><path fill="none" stroke="#000000" d="M 935 339 L 784 344 L 784 528 L 762 526" stroke-miterlimit="10"/></g><g transform="translate(-334,-86) scale(1,1)"><path fill="none" stroke="#000000" d="M 772.5020506807682 522.727855214301 L 762 526 L 771.739827019728 531.112315485744" stroke-miterlimit="10"/></g></g></svg>