<svg version="1.1" xmlns="http://www.w3.org/2000/svg" xmlns:xlink="http://www.w3.org/1999/xlink" width="276" height="325"><defs/><g><g transform="translate(-132,-78) scale(1,1)"><path fill="#C0C0C0" stroke="none" d="M 268 104.5 C 268 99.2532944 272.2532944 95 277.5 95 C 282.7467056 95 287 99.2532944 287 104.5 C 287 109.7467056 282.7467056 114 277.5 114 C 272.2532944 114 268 109.7467056 268 104.5 Z" opacity="0.2"/></g><g transform="translate(-132,-78) scale(1,1)"><path fill="#000000" stroke="none" d="M 261 97.5 C 261 92.2532944 265.2532944 88 270.5 88 C 275.7467056 88 280 92.2532944 280 97.5 C 280 102.7467056 275.7467056 107 270.5 107 C 265.2532944 107 261 102.7467056 261 97.5 Z"/></g><g transform="translate(-132,-78) scale(1,1)"><path fill="#C0C0C0" stroke="none" d="M 265 387.5 C 265 380.59644 270.59644 375 277.5 375 C 284.40356 375 290 380.59644 290 387.5 C 290 394.40356 284.40356 400 277.5 400 C 270.59644 400 265 394.40356 265 387.5 Z" opacity="0.2"/></g><g transform="translate(-132,-78) scale(1,1)"><path fill="none" stroke="#000000" d="M 258 380.5 C 258 373.59644 263.59644 368 270.5 368 C 277.40356 368 283 373.59644 283 380.5 C 283 387.40356 277.40356 393 270.5 393 C 263.59644 393 258 387.40356 258 380.5 Z" stroke-miterlimit="10"/></g><g transform="translate(-132,-78) scale(1,1)"><path fill="#000000" stroke="none" d="M 263 380.5 C 263 376.357864 266.357864 373 270.5 373 C 274.642136 373 278 376.357864 278 380.5 C 278 384.642136 274.642136 388 270.5 388 C 266.357864 388 263 384.642136 263 380.5 Z"/></g><g transform="translate(-132,-78) scale(1,1)"><path fill="#C0C0C0" stroke="none" d="M 232 167 L 322.892578125 167 Q 332.892578125 167 332.892578125 177 L 332.892578125 197 Q 332.892578125 207 322.892578125 207 L 232 207 Q 222 207 222 197 L 222 177 Q 222 167 232 167 Z" opacity="0.2"/></g><g transform="translate(-132,-78) scale(1,1)"><path fill="#ffffff" stroke="none" d="M 225 160 L 315.892578125 160 Q 325.892578125 160 325.892578125 170 L 325.892578125 190 Q 325.892578125 200 315.892578125 200 L 225 200 Q 215 200 215 190 L 215 170 Q 215 160 225 160 Z"/></g><g transform="translate(-132,-78) scale(1,1)"><path fill="none" stroke="#000000" d="M 225 160 L 315.892578125 160 Q 325.892578125 160 325.892578125 170 L 325.892578125 190 Q 325.892578125 200 315.892578125 200 L 225 200 Q 215 200 215 190 L 215 170 Q 215 160 225 160 Z" stroke-miterlimit="10"/></g><g transform="translate(-132,-78) scale(1,1)"><g><path fill="none" stroke="none"/><text fill="#000000" stroke="none" font-family="Arial" font-size="13px" font-style="normal" font-weight="bold" text-decoration="none" x="223.4462890625" y="179.5">Usuario Escreve</text></g></g><g transform="translate(-132,-78) scale(1,1)"><path fill="#C0C0C0" stroke="none" d="M 159 279 L 395 279 Q 405 279 405 289 L 405 309 Q 405 319 395 319 L 159 319 Q 149 319 149 309 L 149 289 Q 149 279 159 279 Z" opacity="0.2"/></g><g transform="translate(-132,-78) scale(1,1)"><path fill="#ffffff" stroke="none" d="M 152 272 L 388 272 Q 398 272 398 282 L 398 302 Q 398 312 388 312 L 152 312 Q 142 312 142 302 L 142 282 Q 142 272 152 272 Z"/></g><g transform="translate(-132,-78) scale(1,1)"><path fill="none" stroke="#000000" d="M 152 272 L 388 272 Q 398 272 398 282 L 398 302 Q 398 312 388 312 L 152 312 Q 142 312 142 302 L 142 282 Q 142 272 152 272 Z" stroke-miterlimit="10"/></g><g transform="translate(-132,-78) scale(1,1)"><g><path fill="none" stroke="none"/><text fill="#000000" stroke="none" font-family="Arial" font-size="13px" font-style="normal" font-weight="bold" text-decoration="none" x="159.5" y="291.5">A interface encaminha ao Gerenciador</text></g></g><g transform="translate(-132,-78) scale(1,1)"><path fill="none" stroke="#000000" d="M 270 108 L 270 159" stroke-miterlimit="10"/></g><g transform="translate(-132,-78) scale(1,1)"><path fill="none" stroke="#000000" d="M 265.790482243984 148.83732514237585 L 270 159 L 274.209517756016 148.83732514237585" stroke-miterlimit="10"/></g><g transform="translate(-132,-78) scale(1,1)"><path fill="none" stroke="#000000" d="M 270 201 L 270 271" stroke-miterlimit="10"/></g><g transform="translate(-132,-78) scale(1,1)"><path fill="none" stroke="#000000" d="M 265.790482243984 260.83732514237585 L 270 271 L 274.209517756016 260.83732514237585" stroke-miterlimit="10"/></g><g transform="translate(-132,-78) scale(1,1)"><path fill="none" stroke="#000000" d="M 270 313 L 270 367" stroke-miterlimit="10"/></g><g transform="translate(-132,-78) scale(1,1)"><path fill="none" stroke="#000000" d="M 265.790482243984 356.83732514237585 L 270 367 L 274.209517756016 356.83732514237585" stroke-miterlimit="10"/></g></g></svg>