<svg version="1.1" xmlns="http://www.w3.org/2000/svg" xmlns:xlink="http://www.w3.org/1999/xlink" width="422" height="533"><defs/><g><g transform="translate(-1741,-70) scale(1,1)"><path fill="#C0C0C0" stroke="none" d="M 1950 96.5 C 1950 91.2532944 1954.2532944 87 1959.5 87 C 1964.7467056 87 1969 91.2532944 1969 96.5 C 1969 101.7467056 1964.7467056 106 1959.5 106 C 1954.2532944 106 1950 101.7467056 1950 96.5 Z" opacity="0.2"/></g><g transform="translate(-1741,-70) scale(1,1)"><path fill="#000000" stroke="none" d="M 1943 89.5 C 1943 84.2532944 1947.2532944 80 1952.5 80 C 1957.7467056 80 1962 84.2532944 1962 89.5 C 1962 94.7467056 1957.7467056 99 1952.5 99 C 1947.2532944 99 1943 94.7467056 1943 89.5 Z"/></g><g transform="translate(-1741,-70) scale(1,1)"><path fill="#C0C0C0" stroke="none" d="M 1947 587.5 C 1947 580.59644 1952.59644 575 1959.5 575 C 1966.40356 575 1972 580.59644 1972 587.5 C 1972 594.40356 1966.40356 600 1959.5 600 C 1952.59644 600 1947 594.40356 1947 587.5 Z" opacity="0.2"/></g><g transform="translate(-1741,-70) scale(1,1)"><path fill="none" stroke="#000000" d="M 1940 580.5 C 1940 573.59644 1945.59644 568 1952.5 568 C 1959.40356 568 1965 573.59644 1965 580.5 C 1965 587.40356 1959.40356 593 1952.5 593 C 1945.59644 593 1940 587.40356 1940 580.5 Z" stroke-miterlimit="10"/></g><g transform="translate(-1741,-70) scale(1,1)"><path fill="#000000" stroke="none" d="M 1945 580.5 C 1945 576.357864 1948.357864 573 1952.5 573 C 1956.642136 573 1960 576.357864 1960 580.5 C 1960 584.642136 1956.642136 588 1952.5 588 C 1948.357864 588 1945 584.642136 1945 580.5 Z"/></g><g transform="translate(-1741,-70) scale(1,1)"><path fill="#C0C0C0" stroke="none" d="M 1768 319 L 2150 319 Q 2160 319 2160 329 L 2160 349 Q 2160 359 2150 359 L 1768 359 Q 1758 359 1758 349 L 1758 329 Q 1758 319 1768 319 Z" opacity="0.2"/></g><g transform="translate(-1741,-70) scale(1,1)"><path fill="#ffffff" stroke="none" d="M 1761 312 L 2143 312 Q 2153 312 2153 322 L 2153 342 Q 2153 352 2143 352 L 1761 352 Q 1751 352 1751 342 L 1751 322 Q 1751 312 1761 312 Z"/></g><g transform="translate(-1741,-70) scale(1,1)"><path fill="none" stroke="#000000" d="M 1761 312 L 2143 312 Q 2153 312 2153 322 L 2153 342 Q 2153 352 2143 352 L 1761 352 Q 1751 352 1751 342 L 1751 322 Q 1751 312 1761 312 Z" stroke-miterlimit="10"/></g><g transform="translate(-1741,-70) scale(1,1)"><g><path fill="none" stroke="none"/><text fill="#000000" stroke="none" font-family="Arial" font-size="13px" font-style="normal" font-weight="bold" text-decoration="none" x="1776.5" y="331.5">Sugestor percorre o codigo genetico eliminando duplicidades</text></g></g><g transform="translate(-1741,-70) scale(1,1)"><path fill="none" stroke="#000000" d="M 1952 100 L 1952 311" stroke-miterlimit="10"/></g><g transform="translate(-1741,-70) scale(1,1)"><path fill="none" stroke="#000000" d="M 1947.7904822439841 300.83732514237585 L 1952 311 L 1956.2095177560159 300.83732514237585" stroke-miterlimit="10"/></g><g transform="translate(-1741,-70) scale(1,1)"><path fill="none" stroke="#000000" d="M 1952 353 L 1952 567" stroke-miterlimit="10"/></g><g transform="translate(-1741,-70) scale(1,1)"><path fill="none" stroke="#000000" d="M 1947.7904822439841 556.8373251423759 L 1952 567 L 1956.2095177560159 556.8373251423759" stroke-miterlimit="10"/></g></g></svg>