<svg version="1.1" xmlns="http://www.w3.org/2000/svg" xmlns:xlink="http://www.w3.org/1999/xlink" width="565" height="781"><defs/><g><g transform="translate(-404,-94) scale(1,1)"><path fill="#C0C0C0" stroke="none" d="M 684 120.5 C 684 115.2532944 688.2532944 111 693.5 111 C 698.7467056 111 703 115.2532944 703 120.5 C 703 125.7467056 698.7467056 130 693.5 130 C 688.2532944 130 684 125.7467056 684 120.5 Z" opacity="0.2"/></g><g transform="translate(-404,-94) scale(1,1)"><path fill="#000000" stroke="none" d="M 677 113.5 C 677 108.2532944 681.2532944 104 686.5 104 C 691.7467056 104 696 108.2532944 696 113.5 C 696 118.7467056 691.7467056 123 686.5 123 C 681.2532944 123 677 118.7467056 677 113.5 Z"/></g><g transform="translate(-404,-94) scale(1,1)"><path fill="#C0C0C0" stroke="none" d="M 439 455.5 C 439 448.59644 444.59644 443 451.5 443 C 458.40356 443 464 448.59644 464 455.5 C 464 462.40356 458.40356 468 451.5 468 C 444.59644 468 439 462.40356 439 455.5 Z" opacity="0.2"/></g><g transform="translate(-404,-94) scale(1,1)"><path fill="none" stroke="#000000" d="M 432 448.5 C 432 441.59644 437.59644 436 444.5 436 C 451.40356 436 457 441.59644 457 448.5 C 457 455.40356 451.40356 461 444.5 461 C 437.59644 461 432 455.40356 432 448.5 Z" stroke-miterlimit="10"/></g><g transform="translate(-404,-94) scale(1,1)"><path fill="#000000" stroke="none" d="M 437 448.5 C 437 444.357864 440.357864 441 444.5 441 C 448.642136 441 452 444.357864 452 448.5 C 452 452.642136 448.642136 456 444.5 456 C 440.357864 456 437 452.642136 437 448.5 Z"/></g><g transform="translate(-404,-94) scale(1,1)"><path fill="#C0C0C0" stroke="none" d="M 587 199 L 800 199 Q 810 199 810 209 L 810 229 Q 810 239 800 239 L 587 239 Q 577 239 577 229 L 577 209 Q 577 199 587 199 Z" opacity="0.2"/></g><g transform="translate(-404,-94) scale(1,1)"><path fill="#ffffff" stroke="none" d="M 580 192 L 793 192 Q 803 192 803 202 L 803 222 Q 803 232 793 232 L 580 232 Q 570 232 570 222 L 570 202 Q 570 192 580 192 Z"/></g><g transform="translate(-404,-94) scale(1,1)"><path fill="none" stroke="#000000" d="M 580 192 L 793 192 Q 803 192 803 202 L 803 222 Q 803 232 793 232 L 580 232 Q 570 232 570 222 L 570 202 Q 570 192 580 192 Z" stroke-miterlimit="10"/></g><g transform="translate(-404,-94) scale(1,1)"><g><path fill="none" stroke="none"/><text fill="#000000" stroke="none" font-family="Arial" font-size="13px" font-style="normal" font-weight="bold" text-decoration="none" x="582" y="211.5">Apresenta sugestões sem repetição</text></g></g><g transform="translate(-404,-94) scale(1,1)"><path fill="#C0C0C0" stroke="none" d="M 608 303 L 778 303 Q 788 303 788 313 L 788 333 Q 788 343 778 343 L 608 343 Q 598 343 598 333 L 598 313 Q 598 303 608 303 Z" opacity="0.2"/></g><g transform="translate(-404,-94) scale(1,1)"><path fill="#ffffff" stroke="none" d="M 601 296 L 771 296 Q 781 296 781 306 L 781 326 Q 781 336 771 336 L 601 336 Q 591 336 591 326 L 591 306 Q 591 296 601 296 Z"/></g><g transform="translate(-404,-94) scale(1,1)"><path fill="none" stroke="#000000" d="M 601 296 L 771 296 Q 781 296 781 306 L 781 326 Q 781 336 771 336 L 601 336 Q 591 336 591 326 L 591 306 Q 591 296 601 296 Z" stroke-miterlimit="10"/></g><g transform="translate(-404,-94) scale(1,1)"><g><path fill="none" stroke="none"/><text fill="#000000" stroke="none" font-family="Arial" font-size="13px" font-style="normal" font-weight="bold" text-decoration="none" x="602.5" y="315.5">Usuário seleciono sugestão?</text></g></g><g transform="translate(-404,-94) scale(1,1)"><path fill="#C0C0C0" stroke="none" d="M 588 567 L 798 567 Q 808 567 808 577 L 808 597 Q 808 607 798 607 L 588 607 Q 578 607 578 597 L 578 577 Q 578 567 588 567 Z" opacity="0.2"/></g><g transform="translate(-404,-94) scale(1,1)"><path fill="#ffffff" stroke="none" d="M 581 560 L 791 560 Q 801 560 801 570 L 801 590 Q 801 600 791 600 L 581 600 Q 571 600 571 590 L 571 570 Q 571 560 581 560 Z"/></g><g transform="translate(-404,-94) scale(1,1)"><path fill="none" stroke="#000000" d="M 581 560 L 791 560 Q 801 560 801 570 L 801 590 Q 801 600 791 600 L 581 600 Q 571 600 571 590 L 571 570 Q 571 560 581 560 Z" stroke-miterlimit="10"/></g><g transform="translate(-404,-94) scale(1,1)"><g><path fill="none" stroke="none"/><text fill="#000000" stroke="none" font-family="Arial" font-size="13px" font-style="normal" font-weight="bold" text-decoration="none" x="585.5" y="579.5">Preenche com o texto selecionado</text></g></g><g transform="translate(-404,-94) scale(1,1)"><path fill="#C0C0C0" stroke="none" d="M 662 455.5 L 693.5 431 L 724 455.5 L 693.5 479 L 662 455.5" opacity="0.2"/></g><g transform="translate(-404,-94) scale(1,1)"><path fill="#ffffff" stroke="none" d="M 655 448 L 686 424 L 717 448 L 686 472 L 655 448"/></g><g transform="translate(-404,-94) scale(1,1)"><path fill="none" stroke="#000000" d="M 655 448 L 686 424 L 717 448 L 686 472 L 655 448 L 655 448" stroke-miterlimit="10"/></g><g transform="translate(-404,-94) scale(1,1)"><path fill="none" stroke="#000000" d="M 654 448 L 458 448" stroke-miterlimit="10"/></g><g transform="translate(-404,-94) scale(1,1)"><path fill="none" stroke="#000000" d="M 468.16267485762415 443.790482243984 L 458 448 L 468.16267485762415 452.209517756016" stroke-miterlimit="10"/></g><g transform="translate(-404,-94) scale(1,1)"><g><path fill="none" stroke="none"/><text fill="#000000" stroke="none" font-family="Arial" font-size="13px" font-style="normal" font-weight="normal" text-decoration="none" x="544" y="470">Não</text></g></g><g transform="translate(-404,-94) scale(1,1)"><path fill="#C0C0C0" stroke="none" d="M 431 687 L 956 687 Q 966 687 966 697 L 966 717 Q 966 727 956 727 L 431 727 Q 421 727 421 717 L 421 697 Q 421 687 431 687 Z" opacity="0.2"/></g><g transform="translate(-404,-94) scale(1,1)"><path fill="#ffffff" stroke="none" d="M 424 680 L 949 680 Q 959 680 959 690 L 959 710 Q 959 720 949 720 L 424 720 Q 414 720 414 710 L 414 690 Q 414 680 424 680 Z"/></g><g transform="translate(-404,-94) scale(1,1)"><path fill="none" stroke="#000000" d="M 424 680 L 949 680 Q 959 680 959 690 L 959 710 Q 959 720 949 720 L 424 720 Q 414 720 414 710 L 414 690 Q 414 680 424 680 Z" stroke-miterlimit="10"/></g><g transform="translate(-404,-94) scale(1,1)"><g><path fill="none" stroke="none"/><text fill="#000000" stroke="none" font-family="Arial" font-size="13px" font-style="normal" font-weight="bold" text-decoration="none" x="443" y="699.5">Notifica o gerenciador para incrementar os sugestores cuja sugestão foi selecionada</text></g></g><g transform="translate(-404,-94) scale(1,1)"><path fill="none" stroke="#000000" d="M 686 124 L 686 191" stroke-miterlimit="10"/></g><g transform="translate(-404,-94) scale(1,1)"><path fill="none" stroke="#000000" d="M 681.790482243984 180.83732514237585 L 686 191 L 690.209517756016 180.83732514237585" stroke-miterlimit="10"/></g><g transform="translate(-404,-94) scale(1,1)"><path fill="none" stroke="#000000" d="M 686 233 L 686 295" stroke-miterlimit="10"/></g><g transform="translate(-404,-94) scale(1,1)"><path fill="none" stroke="#000000" d="M 681.790482243984 284.83732514237585 L 686 295 L 690.209517756016 284.83732514237585" stroke-miterlimit="10"/></g><g transform="translate(-404,-94) scale(1,1)"><path fill="none" stroke="#000000" d="M 686 337 L 686 423" stroke-miterlimit="10"/></g><g transform="translate(-404,-94) scale(1,1)"><path fill="none" stroke="#000000" d="M 681.790482243984 412.83732514237585 L 686 423 L 690.209517756016 412.83732514237585" stroke-miterlimit="10"/></g><g transform="translate(-404,-94) scale(1,1)"><path fill="none" stroke="#000000" d="M 686 473 L 686 559" stroke-miterlimit="10"/></g><g transform="translate(-404,-94) scale(1,1)"><path fill="none" stroke="#000000" d="M 681.790482243984 548.8373251423759 L 686 559 L 690.209517756016 548.8373251423759" stroke-miterlimit="10"/></g><g transform="translate(-404,-94) scale(1,1)"><g><path fill="none" stroke="none"/><text fill="#000000" stroke="none" font-family="Arial" font-size="13px" font-style="normal" font-weight="normal" text-decoration="none" x="689" y="522">Sim</text></g></g><g transform="translate(-404,-94) scale(1,1)"><path fill="none" stroke="#000000" d="M 686 601 L 686 679" stroke-miterlimit="10"/></g><g transform="translate(-404,-94) scale(1,1)"><path fill="none" stroke="#000000" d="M 681.790482243984 668.8373251423759 L 686 679 L 690.209517756016 668.8373251423759" stroke-miterlimit="10"/></g><g transform="translate(-404,-94) scale(1,1)"><path fill="#C0C0C0" stroke="none" d="M 681 859.5 C 681 852.59644 686.59644 847 693.5 847 C 700.40356 847 706 852.59644 706 859.5 C 706 866.40356 700.40356 872 693.5 872 C 686.59644 872 681 866.40356 681 859.5 Z" opacity="0.2"/></g><g transform="translate(-404,-94) scale(1,1)"><path fill="none" stroke="#000000" d="M 674 852.5 C 674 845.59644 679.59644 840 686.5 840 C 693.40356 840 699 845.59644 699 852.5 C 699 859.40356 693.40356 865 686.5 865 C 679.59644 865 674 859.40356 674 852.5 Z" stroke-miterlimit="10"/></g><g transform="translate(-404,-94) scale(1,1)"><path fill="#000000" stroke="none" d="M 679 852.5 C 679 848.357864 682.357864 845 686.5 845 C 690.642136 845 694 848.357864 694 852.5 C 694 856.642136 690.642136 860 686.5 860 C 682.357864 860 679 856.642136 679 852.5 Z"/></g><g transform="translate(-404,-94) scale(1,1)"><path fill="none" stroke="#000000" d="M 686 721 L 686 839" stroke-miterlimit="10"/></g><g transform="translate(-404,-94) scale(1,1)"><path fill="none" stroke="#000000" d="M 681.790482243984 828.8373251423759 L 686 839 L 690.209517756016 828.8373251423759" stroke-miterlimit="10"/></g></g></svg>