<svg version="1.1" xmlns="http://www.w3.org/2000/svg" xmlns:xlink="http://www.w3.org/1999/xlink" width="1029" height="561"><defs/><g><g transform="translate(-1070,-118) scale(1,1)"><path fill="#C0C0C0" stroke="none" d="M 1578 144.5 C 1578 139.2532944 1582.2532944 135 1587.5 135 C 1592.7467056 135 1597 139.2532944 1597 144.5 C 1597 149.7467056 1592.7467056 154 1587.5 154 C 1582.2532944 154 1578 149.7467056 1578 144.5 Z" opacity="0.2"/></g><g transform="translate(-1070,-118) scale(1,1)"><path fill="#000000" stroke="none" d="M 1571 137.5 C 1571 132.2532944 1575.2532944 128 1580.5 128 C 1585.7467056 128 1590 132.2532944 1590 137.5 C 1590 142.7467056 1585.7467056 147 1580.5 147 C 1575.2532944 147 1571 142.7467056 1571 137.5 Z"/></g><g transform="translate(-1070,-118) scale(1,1)"><path fill="#C0C0C0" stroke="none" d="M 1847 663.5 C 1847 656.59644 1852.59644 651 1859.5 651 C 1866.40356 651 1872 656.59644 1872 663.5 C 1872 670.40356 1866.40356 676 1859.5 676 C 1852.59644 676 1847 670.40356 1847 663.5 Z" opacity="0.2"/></g><g transform="translate(-1070,-118) scale(1,1)"><path fill="none" stroke="#000000" d="M 1840 656.5 C 1840 649.59644 1845.59644 644 1852.5 644 C 1859.40356 644 1865 649.59644 1865 656.5 C 1865 663.40356 1859.40356 669 1852.5 669 C 1845.59644 669 1840 663.40356 1840 656.5 Z" stroke-miterlimit="10"/></g><g transform="translate(-1070,-118) scale(1,1)"><path fill="#000000" stroke="none" d="M 1845 656.5 C 1845 652.357864 1848.357864 649 1852.5 649 C 1856.642136 649 1860 652.357864 1860 656.5 C 1860 660.642136 1856.642136 664 1852.5 664 C 1848.357864 664 1845 660.642136 1845 656.5 Z"/></g><g transform="translate(-1070,-118) scale(1,1)"><path fill="#C0C0C0" stroke="none" d="M 1461 207 L 1713 207 Q 1723 207 1723 217 L 1723 237 Q 1723 247 1713 247 L 1461 247 Q 1451 247 1451 237 L 1451 217 Q 1451 207 1461 207 Z" opacity="0.2"/></g><g transform="translate(-1070,-118) scale(1,1)"><path fill="#ffffff" stroke="none" d="M 1454 200 L 1706 200 Q 1716 200 1716 210 L 1716 230 Q 1716 240 1706 240 L 1454 240 Q 1444 240 1444 230 L 1444 210 Q 1444 200 1454 200 Z"/></g><g transform="translate(-1070,-118) scale(1,1)"><path fill="none" stroke="#000000" d="M 1454 200 L 1706 200 Q 1716 200 1716 210 L 1716 230 Q 1716 240 1706 240 L 1454 240 Q 1444 240 1444 230 L 1444 210 Q 1444 200 1454 200 Z" stroke-miterlimit="10"/></g><g transform="translate(-1070,-118) scale(1,1)"><g><path fill="none" stroke="none"/><text fill="#000000" stroke="none" font-family="Arial" font-size="13px" font-style="normal" font-weight="bold" text-decoration="none" x="1461" y="219.5">Gerenciador ordena a lista de sugestores</text></g></g><g transform="translate(-1070,-118) scale(1,1)"><path fill="#C0C0C0" stroke="none" d="M 1375 279 L 1799 279 Q 1809 279 1809 289 L 1809 309 Q 1809 319 1799 319 L 1375 319 Q 1365 319 1365 309 L 1365 289 Q 1365 279 1375 279 Z" opacity="0.2"/></g><g transform="translate(-1070,-118) scale(1,1)"><path fill="#ffffff" stroke="none" d="M 1368 272 L 1792 272 Q 1802 272 1802 282 L 1802 302 Q 1802 312 1792 312 L 1368 312 Q 1358 312 1358 302 L 1358 282 Q 1358 272 1368 272 Z"/></g><g transform="translate(-1070,-118) scale(1,1)"><path fill="none" stroke="#000000" d="M 1368 272 L 1792 272 Q 1802 272 1802 282 L 1802 302 Q 1802 312 1792 312 L 1368 312 Q 1358 312 1358 302 L 1358 282 Q 1358 272 1368 272 Z" stroke-miterlimit="10"/></g><g transform="translate(-1070,-118) scale(1,1)"><g><path fill="none" stroke="none"/><text fill="#000000" stroke="none" font-family="Arial" font-size="13px" font-style="normal" font-weight="bold" text-decoration="none" x="1378" y="291.5">Os sugestores nos extremos da lista tem acertividades semelhantes?</text></g></g><g transform="translate(-1070,-118) scale(1,1)"><path fill="#C0C0C0" stroke="none" d="M 1576 408.5 L 1587.5 399 L 1598 408.5 L 1587.5 417 L 1576 408.5" opacity="0.2"/></g><g transform="translate(-1070,-118) scale(1,1)"><path fill="#ffffff" stroke="none" d="M 1569 401 L 1580 392 L 1591 401 L 1580 410 L 1569 401"/></g><g transform="translate(-1070,-118) scale(1,1)"><path fill="none" stroke="#000000" d="M 1569 401 L 1580 392 L 1591 401 L 1580 410 L 1569 401 L 1569 401" stroke-miterlimit="10"/></g><g transform="translate(-1070,-118) scale(1,1)"><path fill="#C0C0C0" stroke="none" d="M 1633 471 L 2086 471 Q 2096 471 2096 481 L 2096 501 Q 2096 511 2086 511 L 1633 511 Q 1623 511 1623 501 L 1623 481 Q 1623 471 1633 471 Z" opacity="0.2"/></g><g transform="translate(-1070,-118) scale(1,1)"><path fill="#ffffff" stroke="none" d="M 1626 464 L 2079 464 Q 2089 464 2089 474 L 2089 494 Q 2089 504 2079 504 L 1626 504 Q 1616 504 1616 494 L 1616 474 Q 1616 464 1626 464 Z"/></g><g transform="translate(-1070,-118) scale(1,1)"><path fill="none" stroke="#000000" d="M 1626 464 L 2079 464 Q 2089 464 2089 474 L 2089 494 Q 2089 504 2079 504 L 1626 504 Q 1616 504 1616 494 L 1616 474 Q 1616 464 1626 464 Z" stroke-miterlimit="10"/></g><g transform="translate(-1070,-118) scale(1,1)"><g><path fill="none" stroke="none"/><text fill="#000000" stroke="none" font-family="Arial" font-size="13px" font-style="normal" font-weight="bold" text-decoration="none" x="1640.5" y="483.5">Gerenciador remove da lista 40% dos sugestores com baixa acertividade.</text></g></g><g transform="translate(-1070,-118) scale(1,1)"><path fill="#C0C0C0" stroke="none" d="M 1097 471 L 1550 471 Q 1560 471 1560 481 L 1560 501 Q 1560 511 1550 511 L 1097 511 Q 1087 511 1087 501 L 1087 481 Q 1087 471 1097 471 Z" opacity="0.2"/></g><g transform="translate(-1070,-118) scale(1,1)"><path fill="#ffffff" stroke="none" d="M 1090 464 L 1543 464 Q 1553 464 1553 474 L 1553 494 Q 1553 504 1543 504 L 1090 504 Q 1080 504 1080 494 L 1080 474 Q 1080 464 1090 464 Z"/></g><g transform="translate(-1070,-118) scale(1,1)"><path fill="none" stroke="#000000" d="M 1090 464 L 1543 464 Q 1553 464 1553 474 L 1553 494 Q 1553 504 1543 504 L 1090 504 Q 1080 504 1080 494 L 1080 474 Q 1080 464 1090 464 Z" stroke-miterlimit="10"/></g><g transform="translate(-1070,-118) scale(1,1)"><g><path fill="none" stroke="none"/><text fill="#000000" stroke="none" font-family="Arial" font-size="13px" font-style="normal" font-weight="bold" text-decoration="none" x="1104.5" y="483.5">Gerenciador remove da lista 60% dos sugestores com baixa acertividade.</text></g></g><g transform="translate(-1070,-118) scale(1,1)"><path fill="none" stroke="#000000" d="M 1580 148 L 1580 199" stroke-miterlimit="10"/></g><g transform="translate(-1070,-118) scale(1,1)"><path fill="none" stroke="#000000" d="M 1575.7904822439841 188.83732514237585 L 1580 199 L 1584.2095177560159 188.83732514237585" stroke-miterlimit="10"/></g><g transform="translate(-1070,-118) scale(1,1)"><path fill="none" stroke="#000000" d="M 1580 241 L 1580 271" stroke-miterlimit="10"/></g><g transform="translate(-1070,-118) scale(1,1)"><path fill="none" stroke="#000000" d="M 1575.7904822439841 260.83732514237585 L 1580 271 L 1584.2095177560159 260.83732514237585" stroke-miterlimit="10"/></g><g transform="translate(-1070,-118) scale(1,1)"><path fill="none" stroke="#000000" d="M 1580 313 L 1580 391" stroke-miterlimit="10"/></g><g transform="translate(-1070,-118) scale(1,1)"><path fill="none" stroke="#000000" d="M 1575.7904822439841 380.83732514237585 L 1580 391 L 1584.2095177560159 380.83732514237585" stroke-miterlimit="10"/></g><g transform="translate(-1070,-118) scale(1,1)"><path fill="none" stroke="#000000" d="M 1592 401 L 1856 400 L 1853 463" stroke-miterlimit="10"/></g><g transform="translate(-1070,-118) scale(1,1)"><path fill="none" stroke="#000000" d="M 1849.278635986394 452.6486015496341 L 1853 463 L 1857.6881423097332 453.0490542316979" stroke-miterlimit="10"/></g><g transform="translate(-1070,-118) scale(1,1)"><g><path fill="none" stroke="none"/><text fill="#000000" stroke="none" font-family="Arial" font-size="13px" font-style="normal" font-weight="normal" text-decoration="none" x="1859" y="407">Sim</text></g></g><g transform="translate(-1070,-118) scale(1,1)"><path fill="none" stroke="#000000" d="M 1568 401 L 1320 400 L 1317 463" stroke-miterlimit="10"/></g><g transform="translate(-1070,-118) scale(1,1)"><path fill="none" stroke="#000000" d="M 1313.278635986394 452.6486015496341 L 1317 463 L 1321.6881423097332 453.0490542316979" stroke-miterlimit="10"/></g><g transform="translate(-1070,-118) scale(1,1)"><g><path fill="none" stroke="none"/><text fill="#000000" stroke="none" font-family="Arial" font-size="13px" font-style="normal" font-weight="normal" text-decoration="none" x="1288" y="406">Não</text></g></g><g transform="translate(-1070,-118) scale(1,1)"><path fill="#C0C0C0" stroke="none" d="M 1311 663.5 C 1311 656.59644 1316.59644 651 1323.5 651 C 1330.40356 651 1336 656.59644 1336 663.5 C 1336 670.40356 1330.40356 676 1323.5 676 C 1316.59644 676 1311 670.40356 1311 663.5 Z" opacity="0.2"/></g><g transform="translate(-1070,-118) scale(1,1)"><path fill="none" stroke="#000000" d="M 1304 656.5 C 1304 649.59644 1309.59644 644 1316.5 644 C 1323.40356 644 1329 649.59644 1329 656.5 C 1329 663.40356 1323.40356 669 1316.5 669 C 1309.59644 669 1304 663.40356 1304 656.5 Z" stroke-miterlimit="10"/></g><g transform="translate(-1070,-118) scale(1,1)"><path fill="#000000" stroke="none" d="M 1309 656.5 C 1309 652.357864 1312.357864 649 1316.5 649 C 1320.642136 649 1324 652.357864 1324 656.5 C 1324 660.642136 1320.642136 664 1316.5 664 C 1312.357864 664 1309 660.642136 1309 656.5 Z"/></g><g transform="translate(-1070,-118) scale(1,1)"><path fill="none" stroke="#000000" d="M 1316 505 L 1316 643" stroke-miterlimit="10"/></g><g transform="translate(-1070,-118) scale(1,1)"><path fill="none" stroke="#000000" d="M 1311.7904822439841 632.8373251423759 L 1316 643 L 1320.2095177560159 632.8373251423759" stroke-miterlimit="10"/></g><g transform="translate(-1070,-118) scale(1,1)"><path fill="none" stroke="#000000" d="M 1852 505 L 1852 643" stroke-miterlimit="10"/></g><g transform="translate(-1070,-118) scale(1,1)"><path fill="none" stroke="#000000" d="M 1847.7904822439841 632.8373251423759 L 1852 643 L 1856.2095177560159 632.8373251423759" stroke-miterlimit="10"/></g></g></svg>