<svg version="1.1" xmlns="http://www.w3.org/2000/svg" xmlns:xlink="http://www.w3.org/1999/xlink" width="1605" height="533"><defs/><g><g transform="translate(-30,-118) scale(1,1)"><path fill="#ffffff" stroke="none" d="M 219.02116672585228 225.68 C 219.02116672585228 220.886167936 222.90700905079774 217 227.700439453125 217 C 232.49386985545226 217 236.37971218039772 220.886167936 236.37971218039772 225.68 C 236.37971218039772 230.47383206400002 232.49386985545226 234.36 227.700439453125 234.36 C 222.90700905079774 234.36 219.02116672585228 230.47383206400002 219.02116672585228 225.68 Z"/></g><g transform="translate(-30,-118) scale(1,1)"><path fill="none" stroke="#000000" d="M 219.02116672585228 225.68 C 219.02116672585228 220.886167936 222.90700905079774 217 227.700439453125 217 C 232.49386985545226 217 236.37971218039772 220.886167936 236.37971218039772 225.68 C 236.37971218039772 230.47383206400002 232.49386985545226 234.36 227.700439453125 234.36 C 222.90700905079774 234.36 219.02116672585228 230.47383206400002 219.02116672585228 225.68 Z" stroke-miterlimit="10"/></g><g transform="translate(-30,-118) scale(1,1)"><path fill="none" stroke="#000000" d="M 227.700439453125 234.36 L 227.700439453125 251.64" stroke-miterlimit="10"/></g><g transform="translate(-30,-118) scale(1,1)"><path fill="none" stroke="#000000" d="M 218.51062127130683 240.84 L 236.89025763494317 240.84" stroke-miterlimit="10"/></g><g transform="translate(-30,-118) scale(1,1)"><path fill="none" stroke="#000000" d="M 227.700439453125 251.64 L 214.93680308948865 269" stroke-miterlimit="10"/></g><g transform="translate(-30,-118) scale(1,1)"><path fill="none" stroke="#000000" d="M 227.700439453125 251.64 L 240.46407581676135 269" stroke-miterlimit="10"/></g><g transform="translate(-30,-118) scale(1,1)"><g><path fill="none" stroke="none"/><text fill="#000000" stroke="none" font-family="Arial" font-size="13px" font-style="normal" font-weight="bold" text-decoration="none" x="205.700439453125" y="289.5">Usuário</text></g></g><g transform="translate(-30,-118) scale(1,1)"><path fill="#C0C0C0" stroke="none" d="M 370 165 C 370 155.6111584 416.7862384 148 474.5 148 C 532.2137616 148 579 155.6111584 579 165 C 579 174.3888416 532.2137616 182 474.5 182 C 416.7862384 182 370 174.3888416 370 165 Z" opacity="0.2"/></g><g transform="translate(-30,-118) scale(1,1)"><path fill="#ffffff" stroke="none" d="M 363 158 C 363 148.6111584 409.7862384 141 467.5 141 C 525.2137616 141 572 148.6111584 572 158 C 572 167.3888416 525.2137616 175 467.5 175 C 409.7862384 175 363 167.3888416 363 158 Z"/></g><g transform="translate(-30,-118) scale(1,1)"><path fill="none" stroke="#000000" d="M 363 158 C 363 148.6111584 409.7862384 141 467.5 141 C 525.2137616 141 572 148.6111584 572 158 C 572 167.3888416 525.2137616 175 467.5 175 C 409.7862384 175 363 167.3888416 363 158 Z" stroke-miterlimit="10"/></g><g transform="translate(-30,-118) scale(1,1)"><g><path fill="none" stroke="none"/><text fill="#000000" stroke="none" font-family="Arial" font-size="13px" font-style="normal" font-weight="bold" text-decoration="none" x="404.5" y="165">Insere trecho de texto</text></g></g><g transform="translate(-30,-118) scale(1,1)"><path fill="none" stroke="#000000" d="M 226 215 L 224 160 L 362 159" stroke-miterlimit="10"/></g><g transform="translate(-30,-118) scale(1,1)"><path fill="#ffffff" stroke="none" d="M 220.32072727272728 409.68 C 220.32072727272728 404.886167936 224.20656959767274 401 229 401 C 233.79343040232726 401 237.67927272727272 404.886167936 237.67927272727272 409.68 C 237.67927272727272 414.473832064 233.79343040232726 418.36 229 418.36 C 224.20656959767274 418.36 220.32072727272728 414.473832064 220.32072727272728 409.68 Z"/></g><g transform="translate(-30,-118) scale(1,1)"><path fill="none" stroke="#000000" d="M 220.32072727272728 409.68 C 220.32072727272728 404.886167936 224.20656959767274 401 229 401 C 233.79343040232726 401 237.67927272727272 404.886167936 237.67927272727272 409.68 C 237.67927272727272 414.473832064 233.79343040232726 418.36 229 418.36 C 224.20656959767274 418.36 220.32072727272728 414.473832064 220.32072727272728 409.68 Z" stroke-miterlimit="10"/></g><g transform="translate(-30,-118) scale(1,1)"><path fill="none" stroke="#000000" d="M 229 418.36 L 229 435.64" stroke-miterlimit="10"/></g><g transform="translate(-30,-118) scale(1,1)"><path fill="none" stroke="#000000" d="M 219.81018181818183 424.84 L 238.18981818181817 424.84" stroke-miterlimit="10"/></g><g transform="translate(-30,-118) scale(1,1)"><path fill="none" stroke="#000000" d="M 229 435.64 L 216.23636363636365 453" stroke-miterlimit="10"/></g><g transform="translate(-30,-118) scale(1,1)"><path fill="none" stroke="#000000" d="M 229 435.64 L 241.76363636363635 453" stroke-miterlimit="10"/></g><g transform="translate(-30,-118) scale(1,1)"><g><path fill="none" stroke="none"/><text fill="#000000" stroke="none" font-family="Arial" font-size="13px" font-style="normal" font-weight="bold" text-decoration="none" x="178" y="473.5">Usuário Simulado</text></g></g><g transform="translate(-30,-118) scale(1,1)"><path fill="none" stroke="#000000" d="M 229 399 L 227 296" stroke-miterlimit="10"/></g><g transform="translate(-30,-118) scale(1,1)"><path fill="#FFFFFF" stroke="none" d="M 235.81204141451457 316.158073472157 L 227 296 L 218.9771437924811 316.4849646881188"/></g><g transform="translate(-30,-118) scale(1,1)"><path fill="none" stroke="#000000" d="M 235.81204141451457 316.158073472157 L 227 296 L 218.9771437924811 316.4849646881188 L 235.81204141451457 316.158073472157" stroke-miterlimit="10"/></g><g transform="translate(-30,-118) scale(1,1)"><path fill="#ffffff" stroke="none" d="M 963.3207272727273 289.68 C 963.3207272727273 284.886167936 967.2065695976727 281 972 281 C 976.7934304023273 281 980.6792727272727 284.886167936 980.6792727272727 289.68 C 980.6792727272727 294.473832064 976.7934304023273 298.36 972 298.36 C 967.2065695976727 298.36 963.3207272727273 294.473832064 963.3207272727273 289.68 Z"/></g><g transform="translate(-30,-118) scale(1,1)"><path fill="none" stroke="#000000" d="M 963.3207272727273 289.68 C 963.3207272727273 284.886167936 967.2065695976727 281 972 281 C 976.7934304023273 281 980.6792727272727 284.886167936 980.6792727272727 289.68 C 980.6792727272727 294.473832064 976.7934304023273 298.36 972 298.36 C 967.2065695976727 298.36 963.3207272727273 294.473832064 963.3207272727273 289.68 Z" stroke-miterlimit="10"/></g><g transform="translate(-30,-118) scale(1,1)"><path fill="none" stroke="#000000" d="M 972 298.36 L 972 315.64" stroke-miterlimit="10"/></g><g transform="translate(-30,-118) scale(1,1)"><path fill="none" stroke="#000000" d="M 962.8101818181818 304.84 L 981.1898181818182 304.84" stroke-miterlimit="10"/></g><g transform="translate(-30,-118) scale(1,1)"><path fill="none" stroke="#000000" d="M 972 315.64 L 959.2363636363636 333" stroke-miterlimit="10"/></g><g transform="translate(-30,-118) scale(1,1)"><path fill="none" stroke="#000000" d="M 972 315.64 L 984.7636363636364 333" stroke-miterlimit="10"/></g><g transform="translate(-30,-118) scale(1,1)"><g><path fill="none" stroke="none"/><text fill="#000000" stroke="none" font-family="Arial" font-size="13px" font-style="normal" font-weight="bold" text-decoration="none" x="937" y="353.5">Gerenciador</text></g></g><g transform="translate(-30,-118) scale(1,1)"><path fill="#ffffff" stroke="none" d="M 951.9916257102273 561.6800000000001 C 951.9916257102273 556.8861679360001 955.8774680351727 553 960.6708984375 553 C 965.4643288398273 553 969.3501711647727 556.8861679360001 969.3501711647727 561.6800000000001 C 969.3501711647727 566.473832064 965.4643288398273 570.36 960.6708984375 570.36 C 955.8774680351727 570.36 951.9916257102273 566.473832064 951.9916257102273 561.6800000000001 Z"/></g><g transform="translate(-30,-118) scale(1,1)"><path fill="none" stroke="#000000" d="M 951.9916257102273 561.6800000000001 C 951.9916257102273 556.8861679360001 955.8774680351727 553 960.6708984375 553 C 965.4643288398273 553 969.3501711647727 556.8861679360001 969.3501711647727 561.6800000000001 C 969.3501711647727 566.473832064 965.4643288398273 570.36 960.6708984375 570.36 C 955.8774680351727 570.36 951.9916257102273 566.473832064 951.9916257102273 561.6800000000001 Z" stroke-miterlimit="10"/></g><g transform="translate(-30,-118) scale(1,1)"><path fill="none" stroke="#000000" d="M 960.6708984375 570.36 L 960.6708984375 587.64" stroke-miterlimit="10"/></g><g transform="translate(-30,-118) scale(1,1)"><path fill="none" stroke="#000000" d="M 951.4810802556818 576.84 L 969.8607166193182 576.84" stroke-miterlimit="10"/></g><g transform="translate(-30,-118) scale(1,1)"><path fill="none" stroke="#000000" d="M 960.6708984375 587.64 L 947.9072620738636 605" stroke-miterlimit="10"/></g><g transform="translate(-30,-118) scale(1,1)"><path fill="none" stroke="#000000" d="M 960.6708984375 587.64 L 973.4345348011364 605" stroke-miterlimit="10"/></g><g transform="translate(-30,-118) scale(1,1)"><g><path fill="none" stroke="none"/><text fill="#000000" stroke="none" font-family="Arial" font-size="13px" font-style="normal" font-weight="bold" text-decoration="none" x="934.6708984375" y="625.5">Sugestor</text></g></g><g transform="translate(-30,-118) scale(1,1)"><path fill="#C0C0C0" stroke="none" d="M 352 288 C 352 278.6111584 406.845112 271 474.5 271 C 542.154888 271 597 278.6111584 597 288 C 597 297.3888416 542.154888 305 474.5 305 C 406.845112 305 352 297.3888416 352 288 Z" opacity="0.2"/></g><g transform="translate(-30,-118) scale(1,1)"><path fill="#ffffff" stroke="none" d="M 345 281 C 345 271.6111584 399.845112 264 467.5 264 C 535.154888 264 590 271.6111584 590 281 C 590 290.3888416 535.154888 298 467.5 298 C 399.845112 298 345 290.3888416 345 281 Z"/></g><g transform="translate(-30,-118) scale(1,1)"><path fill="none" stroke="#000000" d="M 345 281 C 345 271.6111584 399.845112 264 467.5 264 C 535.154888 264 590 271.6111584 590 281 C 590 290.3888416 535.154888 298 467.5 298 C 399.845112 298 345 290.3888416 345 281 Z" stroke-miterlimit="10"/></g><g transform="translate(-30,-118) scale(1,1)"><g><path fill="none" stroke="none"/><text fill="#000000" stroke="none" font-family="Arial" font-size="13px" font-style="normal" font-weight="bold" text-decoration="none" x="393" y="288">Distribui o trecho de texto</text></g></g><g transform="translate(-30,-118) scale(1,1)"><path fill="none" stroke="#000000" d="M 467 176 L 467 263" stroke-miterlimit="10" stroke-dasharray="3"/></g><g transform="translate(-30,-118) scale(1,1)"><path fill="none" stroke="#000000" d="M 462.790482243984 252.83732514237585 L 467 263 L 471.209517756016 252.83732514237585" stroke-miterlimit="10"/></g><g transform="translate(-30,-118) scale(1,1)"><g><path fill="none" stroke="none"/><text fill="#000000" stroke="none" font-family="Arial" font-size="13px" font-style="normal" font-weight="normal" text-decoration="none" x="481" y="233">«include»</text></g></g><g transform="translate(-30,-118) scale(1,1)"><path fill="none" stroke="#000000" d="M 927 320 L 888 320 L 888 280 L 591 281" stroke-miterlimit="10"/></g><g transform="translate(-30,-118) scale(1,1)"><path fill="#C0C0C0" stroke="none" d="M 423 408 C 423 398.6111584 445.6096176 391 473.5 391 C 501.3903824 391 524 398.6111584 524 408 C 524 417.3888416 501.3903824 425 473.5 425 C 445.6096176 425 423 417.3888416 423 408 Z" opacity="0.2"/></g><g transform="translate(-30,-118) scale(1,1)"><path fill="#ffffff" stroke="none" d="M 416 401 C 416 391.6111584 438.6096176 384 466.5 384 C 494.3903824 384 517 391.6111584 517 401 C 517 410.3888416 494.3903824 418 466.5 418 C 438.6096176 418 416 410.3888416 416 401 Z"/></g><g transform="translate(-30,-118) scale(1,1)"><path fill="none" stroke="#000000" d="M 416 401 C 416 391.6111584 438.6096176 384 466.5 384 C 494.3903824 384 517 391.6111584 517 401 C 517 410.3888416 494.3903824 418 466.5 418 C 438.6096176 418 416 410.3888416 416 401 Z" stroke-miterlimit="10"/></g><g transform="translate(-30,-118) scale(1,1)"><g><path fill="none" stroke="none"/><text fill="#000000" stroke="none" font-family="Arial" font-size="13px" font-style="normal" font-weight="bold" text-decoration="none" x="446" y="408">Sugere</text></g></g><g transform="translate(-30,-118) scale(1,1)"><path fill="none" stroke="#000000" d="M 466 299 L 464 320 L 384 320 L 384 400 L 415 400" stroke-miterlimit="10" stroke-dasharray="3"/></g><g transform="translate(-30,-118) scale(1,1)"><path fill="none" stroke="#000000" d="M 404.83732514237585 404.209517756016 L 415 400 L 404.83732514237585 395.790482243984" stroke-miterlimit="10"/></g><g transform="translate(-30,-118) scale(1,1)"><g><path fill="none" stroke="none"/><text fill="#000000" stroke="none" font-family="Arial" font-size="13px" font-style="normal" font-weight="normal" text-decoration="none" x="399" y="340">«include»</text></g></g><g transform="translate(-30,-118) scale(1,1)"><path fill="none" stroke="#000000" d="M 927 591 L 576 592 L 576 400 L 518 401" stroke-miterlimit="10"/></g><g transform="translate(-30,-118) scale(1,1)"><path fill="#C0C0C0" stroke="none" d="M 669 165 C 669 155.6111584 728.5461216 148 802 148 C 875.4538784 148 935 155.6111584 935 165 C 935 174.3888416 875.4538784 182 802 182 C 728.5461216 182 669 174.3888416 669 165 Z" opacity="0.2"/></g><g transform="translate(-30,-118) scale(1,1)"><path fill="#ffffff" stroke="none" d="M 662 158 C 662 148.6111584 721.5461216 141 795 141 C 868.4538784 141 928 148.6111584 928 158 C 928 167.3888416 868.4538784 175 795 175 C 721.5461216 175 662 167.3888416 662 158 Z"/></g><g transform="translate(-30,-118) scale(1,1)"><path fill="none" stroke="#000000" d="M 662 158 C 662 148.6111584 721.5461216 141 795 141 C 868.4538784 141 928 148.6111584 928 158 C 928 167.3888416 868.4538784 175 795 175 C 721.5461216 175 662 167.3888416 662 158 Z" stroke-miterlimit="10"/></g><g transform="translate(-30,-118) scale(1,1)"><g><path fill="none" stroke="none"/><text fill="#000000" stroke="none" font-family="Arial" font-size="13px" font-style="normal" font-weight="bold" text-decoration="none" x="715.5" y="165">Adiciona frase ao dicionário</text></g></g><g transform="translate(-30,-118) scale(1,1)"><path fill="none" stroke="#000000" d="M 971 279 L 968 160 L 929 160" stroke-miterlimit="10"/></g><g transform="translate(-30,-118) scale(1,1)"><path fill="none" stroke="#000000" d="M 661 158 L 573 158" stroke-miterlimit="10" stroke-dasharray="3"/></g><g transform="translate(-30,-118) scale(1,1)"><path fill="none" stroke="#000000" d="M 583.1626748576241 153.790482243984 L 573 158 L 583.1626748576241 162.209517756016" stroke-miterlimit="10"/></g><g transform="translate(-30,-118) scale(1,1)"><g><path fill="none" stroke="none"/><text fill="#000000" stroke="none" font-family="Arial" font-size="13px" font-style="normal" font-weight="normal" text-decoration="none" x="575" y="148">«extend»</text></g></g><g transform="translate(-30,-118) scale(1,1)"><path fill="#C0C0C0" stroke="none" d="M 698 408 C 698 398.6111584 742.9953776 391 798.5 391 C 854.0046224 391 899 398.6111584 899 408 C 899 417.3888416 854.0046224 425 798.5 425 C 742.9953776 425 698 417.3888416 698 408 Z" opacity="0.2"/></g><g transform="translate(-30,-118) scale(1,1)"><path fill="#ffffff" stroke="none" d="M 691 401 C 691 391.6111584 735.9953776 384 791.5 384 C 847.0046224 384 892 391.6111584 892 401 C 892 410.3888416 847.0046224 418 791.5 418 C 735.9953776 418 691 410.3888416 691 401 Z"/></g><g transform="translate(-30,-118) scale(1,1)"><path fill="none" stroke="#000000" d="M 691 401 C 691 391.6111584 735.9953776 384 791.5 384 C 847.0046224 384 892 391.6111584 892 401 C 892 410.3888416 847.0046224 418 791.5 418 C 735.9953776 418 691 410.3888416 691 401 Z" stroke-miterlimit="10"/></g><g transform="translate(-30,-118) scale(1,1)"><g><path fill="none" stroke="none"/><text fill="#000000" stroke="none" font-family="Arial" font-size="13px" font-style="normal" font-weight="bold" text-decoration="none" x="731.5" y="408">Gerencia sugestores</text></g></g><g transform="translate(-30,-118) scale(1,1)"><path fill="none" stroke="#000000" d="M 969 360 L 968 368 L 792 368 L 792 383" stroke-miterlimit="10"/></g><g transform="translate(-30,-118) scale(1,1)"><path fill="none" stroke="#000000" d="M 960 551 L 960 440 L 792 440 L 791 419" stroke-miterlimit="10"/></g><g transform="translate(-30,-118) scale(1,1)"><path fill="#ffffff" stroke="none" d="M 86.82072727272727 273.68 C 86.82072727272727 268.886167936 90.70656959767273 265 95.5 265 C 100.29343040232727 265 104.17927272727273 268.886167936 104.17927272727273 273.68 C 104.17927272727273 278.473832064 100.29343040232727 282.36 95.5 282.36 C 90.70656959767273 282.36 86.82072727272727 278.473832064 86.82072727272727 273.68 Z"/></g><g transform="translate(-30,-118) scale(1,1)"><path fill="none" stroke="#000000" d="M 86.82072727272727 273.68 C 86.82072727272727 268.886167936 90.70656959767273 265 95.5 265 C 100.29343040232727 265 104.17927272727273 268.886167936 104.17927272727273 273.68 C 104.17927272727273 278.473832064 100.29343040232727 282.36 95.5 282.36 C 90.70656959767273 282.36 86.82072727272727 278.473832064 86.82072727272727 273.68 Z" stroke-miterlimit="10"/></g><g transform="translate(-30,-118) scale(1,1)"><path fill="none" stroke="#000000" d="M 95.5 282.36 L 95.5 299.64" stroke-miterlimit="10"/></g><g transform="translate(-30,-118) scale(1,1)"><path fill="none" stroke="#000000" d="M 86.31018181818182 288.84 L 104.68981818181818 288.84" stroke-miterlimit="10"/></g><g transform="translate(-30,-118) scale(1,1)"><path fill="none" stroke="#000000" d="M 95.5 299.64 L 82.73636363636363 317" stroke-miterlimit="10"/></g><g transform="translate(-30,-118) scale(1,1)"><path fill="none" stroke="#000000" d="M 95.5 299.64 L 108.26363636363637 317" stroke-miterlimit="10"/></g><g transform="translate(-30,-118) scale(1,1)"><g><path fill="none" stroke="none"/><text fill="#000000" stroke="none" font-family="Arial" font-size="13px" font-style="normal" font-weight="bold" text-decoration="none" x="49.5" y="337.5">Interface de uso</text></g></g><g transform="translate(-30,-118) scale(1,1)"><path fill="none" stroke="#000000" d="M 95 263 L 96 128 L 464 128 L 465 140" stroke-miterlimit="10"/></g><g transform="translate(-30,-118) scale(1,1)"><path fill="#C0C0C0" stroke="none" d="M 372 504 C 372 494.6111584 416.9953776 487 472.5 487 C 528.0046224 487 573 494.6111584 573 504 C 573 513.3888416 528.0046224 521 472.5 521 C 416.9953776 521 372 513.3888416 372 504 Z" opacity="0.2"/></g><g transform="translate(-30,-118) scale(1,1)"><path fill="#ffffff" stroke="none" d="M 365 497 C 365 487.6111584 409.9953776 480 465.5 480 C 521.0046224 480 566 487.6111584 566 497 C 566 506.3888416 521.0046224 514 465.5 514 C 409.9953776 514 365 506.3888416 365 497 Z"/></g><g transform="translate(-30,-118) scale(1,1)"><path fill="none" stroke="#000000" d="M 365 497 C 365 487.6111584 409.9953776 480 465.5 480 C 521.0046224 480 566 487.6111584 566 497 C 566 506.3888416 521.0046224 514 465.5 514 C 409.9953776 514 365 506.3888416 365 497 Z" stroke-miterlimit="10"/></g><g transform="translate(-30,-118) scale(1,1)"><g><path fill="none" stroke="none"/><text fill="#000000" stroke="none" font-family="Arial" font-size="13px" font-style="normal" font-weight="bold" text-decoration="none" x="403" y="504">Apresenta Sugestões</text></g></g><g transform="translate(-30,-118) scale(1,1)"><path fill="none" stroke="#000000" d="M 95 344 L 96 536 L 464 536 L 465 515" stroke-miterlimit="10"/></g><g transform="translate(-30,-118) scale(1,1)"><path fill="none" stroke="#000000" d="M 466 419 L 465 479" stroke-miterlimit="10" stroke-dasharray="3"/></g><g transform="translate(-30,-118) scale(1,1)"><path fill="none" stroke="#000000" d="M 460.96042117193616 468.7685874439617 L 465 479 L 469.37828761703037 468.9088852180466" stroke-miterlimit="10"/></g><g transform="translate(-30,-118) scale(1,1)"><g><path fill="none" stroke="none"/><text fill="#000000" stroke="none" font-family="Arial" font-size="13px" font-style="normal" font-weight="normal" text-decoration="none" x="463" y="465">«include»</text></g></g><g transform="translate(-30,-118) scale(1,1)"><path fill="none" stroke="#000000" d="M 257 255 L 336 256 L 336 496 L 364 496" stroke-miterlimit="10"/></g><g transform="translate(-30,-118) scale(1,1)"><path fill="none" stroke="#000000" d="M 465 383 L 464 368 L 624 368 L 624 400 L 690 400" stroke-miterlimit="10"/></g><g transform="translate(-30,-118) scale(1,1)"><path fill="#C0C0C0" stroke="none" d="M 1262 408 C 1262 398.6111584 1339.0070144000001 391 1434 391 C 1528.9929855999999 391 1606 398.6111584 1606 408 C 1606 417.3888416 1528.9929855999999 425 1434 425 C 1339.0070144000001 425 1262 417.3888416 1262 408 Z" opacity="0.2"/></g><g transform="translate(-30,-118) scale(1,1)"><path fill="#ffffff" stroke="none" d="M 1255 401 C 1255 391.6111584 1332.0070144000001 384 1427 384 C 1521.9929855999999 384 1599 391.6111584 1599 401 C 1599 410.3888416 1521.9929855999999 418 1427 418 C 1332.0070144000001 418 1255 410.3888416 1255 401 Z"/></g><g transform="translate(-30,-118) scale(1,1)"><path fill="none" stroke="#000000" d="M 1255 401 C 1255 391.6111584 1332.0070144000001 384 1427 384 C 1521.9929855999999 384 1599 391.6111584 1599 401 C 1599 410.3888416 1521.9929855999999 418 1427 418 C 1332.0070144000001 418 1255 410.3888416 1255 401 Z" stroke-miterlimit="10"/></g><g transform="translate(-30,-118) scale(1,1)"><g><path fill="none" stroke="none"/><text fill="#000000" stroke="none" font-family="Arial" font-size="13px" font-style="normal" font-weight="bold" text-decoration="none" x="1318.5" y="408">Elimina sugestores com baixo fitness</text></g></g><g transform="translate(-30,-118) scale(1,1)"><path fill="none" stroke="#000000" d="M 893 401 L 1254 401" stroke-miterlimit="10" stroke-dasharray="3"/></g><g transform="translate(-30,-118) scale(1,1)"><path fill="none" stroke="#000000" d="M 1243.837325142376 405.209517756016 L 1254 401 L 1243.837325142376 396.790482243984" stroke-miterlimit="10"/></g><g transform="translate(-30,-118) scale(1,1)"><g><path fill="none" stroke="none"/><text fill="#000000" stroke="none" font-family="Arial" font-size="13px" font-style="normal" font-weight="normal" text-decoration="none" x="1151" y="397">«include»</text></g></g><g transform="translate(-30,-118) scale(1,1)"><path fill="#C0C0C0" stroke="none" d="M 1333 464 C 1333 454.6111584 1377.9953776 447 1433.5 447 C 1489.0046224 447 1534 454.6111584 1534 464 C 1534 473.3888416 1489.0046224 481 1433.5 481 C 1377.9953776 481 1333 473.3888416 1333 464 Z" opacity="0.2"/></g><g transform="translate(-30,-118) scale(1,1)"><path fill="#ffffff" stroke="none" d="M 1326 457 C 1326 447.6111584 1370.9953776 440 1426.5 440 C 1482.0046224 440 1527 447.6111584 1527 457 C 1527 466.3888416 1482.0046224 474 1426.5 474 C 1370.9953776 474 1326 466.3888416 1326 457 Z"/></g><g transform="translate(-30,-118) scale(1,1)"><path fill="none" stroke="#000000" d="M 1326 457 C 1326 447.6111584 1370.9953776 440 1426.5 440 C 1482.0046224 440 1527 447.6111584 1527 457 C 1527 466.3888416 1482.0046224 474 1426.5 474 C 1370.9953776 474 1326 466.3888416 1326 457 Z" stroke-miterlimit="10"/></g><g transform="translate(-30,-118) scale(1,1)"><g><path fill="none" stroke="none"/><text fill="#000000" stroke="none" font-family="Arial" font-size="13px" font-style="normal" font-weight="bold" text-decoration="none" x="1365" y="464">Reproduz sugestores</text></g></g><g transform="translate(-30,-118) scale(1,1)"><path fill="#C0C0C0" stroke="none" d="M 1309 520 C 1309 510.6111584 1365.8598304 503 1436 503 C 1506.1401696 503 1563 510.6111584 1563 520 C 1563 529.3888416 1506.1401696 537 1436 537 C 1365.8598304 537 1309 529.3888416 1309 520 Z" opacity="0.2"/></g><g transform="translate(-30,-118) scale(1,1)"><path fill="#ffffff" stroke="none" d="M 1302 513 C 1302 503.6111584 1358.8598304 496 1429 496 C 1499.1401696 496 1556 503.6111584 1556 513 C 1556 522.3888416 1499.1401696 530 1429 530 C 1358.8598304 530 1302 522.3888416 1302 513 Z"/></g><g transform="translate(-30,-118) scale(1,1)"><path fill="none" stroke="#000000" d="M 1302 513 C 1302 503.6111584 1358.8598304 496 1429 496 C 1499.1401696 496 1556 503.6111584 1556 513 C 1556 522.3888416 1499.1401696 530 1429 530 C 1358.8598304 530 1302 522.3888416 1302 513 Z" stroke-miterlimit="10"/></g><g transform="translate(-30,-118) scale(1,1)"><g><path fill="none" stroke="none"/><text fill="#000000" stroke="none" font-family="Arial" font-size="13px" font-style="normal" font-weight="bold" text-decoration="none" x="1352" y="520">Normatiza código genético</text></g></g><g transform="translate(-30,-118) scale(1,1)"><path fill="none" stroke="#000000" d="M 893 401 L 1040 400 L 1040 456 L 1325 457" stroke-miterlimit="10" stroke-dasharray="3"/></g><g transform="translate(-30,-118) scale(1,1)"><path fill="none" stroke="#000000" d="M 1314.8226175537652 461.17383355478756 L 1325 457 L 1314.8521578474042 452.75484986767265" stroke-miterlimit="10"/></g><g transform="translate(-30,-118) scale(1,1)"><g><path fill="none" stroke="none"/><text fill="#000000" stroke="none" font-family="Arial" font-size="13px" font-style="normal" font-weight="normal" text-decoration="none" x="1151" y="449">«include»</text></g></g><g transform="translate(-30,-118) scale(1,1)"><path fill="none" stroke="#000000" d="M 893 400 L 992 400 L 992 512 L 1301 513" stroke-miterlimit="10" stroke-dasharray="3"/></g><g transform="translate(-30,-118) scale(1,1)"><path fill="none" stroke="#000000" d="M 1290.8237553967967 517.1766069692728 L 1301 513 L 1290.8510013237383 508.7576155443858" stroke-miterlimit="10"/></g><g transform="translate(-30,-118) scale(1,1)"><g><path fill="none" stroke="none"/><text fill="#000000" stroke="none" font-family="Arial" font-size="13px" font-style="normal" font-weight="normal" text-decoration="none" x="1151" y="509">«include»</text></g></g><g transform="translate(-30,-118) scale(1,1)"><path fill="none" stroke="#000000" d="M 1017 319 L 1424 320 L 1426 383" stroke-miterlimit="10"/></g><g transform="translate(-30,-118) scale(1,1)"><path fill="none" stroke="#000000" d="M 1017 307 L 1029 304 L 1624 304 L 1624 432 L 1424 432 L 1425 439" stroke-miterlimit="10"/></g><g transform="translate(-30,-118) scale(1,1)"><path fill="none" stroke="#000000" d="M 994 591 L 1432 592 L 1430 531" stroke-miterlimit="10"/></g><g transform="translate(-30,-118) scale(1,1)"><path fill="none" stroke="#000000" d="M 960 632 L 960 640 L 1568 640 L 1568 456 L 1528 456" stroke-miterlimit="10"/></g></g></svg>