<svg version="1.1" xmlns="http://www.w3.org/2000/svg" xmlns:xlink="http://www.w3.org/1999/xlink" width="311" height="501"><defs/><g><g transform="translate(-127,-22) scale(1,1)"><path fill="#C0C0C0" stroke="none" d="M 280 48.5 C 280 43.2532944 284.2532944 39 289.5 39 C 294.7467056 39 299 43.2532944 299 48.5 C 299 53.7467056 294.7467056 58 289.5 58 C 284.2532944 58 280 53.7467056 280 48.5 Z" opacity="0.2"/></g><g transform="translate(-127,-22) scale(1,1)"><path fill="#000000" stroke="none" d="M 273 41.5 C 273 36.2532944 277.2532944 32 282.5 32 C 287.7467056 32 292 36.2532944 292 41.5 C 292 46.7467056 287.7467056 51 282.5 51 C 277.2532944 51 273 46.7467056 273 41.5 Z"/></g><g transform="translate(-127,-22) scale(1,1)"><path fill="#C0C0C0" stroke="none" d="M 277 507.5 C 277 500.59644 282.59644 495 289.5 495 C 296.40356 495 302 500.59644 302 507.5 C 302 514.40356 296.40356 520 289.5 520 C 282.59644 520 277 514.40356 277 507.5 Z" opacity="0.2"/></g><g transform="translate(-127,-22) scale(1,1)"><path fill="none" stroke="#000000" d="M 270 500.5 C 270 493.59644 275.59644 488 282.5 488 C 289.40356 488 295 493.59644 295 500.5 C 295 507.40356 289.40356 513 282.5 513 C 275.59644 513 270 507.40356 270 500.5 Z" stroke-miterlimit="10"/></g><g transform="translate(-127,-22) scale(1,1)"><path fill="#000000" stroke="none" d="M 275 500.5 C 275 496.357864 278.357864 493 282.5 493 C 286.642136 493 290 496.357864 290 500.5 C 290 504.642136 286.642136 508 282.5 508 C 278.357864 508 275 504.642136 275 500.5 Z"/></g><g transform="translate(-127,-22) scale(1,1)"><path fill="#C0C0C0" stroke="none" d="M 169 103 L 410 103 Q 420 103 420 113 L 420 133 Q 420 143 410 143 L 169 143 Q 159 143 159 133 L 159 113 Q 159 103 169 103 Z" opacity="0.2"/></g><g transform="translate(-127,-22) scale(1,1)"><path fill="#ffffff" stroke="none" d="M 162 96 L 403 96 Q 413 96 413 106 L 413 126 Q 413 136 403 136 L 162 136 Q 152 136 152 126 L 152 106 Q 152 96 162 96 Z"/></g><g transform="translate(-127,-22) scale(1,1)"><path fill="none" stroke="#000000" d="M 162 96 L 403 96 Q 413 96 413 106 L 413 126 Q 413 136 403 136 L 162 136 Q 152 136 152 126 L 152 106 Q 152 96 162 96 Z" stroke-miterlimit="10"/></g><g transform="translate(-127,-22) scale(1,1)"><g><path fill="none" stroke="none"/><text fill="#000000" stroke="none" font-family="Arial" font-size="13px" font-style="normal" font-weight="bold" text-decoration="none" x="165" y="115.5">Sugestor concatena as estruturas de sql</text></g></g><g transform="translate(-127,-22) scale(1,1)"><path fill="#C0C0C0" stroke="none" d="M 239 191 L 339 191 Q 349 191 349 201 L 349 221 Q 349 231 339 231 L 239 231 Q 229 231 229 221 L 229 201 Q 229 191 239 191 Z" opacity="0.2"/></g><g transform="translate(-127,-22) scale(1,1)"><path fill="#ffffff" stroke="none" d="M 232 184 L 332 184 Q 342 184 342 194 L 342 214 Q 342 224 332 224 L 232 224 Q 222 224 222 214 L 222 194 Q 222 184 232 184 Z"/></g><g transform="translate(-127,-22) scale(1,1)"><path fill="none" stroke="#000000" d="M 232 184 L 332 184 Q 342 184 342 194 L 342 214 Q 342 224 332 224 L 232 224 Q 222 224 222 214 L 222 194 Q 222 184 232 184 Z" stroke-miterlimit="10"/></g><g transform="translate(-127,-22) scale(1,1)"><g><path fill="none" stroke="none"/><text fill="#000000" stroke="none" font-family="Arial" font-size="13px" font-style="normal" font-weight="bold" text-decoration="none" x="231" y="203.5">Sugestor executa</text></g></g><g transform="translate(-127,-22) scale(1,1)"><path fill="#C0C0C0" stroke="none" d="M 197 271 L 382 271 Q 392 271 392 281 L 392 301 Q 392 311 382 311 L 197 311 Q 187 311 187 301 L 187 281 Q 187 271 197 271 Z" opacity="0.2"/></g><g transform="translate(-127,-22) scale(1,1)"><path fill="#ffffff" stroke="none" d="M 190 264 L 375 264 Q 385 264 385 274 L 385 294 Q 385 304 375 304 L 190 304 Q 180 304 180 294 L 180 274 Q 180 264 190 264 Z"/></g><g transform="translate(-127,-22) scale(1,1)"><path fill="none" stroke="#000000" d="M 190 264 L 375 264 Q 385 264 385 274 L 385 294 Q 385 304 375 304 L 190 304 Q 180 304 180 294 L 180 274 Q 180 264 190 264 Z" stroke-miterlimit="10"/></g><g transform="translate(-127,-22) scale(1,1)"><g><path fill="none" stroke="none"/><text fill="#000000" stroke="none" font-family="Arial" font-size="13px" font-style="normal" font-weight="bold" text-decoration="none" x="193" y="283.5">Incrementa o contador de usos</text></g></g><g transform="translate(-127,-22) scale(1,1)"><path fill="#C0C0C0" stroke="none" d="M 154 383 L 425 383 Q 435 383 435 393 L 435 413 Q 435 423 425 423 L 154 423 Q 144 423 144 413 L 144 393 Q 144 383 154 383 Z" opacity="0.2"/></g><g transform="translate(-127,-22) scale(1,1)"><path fill="#ffffff" stroke="none" d="M 147 376 L 418 376 Q 428 376 428 386 L 428 406 Q 428 416 418 416 L 147 416 Q 137 416 137 406 L 137 386 Q 137 376 147 376 Z"/></g><g transform="translate(-127,-22) scale(1,1)"><path fill="none" stroke="#000000" d="M 147 376 L 418 376 Q 428 376 428 386 L 428 406 Q 428 416 418 416 L 147 416 Q 137 416 137 406 L 137 386 Q 137 376 147 376 Z" stroke-miterlimit="10"/></g><g transform="translate(-127,-22) scale(1,1)"><g><path fill="none" stroke="none"/><text fill="#000000" stroke="none" font-family="Arial" font-size="13px" font-style="normal" font-weight="bold" text-decoration="none" x="155" y="395.5">Sugestor encaminha para a interface de uso</text></g></g><g transform="translate(-127,-22) scale(1,1)"><path fill="none" stroke="#000000" d="M 282 52 L 282 95" stroke-miterlimit="10"/></g><g transform="translate(-127,-22) scale(1,1)"><path fill="none" stroke="#000000" d="M 277.790482243984 84.83732514237585 L 282 95 L 286.209517756016 84.83732514237585" stroke-miterlimit="10"/></g><g transform="translate(-127,-22) scale(1,1)"><path fill="none" stroke="#000000" d="M 282 137 L 282 183" stroke-miterlimit="10"/></g><g transform="translate(-127,-22) scale(1,1)"><path fill="none" stroke="#000000" d="M 277.790482243984 172.83732514237585 L 282 183 L 286.209517756016 172.83732514237585" stroke-miterlimit="10"/></g><g transform="translate(-127,-22) scale(1,1)"><path fill="none" stroke="#000000" d="M 282 225 L 282 263" stroke-miterlimit="10"/></g><g transform="translate(-127,-22) scale(1,1)"><path fill="none" stroke="#000000" d="M 277.790482243984 252.83732514237585 L 282 263 L 286.209517756016 252.83732514237585" stroke-miterlimit="10"/></g><g transform="translate(-127,-22) scale(1,1)"><path fill="none" stroke="#000000" d="M 282 305 L 282 375" stroke-miterlimit="10"/></g><g transform="translate(-127,-22) scale(1,1)"><path fill="none" stroke="#000000" d="M 277.790482243984 364.83732514237585 L 282 375 L 286.209517756016 364.83732514237585" stroke-miterlimit="10"/></g><g transform="translate(-127,-22) scale(1,1)"><path fill="none" stroke="#000000" d="M 282 417 L 282 487" stroke-miterlimit="10"/></g><g transform="translate(-127,-22) scale(1,1)"><path fill="none" stroke="#000000" d="M 277.790482243984 476.83732514237585 L 282 487 L 286.209517756016 476.83732514237585" stroke-miterlimit="10"/></g></g></svg>