<svg version="1.1" xmlns="http://www.w3.org/2000/svg" xmlns:xlink="http://www.w3.org/1999/xlink" width="403" height="333"><defs/><g><g transform="translate(-654,-102) scale(1,1)"><path fill="#C0C0C0" stroke="none" d="M 853 128.5 C 853 123.2532944 857.2532944 119 862.5 119 C 867.7467056 119 872 123.2532944 872 128.5 C 872 133.7467056 867.7467056 138 862.5 138 C 857.2532944 138 853 133.7467056 853 128.5 Z" opacity="0.2"/></g><g transform="translate(-654,-102) scale(1,1)"><path fill="#000000" stroke="none" d="M 846 121.5 C 846 116.2532944 850.2532944 112 855.5 112 C 860.7467056 112 865 116.2532944 865 121.5 C 865 126.7467056 860.7467056 131 855.5 131 C 850.2532944 131 846 126.7467056 846 121.5 Z"/></g><g transform="translate(-654,-102) scale(1,1)"><path fill="#C0C0C0" stroke="none" d="M 850 419.5 C 850 412.59644 855.59644 407 862.5 407 C 869.40356 407 875 412.59644 875 419.5 C 875 426.40356 869.40356 432 862.5 432 C 855.59644 432 850 426.40356 850 419.5 Z" opacity="0.2"/></g><g transform="translate(-654,-102) scale(1,1)"><path fill="none" stroke="#000000" d="M 843 412.5 C 843 405.59644 848.59644 400 855.5 400 C 862.40356 400 868 405.59644 868 412.5 C 868 419.40356 862.40356 425 855.5 425 C 848.59644 425 843 419.40356 843 412.5 Z" stroke-miterlimit="10"/></g><g transform="translate(-654,-102) scale(1,1)"><path fill="#000000" stroke="none" d="M 848 412.5 C 848 408.357864 851.357864 405 855.5 405 C 859.642136 405 863 408.357864 863 412.5 C 863 416.642136 859.642136 420 855.5 420 C 851.357864 420 848 416.642136 848 412.5 Z"/></g><g transform="translate(-654,-102) scale(1,1)"><path fill="#C0C0C0" stroke="none" d="M 753 239 L 971 239 Q 981 239 981 249 L 981 269 Q 981 279 971 279 L 753 279 Q 743 279 743 269 L 743 249 Q 743 239 753 239 Z" opacity="0.2"/></g><g transform="translate(-654,-102) scale(1,1)"><path fill="#ffffff" stroke="none" d="M 746 232 L 964 232 Q 974 232 974 242 L 974 262 Q 974 272 964 272 L 746 272 Q 736 272 736 262 L 736 242 Q 736 232 746 232 Z"/></g><g transform="translate(-654,-102) scale(1,1)"><path fill="none" stroke="#000000" d="M 746 232 L 964 232 Q 974 232 974 242 L 974 262 Q 974 272 964 272 L 746 272 Q 736 272 736 262 L 736 242 Q 736 232 746 232 Z" stroke-miterlimit="10"/></g><g transform="translate(-654,-102) scale(1,1)"><g><path fill="none" stroke="none"/><text fill="#000000" stroke="none" font-family="Arial" font-size="13px" font-style="normal" font-weight="bold" text-decoration="none" x="750" y="251.5">Gerenciador reproduz os sugestores</text></g></g><g transform="translate(-654,-102) scale(1,1)"><path fill="#C0C0C0" stroke="none" d="M 681 159 L 1044 159 Q 1054 159 1054 169 L 1054 189 Q 1054 199 1044 199 L 681 199 Q 671 199 671 189 L 671 169 Q 671 159 681 159 Z" opacity="0.2"/></g><g transform="translate(-654,-102) scale(1,1)"><path fill="#ffffff" stroke="none" d="M 674 152 L 1037 152 Q 1047 152 1047 162 L 1047 182 Q 1047 192 1037 192 L 674 192 Q 664 192 664 182 L 664 162 Q 664 152 674 152 Z"/></g><g transform="translate(-654,-102) scale(1,1)"><path fill="none" stroke="#000000" d="M 674 152 L 1037 152 Q 1047 152 1047 162 L 1047 182 Q 1047 192 1037 192 L 674 192 Q 664 192 664 182 L 664 162 Q 664 152 674 152 Z" stroke-miterlimit="10"/></g><g transform="translate(-654,-102) scale(1,1)"><g><path fill="none" stroke="none"/><text fill="#000000" stroke="none" font-family="Arial" font-size="13px" font-style="normal" font-weight="bold" text-decoration="none" x="687" y="171.5">Gerenciador elimina os sugestores com baixa acertividade</text></g></g><g transform="translate(-654,-102) scale(1,1)"><path fill="#C0C0C0" stroke="none" d="M 732 311 L 992 311 Q 1002 311 1002 321 L 1002 341 Q 1002 351 992 351 L 732 351 Q 722 351 722 341 L 722 321 Q 722 311 732 311 Z" opacity="0.2"/></g><g transform="translate(-654,-102) scale(1,1)"><path fill="#ffffff" stroke="none" d="M 725 304 L 985 304 Q 995 304 995 314 L 995 334 Q 995 344 985 344 L 725 344 Q 715 344 715 334 L 715 314 Q 715 304 725 304 Z"/></g><g transform="translate(-654,-102) scale(1,1)"><path fill="none" stroke="#000000" d="M 725 304 L 985 304 Q 995 304 995 314 L 995 334 Q 995 344 985 344 L 725 344 Q 715 344 715 334 L 715 314 Q 715 304 725 304 Z" stroke-miterlimit="10"/></g><g transform="translate(-654,-102) scale(1,1)"><g><path fill="none" stroke="none"/><text fill="#000000" stroke="none" font-family="Arial" font-size="13px" font-style="normal" font-weight="bold" text-decoration="none" x="730.5" y="323.5">Gerenciador muta o codigo dos sugestores</text></g></g><g transform="translate(-654,-102) scale(1,1)"><path fill="none" stroke="#000000" d="M 855 132 L 855 151" stroke-miterlimit="10"/></g><g transform="translate(-654,-102) scale(1,1)"><path fill="none" stroke="#000000" d="M 850.790482243984 140.83732514237585 L 855 151 L 859.209517756016 140.83732514237585" stroke-miterlimit="10"/></g><g transform="translate(-654,-102) scale(1,1)"><path fill="none" stroke="#000000" d="M 855 193 L 855 231" stroke-miterlimit="10"/></g><g transform="translate(-654,-102) scale(1,1)"><path fill="none" stroke="#000000" d="M 850.790482243984 220.83732514237585 L 855 231 L 859.209517756016 220.83732514237585" stroke-miterlimit="10"/></g><g transform="translate(-654,-102) scale(1,1)"><path fill="none" stroke="#000000" d="M 855 273 L 855 303" stroke-miterlimit="10"/></g><g transform="translate(-654,-102) scale(1,1)"><path fill="none" stroke="#000000" d="M 850.790482243984 292.83732514237585 L 855 303 L 859.209517756016 292.83732514237585" stroke-miterlimit="10"/></g><g transform="translate(-654,-102) scale(1,1)"><path fill="none" stroke="#000000" d="M 855 345 L 855 399" stroke-miterlimit="10"/></g><g transform="translate(-654,-102) scale(1,1)"><path fill="none" stroke="#000000" d="M 850.790482243984 388.83732514237585 L 855 399 L 859.209517756016 388.83732514237585" stroke-miterlimit="10"/></g></g></svg>