<svg version="1.1" xmlns="http://www.w3.org/2000/svg" xmlns:xlink="http://www.w3.org/1999/xlink" width="629" height="469"><defs/><g><g transform="translate(-94,-54) scale(1,1)"><path fill="#C0C0C0" stroke="none" d="M 444 80.5 C 444 75.2532944 448.2532944 71 453.5 71 C 458.7467056 71 463 75.2532944 463 80.5 C 463 85.7467056 458.7467056 90 453.5 90 C 448.2532944 90 444 85.7467056 444 80.5 Z" opacity="0.2"/></g><g transform="translate(-94,-54) scale(1,1)"><path fill="#000000" stroke="none" d="M 437 73.5 C 437 68.2532944 441.2532944 64 446.5 64 C 451.7467056 64 456 68.2532944 456 73.5 C 456 78.7467056 451.7467056 83 446.5 83 C 441.2532944 83 437 78.7467056 437 73.5 Z"/></g><g transform="translate(-94,-54) scale(1,1)"><path fill="#C0C0C0" stroke="none" d="M 639 507.5 C 639 500.59644 644.59644 495 651.5 495 C 658.40356 495 664 500.59644 664 507.5 C 664 514.40356 658.40356 520 651.5 520 C 644.59644 520 639 514.40356 639 507.5 Z" opacity="0.2"/></g><g transform="translate(-94,-54) scale(1,1)"><path fill="none" stroke="#000000" d="M 632 500.5 C 632 493.59644 637.59644 488 644.5 488 C 651.40356 488 657 493.59644 657 500.5 C 657 507.40356 651.40356 513 644.5 513 C 637.59644 513 632 507.40356 632 500.5 Z" stroke-miterlimit="10"/></g><g transform="translate(-94,-54) scale(1,1)"><path fill="#000000" stroke="none" d="M 637 500.5 C 637 496.357864 640.357864 493 644.5 493 C 648.642136 493 652 496.357864 652 500.5 C 652 504.642136 648.642136 508 644.5 508 C 640.357864 508 637 504.642136 637 500.5 Z"/></g><g transform="translate(-94,-54) scale(1,1)"><path fill="#C0C0C0" stroke="none" d="M 433 215.5 L 453.5 199 L 473 215.5 L 453.5 231 L 433 215.5" opacity="0.2"/></g><g transform="translate(-94,-54) scale(1,1)"><path fill="#ffffff" stroke="none" d="M 426 208 L 446 192 L 466 208 L 446 224 L 426 208"/></g><g transform="translate(-94,-54) scale(1,1)"><path fill="none" stroke="#000000" d="M 426 208 L 446 192 L 466 208 L 446 224 L 426 208 L 426 208" stroke-miterlimit="10"/></g><g transform="translate(-94,-54) scale(1,1)"><path fill="#C0C0C0" stroke="none" d="M 408 135 L 498.8798828125 135 Q 508.8798828125 135 508.8798828125 145 L 508.8798828125 165 Q 508.8798828125 175 498.8798828125 175 L 408 175 Q 398 175 398 165 L 398 145 Q 398 135 408 135 Z" opacity="0.2"/></g><g transform="translate(-94,-54) scale(1,1)"><path fill="#ffffff" stroke="none" d="M 401 128 L 491.8798828125 128 Q 501.8798828125 128 501.8798828125 138 L 501.8798828125 158 Q 501.8798828125 168 491.8798828125 168 L 401 168 Q 391 168 391 158 L 391 138 Q 391 128 401 128 Z"/></g><g transform="translate(-94,-54) scale(1,1)"><path fill="none" stroke="#000000" d="M 401 128 L 491.8798828125 128 Q 501.8798828125 128 501.8798828125 138 L 501.8798828125 158 Q 501.8798828125 168 491.8798828125 168 L 401 168 Q 391 168 391 158 L 391 138 Q 391 128 401 128 Z" stroke-miterlimit="10"/></g><g transform="translate(-94,-54) scale(1,1)"><g><path fill="none" stroke="none"/><text fill="#000000" stroke="none" font-family="Arial" font-size="13px" font-style="normal" font-weight="bold" text-decoration="none" x="398.43994140625" y="147.5">É nova sessão ?</text></g></g><g transform="translate(-94,-54) scale(1,1)"><path fill="#C0C0C0" stroke="none" d="M 121 321 L 394 321 Q 404 321 404 331 L 404 351 Q 404 361 394 361 L 121 361 Q 111 361 111 351 L 111 331 Q 111 321 121 321 Z" opacity="0.2"/></g><g transform="translate(-94,-54) scale(1,1)"><path fill="#ffffff" stroke="none" d="M 114 314 L 387 314 Q 397 314 397 324 L 397 344 Q 397 354 387 354 L 114 354 Q 104 354 104 344 L 104 324 Q 104 314 114 314 Z"/></g><g transform="translate(-94,-54) scale(1,1)"><path fill="none" stroke="#000000" d="M 114 314 L 387 314 Q 397 314 397 324 L 397 344 Q 397 354 387 354 L 114 354 Q 104 354 104 344 L 104 324 Q 104 314 114 314 Z" stroke-miterlimit="10"/></g><g transform="translate(-94,-54) scale(1,1)"><g><path fill="none" stroke="none"/><text fill="#000000" stroke="none" font-family="Arial" font-size="13px" font-style="normal" font-weight="bold" text-decoration="none" x="119.5" y="333.5">Atualiza a sessão e insere o trecho no banco</text></g></g><g transform="translate(-94,-54) scale(1,1)"><path fill="#C0C0C0" stroke="none" d="M 593 321 L 710 321 Q 720 321 720 331 L 720 351 Q 720 361 710 361 L 593 361 Q 583 361 583 351 L 583 331 Q 583 321 593 321 Z" opacity="0.2"/></g><g transform="translate(-94,-54) scale(1,1)"><path fill="#ffffff" stroke="none" d="M 586 314 L 703 314 Q 713 314 713 324 L 713 344 Q 713 354 703 354 L 586 354 Q 576 354 576 344 L 576 324 Q 576 314 586 314 Z"/></g><g transform="translate(-94,-54) scale(1,1)"><path fill="none" stroke="#000000" d="M 586 314 L 703 314 Q 713 314 713 324 L 713 344 Q 713 354 703 354 L 586 354 Q 576 354 576 344 L 576 324 Q 576 314 586 314 Z" stroke-miterlimit="10"/></g><g transform="translate(-94,-54) scale(1,1)"><g><path fill="none" stroke="none"/><text fill="#000000" stroke="none" font-family="Insere Trecho no banco" font-size="13px" font-style="normal" font-weight="bold" text-decoration="none" x="583" y="333.5">Insere trecho no banco</text></g></g><g transform="translate(-94,-54) scale(1,1)"><path fill="none" stroke="#000000" d="M 446 84 L 446 127" stroke-miterlimit="10"/></g><g transform="translate(-94,-54) scale(1,1)"><path fill="none" stroke="#000000" d="M 441.790482243984 116.83732514237585 L 446 127 L 450.209517756016 116.83732514237585" stroke-miterlimit="10"/></g><g transform="translate(-94,-54) scale(1,1)"><path fill="none" stroke="#000000" d="M 425 208 L 248 208 L 250 313" stroke-miterlimit="10"/></g><g transform="translate(-94,-54) scale(1,1)"><path fill="none" stroke="#000000" d="M 245.59770601445229 302.91933495919983 L 250 313 L 254.01521467926244 302.7590014608225" stroke-miterlimit="10"/></g><g transform="translate(-94,-54) scale(1,1)"><g><path fill="none" stroke="none"/><text fill="#000000" stroke="none" font-family="Arial" font-size="13px" font-style="normal" font-weight="normal" text-decoration="none" x="255" y="221">Não</text></g></g><g transform="translate(-94,-54) scale(1,1)"><path fill="none" stroke="#000000" d="M 467 208 L 640 208 L 643 313" stroke-miterlimit="10"/></g><g transform="translate(-94,-54) scale(1,1)"><path fill="none" stroke="#000000" d="M 638.5019556671291 302.96169351038094 L 643 313 L 646.9175569405878 302.7212477597107" stroke-miterlimit="10"/></g><g transform="translate(-94,-54) scale(1,1)"><g><path fill="none" stroke="none"/><text fill="#000000" stroke="none" font-family="Arial" font-size="13px" font-style="normal" font-weight="normal" text-decoration="none" x="618" y="221">Sim</text></g></g><g transform="translate(-94,-54) scale(1,1)"><path fill="none" stroke="#000000" d="M 446 169 L 446 191" stroke-miterlimit="10"/></g><g transform="translate(-94,-54) scale(1,1)"><path fill="none" stroke="#000000" d="M 441.790482243984 180.83732514237585 L 446 191 L 450.209517756016 180.83732514237585" stroke-miterlimit="10"/></g><g transform="translate(-94,-54) scale(1,1)"><path fill="none" stroke="#000000" d="M 644 355 L 644 487" stroke-miterlimit="10"/></g><g transform="translate(-94,-54) scale(1,1)"><path fill="none" stroke="#000000" d="M 639.790482243984 476.83732514237585 L 644 487 L 648.209517756016 476.83732514237585" stroke-miterlimit="10"/></g><g transform="translate(-94,-54) scale(1,1)"><path fill="#C0C0C0" stroke="none" d="M 245 507.5 C 245 500.59644 250.59644 495 257.5 495 C 264.40356 495 270 500.59644 270 507.5 C 270 514.40356 264.40356 520 257.5 520 C 250.59644 520 245 514.40356 245 507.5 Z" opacity="0.2"/></g><g transform="translate(-94,-54) scale(1,1)"><path fill="none" stroke="#000000" d="M 238 500.5 C 238 493.59644 243.59644 488 250.5 488 C 257.40356 488 263 493.59644 263 500.5 C 263 507.40356 257.40356 513 250.5 513 C 243.59644 513 238 507.40356 238 500.5 Z" stroke-miterlimit="10"/></g><g transform="translate(-94,-54) scale(1,1)"><path fill="#000000" stroke="none" d="M 243 500.5 C 243 496.357864 246.357864 493 250.5 493 C 254.642136 493 258 496.357864 258 500.5 C 258 504.642136 254.642136 508 250.5 508 C 246.357864 508 243 504.642136 243 500.5 Z"/></g><g transform="translate(-94,-54) scale(1,1)"><path fill="none" stroke="#000000" d="M 250 355 L 250 487" stroke-miterlimit="10"/></g><g transform="translate(-94,-54) scale(1,1)"><path fill="none" stroke="#000000" d="M 245.790482243984 476.83732514237585 L 250 487 L 254.209517756016 476.83732514237585" stroke-miterlimit="10"/></g></g></svg>