<svg version="1.1" xmlns="http://www.w3.org/2000/svg" xmlns:xlink="http://www.w3.org/1999/xlink" width="640" height="341"><defs/><g><g transform="translate(-61,-78) scale(1,1)"><path fill="#C0C0C0" stroke="none" d="M 379 104.5 C 379 99.2532944 383.2532944 95 388.5 95 C 393.7467056 95 398 99.2532944 398 104.5 C 398 109.7467056 393.7467056 114 388.5 114 C 383.2532944 114 379 109.7467056 379 104.5 Z" opacity="0.2"/></g><g transform="translate(-61,-78) scale(1,1)"><path fill="#000000" stroke="none" d="M 372 97.5 C 372 92.2532944 376.2532944 88 381.5 88 C 386.7467056 88 391 92.2532944 391 97.5 C 391 102.7467056 386.7467056 107 381.5 107 C 376.2532944 107 372 102.7467056 372 97.5 Z"/></g><g transform="translate(-61,-78) scale(1,1)"><path fill="#C0C0C0" stroke="none" d="M 376 403.5 C 376 396.59644 381.59644 391 388.5 391 C 395.40356 391 401 396.59644 401 403.5 C 401 410.40356 395.40356 416 388.5 416 C 381.59644 416 376 410.40356 376 403.5 Z" opacity="0.2"/></g><g transform="translate(-61,-78) scale(1,1)"><path fill="none" stroke="#000000" d="M 369 396.5 C 369 389.59644 374.59644 384 381.5 384 C 388.40356 384 394 389.59644 394 396.5 C 394 403.40356 388.40356 409 381.5 409 C 374.59644 409 369 403.40356 369 396.5 Z" stroke-miterlimit="10"/></g><g transform="translate(-61,-78) scale(1,1)"><path fill="#000000" stroke="none" d="M 374 396.5 C 374 392.357864 377.357864 389 381.5 389 C 385.642136 389 389 392.357864 389 396.5 C 389 400.642136 385.642136 404 381.5 404 C 377.357864 404 374 400.642136 374 396.5 Z"/></g><g transform="translate(-61,-78) scale(1,1)"><path fill="#C0C0C0" stroke="none" d="M 88 247 L 688 247 Q 698 247 698 257 L 698 277 Q 698 287 688 287 L 88 287 Q 78 287 78 277 L 78 257 Q 78 247 88 247 Z" opacity="0.2"/></g><g transform="translate(-61,-78) scale(1,1)"><path fill="#ffffff" stroke="none" d="M 81 240 L 681 240 Q 691 240 691 250 L 691 270 Q 691 280 681 280 L 81 280 Q 71 280 71 270 L 71 250 Q 71 240 81 240 Z"/></g><g transform="translate(-61,-78) scale(1,1)"><path fill="none" stroke="#000000" d="M 81 240 L 681 240 Q 691 240 691 250 L 691 270 Q 691 280 681 280 L 81 280 Q 71 280 71 270 L 71 250 Q 71 240 81 240 Z" stroke-miterlimit="10"/></g><g transform="translate(-61,-78) scale(1,1)"><g><path fill="none" stroke="none"/><text fill="#000000" stroke="none" font-family="Arial" font-size="13px" font-style="normal" font-weight="bold" text-decoration="none" x="107" y="259.5">Gerenciador envia o trecho de texto digitado pelo usuário para as entidades ativas no momento</text></g></g><g transform="translate(-61,-78) scale(1,1)"><path fill="none" stroke="#000000" d="M 381 108 L 381 239" stroke-miterlimit="10"/></g><g transform="translate(-61,-78) scale(1,1)"><path fill="none" stroke="#000000" d="M 376.790482243984 228.83732514237585 L 381 239 L 385.209517756016 228.83732514237585" stroke-miterlimit="10"/></g><g transform="translate(-61,-78) scale(1,1)"><path fill="none" stroke="#000000" d="M 381 281 L 381 383" stroke-miterlimit="10"/></g><g transform="translate(-61,-78) scale(1,1)"><path fill="none" stroke="#000000" d="M 376.790482243984 372.83732514237585 L 381 383 L 385.209517756016 372.83732514237585" stroke-miterlimit="10"/></g></g></svg>