<svg version="1.1" xmlns="http://www.w3.org/2000/svg" xmlns:xlink="http://www.w3.org/1999/xlink" width="1218" height="629"><defs/><g><g transform="translate(-1373,-142) scale(1,1)"><path fill="#C0C0C0" stroke="none" d="M 1985 168.5 C 1985 163.2532944 1989.2532944 159 1994.5 159 C 1999.7467056 159 2004 163.2532944 2004 168.5 C 2004 173.7467056 1999.7467056 178 1994.5 178 C 1989.2532944 178 1985 173.7467056 1985 168.5 Z" opacity="0.2"/></g><g transform="translate(-1373,-142) scale(1,1)"><path fill="#000000" stroke="none" d="M 1978 161.5 C 1978 156.2532944 1982.2532944 152 1987.5 152 C 1992.7467056 152 1997 156.2532944 1997 161.5 C 1997 166.7467056 1992.7467056 171 1987.5 171 C 1982.2532944 171 1978 166.7467056 1978 161.5 Z"/></g><g transform="translate(-1373,-142) scale(1,1)"><path fill="#C0C0C0" stroke="none" d="M 2313 755.5 C 2313 748.59644 2318.59644 743 2325.5 743 C 2332.40356 743 2338 748.59644 2338 755.5 C 2338 762.40356 2332.40356 768 2325.5 768 C 2318.59644 768 2313 762.40356 2313 755.5 Z" opacity="0.2"/></g><g transform="translate(-1373,-142) scale(1,1)"><path fill="none" stroke="#000000" d="M 2306 748.5 C 2306 741.59644 2311.59644 736 2318.5 736 C 2325.40356 736 2331 741.59644 2331 748.5 C 2331 755.40356 2325.40356 761 2318.5 761 C 2311.59644 761 2306 755.40356 2306 748.5 Z" stroke-miterlimit="10"/></g><g transform="translate(-1373,-142) scale(1,1)"><path fill="#000000" stroke="none" d="M 2311 748.5 C 2311 744.357864 2314.357864 741 2318.5 741 C 2322.642136 741 2326 744.357864 2326 748.5 C 2326 752.642136 2322.642136 756 2318.5 756 C 2314.357864 756 2311 752.642136 2311 748.5 Z"/></g><g transform="translate(-1373,-142) scale(1,1)"><path fill="#C0C0C0" stroke="none" d="M 1523 207 L 2465 207 Q 2475 207 2475 217 L 2475 237 Q 2475 247 2465 247 L 1523 247 Q 1513 247 1513 237 L 1513 217 Q 1513 207 1523 207 Z" opacity="0.2"/></g><g transform="translate(-1373,-142) scale(1,1)"><path fill="#ffffff" stroke="none" d="M 1516 200 L 2458 200 Q 2468 200 2468 210 L 2468 230 Q 2468 240 2458 240 L 1516 240 Q 1506 240 1506 230 L 1506 210 Q 1506 200 1516 200 Z"/></g><g transform="translate(-1373,-142) scale(1,1)"><path fill="none" stroke="#000000" d="M 1516 200 L 2458 200 Q 2468 200 2468 210 L 2468 230 Q 2468 240 2458 240 L 1516 240 Q 1506 240 1506 230 L 1506 210 Q 1506 200 1516 200 Z" stroke-miterlimit="10"/></g><g transform="translate(-1373,-142) scale(1,1)"><g><path fill="none" stroke="none"/><text fill="#000000" stroke="none" font-family="Arial" font-size="13px" font-style="normal" font-weight="bold" text-decoration="none" x="1560.5" y="219.5">Gerenciador define grupos de reproducao onde cada grupo tem dois ou mais  individuos e um mesmo individuo pode participar de mais de um grupo</text></g></g><g transform="translate(-1373,-142) scale(1,1)"><path fill="#C0C0C0" stroke="none" d="M 1448 303 L 2540 303 Q 2550 303 2550 313 L 2550 333 Q 2550 343 2540 343 L 1448 343 Q 1438 343 1438 333 L 1438 313 Q 1438 303 1448 303 Z" opacity="0.2"/></g><g transform="translate(-1373,-142) scale(1,1)"><path fill="#ffffff" stroke="none" d="M 1441 296 L 2533 296 Q 2543 296 2543 306 L 2543 326 Q 2543 336 2533 336 L 1441 336 Q 1431 336 1431 326 L 1431 306 Q 1431 296 1441 296 Z"/></g><g transform="translate(-1373,-142) scale(1,1)"><path fill="none" stroke="#000000" d="M 1441 296 L 2533 296 Q 2543 296 2543 306 L 2543 326 Q 2543 336 2533 336 L 1441 336 Q 1431 336 1431 326 L 1431 306 Q 1431 296 1441 296 Z" stroke-miterlimit="10"/></g><g transform="translate(-1373,-142) scale(1,1)"><g><path fill="none" stroke="none"/><text fill="#000000" stroke="none" font-family="Arial" font-size="13px" font-style="normal" font-weight="bold" text-decoration="none" x="1489.5" y="315.5">Sugestor mescla randomicamente o codigo dos individuos do grupo formando a mesma quantidade de novos individuos mais um numero randomico entre menos dois e dois</text></g></g><g transform="translate(-1373,-142) scale(1,1)"><path fill="#C0C0C0" stroke="none" d="M 1829 367 L 2159 367 Q 2169 367 2169 377 L 2169 397 Q 2169 407 2159 407 L 1829 407 Q 1819 407 1819 397 L 1819 377 Q 1819 367 1829 367 Z" opacity="0.2"/></g><g transform="translate(-1373,-142) scale(1,1)"><path fill="#ffffff" stroke="none" d="M 1822 360 L 2152 360 Q 2162 360 2162 370 L 2162 390 Q 2162 400 2152 400 L 1822 400 Q 1812 400 1812 390 L 1812 370 Q 1812 360 1822 360 Z"/></g><g transform="translate(-1373,-142) scale(1,1)"><path fill="none" stroke="#000000" d="M 1822 360 L 2152 360 Q 2162 360 2162 370 L 2162 390 Q 2162 400 2152 400 L 1822 400 Q 1812 400 1812 390 L 1812 370 Q 1812 360 1822 360 Z" stroke-miterlimit="10"/></g><g transform="translate(-1373,-142) scale(1,1)"><g><path fill="none" stroke="none"/><text fill="#000000" stroke="none" font-family="Arial" font-size="13px" font-style="normal" font-weight="bold" text-decoration="none" x="1829.5" y="379.5">Na fase de eliminacao foram eliminados 40% ou 60%?</text></g></g><g transform="translate(-1373,-142) scale(1,1)"><path fill="#C0C0C0" stroke="none" d="M 1983 520.5 L 1994.5 511 L 2005 520.5 L 1994.5 529 L 1983 520.5" opacity="0.2"/></g><g transform="translate(-1373,-142) scale(1,1)"><path fill="#ffffff" stroke="none" d="M 1976 513 L 1987 504 L 1998 513 L 1987 522 L 1976 513"/></g><g transform="translate(-1373,-142) scale(1,1)"><path fill="none" stroke="#000000" d="M 1976 513 L 1987 504 L 1998 513 L 1987 522 L 1976 513 L 1976 513" stroke-miterlimit="10"/></g><g transform="translate(-1373,-142) scale(1,1)"><path fill="#C0C0C0" stroke="none" d="M 1400 612 L 1906 612 Q 1916 612 1916 622 L 1916 642 Q 1916 652 1906 652 L 1400 652 Q 1390 652 1390 642 L 1390 622 Q 1390 612 1400 612 Z" opacity="0.2"/></g><g transform="translate(-1373,-142) scale(1,1)"><path fill="#ffffff" stroke="none" d="M 1393 605 L 1899 605 Q 1909 605 1909 615 L 1909 635 Q 1909 645 1899 645 L 1393 645 Q 1383 645 1383 635 L 1383 615 Q 1383 605 1393 605 Z"/></g><g transform="translate(-1373,-142) scale(1,1)"><path fill="none" stroke="#000000" d="M 1393 605 L 1899 605 Q 1909 605 1909 615 L 1909 635 Q 1909 645 1899 645 L 1393 645 Q 1383 645 1383 635 L 1383 615 Q 1383 605 1393 605 Z" stroke-miterlimit="10"/></g><g transform="translate(-1373,-142) scale(1,1)"><g><path fill="none" stroke="none"/><text fill="#000000" stroke="none" font-family="Arial" font-size="13px" font-style="normal" font-weight="bold" text-decoration="none" x="1409.5" y="624.5">Muta 20% dos individuos aleatoriamente. Adicionando ou subistituindo estruturas.</text></g></g><g transform="translate(-1373,-142) scale(1,1)"><path fill="#C0C0C0" stroke="none" d="M 2072 612 L 2578 612 Q 2588 612 2588 622 L 2588 642 Q 2588 652 2578 652 L 2072 652 Q 2062 652 2062 642 L 2062 622 Q 2062 612 2072 612 Z" opacity="0.2"/></g><g transform="translate(-1373,-142) scale(1,1)"><path fill="#ffffff" stroke="none" d="M 2065 605 L 2571 605 Q 2581 605 2581 615 L 2581 635 Q 2581 645 2571 645 L 2065 645 Q 2055 645 2055 635 L 2055 615 Q 2055 605 2065 605 Z"/></g><g transform="translate(-1373,-142) scale(1,1)"><path fill="none" stroke="#000000" d="M 2065 605 L 2571 605 Q 2581 605 2581 615 L 2581 635 Q 2581 645 2571 645 L 2065 645 Q 2055 645 2055 635 L 2055 615 Q 2055 605 2065 605 Z" stroke-miterlimit="10"/></g><g transform="translate(-1373,-142) scale(1,1)"><g><path fill="none" stroke="none"/><text fill="#000000" stroke="none" font-family="Arial" font-size="13px" font-style="normal" font-weight="bold" text-decoration="none" x="2081.5" y="624.5">Muta 10% dos individuos aleatoriamente. Adicionando ou subistituindo estruturas.</text></g></g><g transform="translate(-1373,-142) scale(1,1)"><path fill="#C0C0C0" stroke="none" d="M 1641 755.5 C 1641 748.59644 1646.59644 743 1653.5 743 C 1660.40356 743 1666 748.59644 1666 755.5 C 1666 762.40356 1660.40356 768 1653.5 768 C 1646.59644 768 1641 762.40356 1641 755.5 Z" opacity="0.2"/></g><g transform="translate(-1373,-142) scale(1,1)"><path fill="none" stroke="#000000" d="M 1634 748.5 C 1634 741.59644 1639.59644 736 1646.5 736 C 1653.40356 736 1659 741.59644 1659 748.5 C 1659 755.40356 1653.40356 761 1646.5 761 C 1639.59644 761 1634 755.40356 1634 748.5 Z" stroke-miterlimit="10"/></g><g transform="translate(-1373,-142) scale(1,1)"><path fill="#000000" stroke="none" d="M 1639 748.5 C 1639 744.357864 1642.357864 741 1646.5 741 C 1650.642136 741 1654 744.357864 1654 748.5 C 1654 752.642136 1650.642136 756 1646.5 756 C 1642.357864 756 1639 752.642136 1639 748.5 Z"/></g><g transform="translate(-1373,-142) scale(1,1)"><path fill="none" stroke="#000000" d="M 1646 646 L 1646 735" stroke-miterlimit="10"/></g><g transform="translate(-1373,-142) scale(1,1)"><path fill="none" stroke="#000000" d="M 1641.7904822439841 724.8373251423759 L 1646 735 L 1650.2095177560159 724.8373251423759" stroke-miterlimit="10"/></g><g transform="translate(-1373,-142) scale(1,1)"><path fill="none" stroke="#000000" d="M 1975 513 L 1648 512 L 1646 604" stroke-miterlimit="10"/></g><g transform="translate(-1373,-142) scale(1,1)"><path fill="none" stroke="#000000" d="M 1642.0123521078249 593.7482360401718 L 1646 604 L 1650.429398949577 593.9312153193404" stroke-miterlimit="10"/></g><g transform="translate(-1373,-142) scale(1,1)"><g><path fill="none" stroke="none"/><text fill="#000000" stroke="none" font-family="Arial" font-size="13px" font-style="normal" font-weight="normal" text-decoration="none" x="1615" y="518">40%</text></g></g><g transform="translate(-1373,-142) scale(1,1)"><path fill="none" stroke="#000000" d="M 1999 513 L 2320 512 L 2318 604" stroke-miterlimit="10"/></g><g transform="translate(-1373,-142) scale(1,1)"><path fill="none" stroke="#000000" d="M 2314.012352107825 593.7482360401718 L 2318 604 L 2322.4293989495773 593.9312153193404" stroke-miterlimit="10"/></g><g transform="translate(-1373,-142) scale(1,1)"><g><path fill="none" stroke="none"/><text fill="#000000" stroke="none" font-family="Arial" font-size="13px" font-style="normal" font-weight="normal" text-decoration="none" x="2321" y="519">60%</text></g></g><g transform="translate(-1373,-142) scale(1,1)"><path fill="none" stroke="#000000" d="M 2318 646 L 2318 735" stroke-miterlimit="10"/></g><g transform="translate(-1373,-142) scale(1,1)"><path fill="none" stroke="#000000" d="M 2313.790482243984 724.8373251423759 L 2318 735 L 2322.209517756016 724.8373251423759" stroke-miterlimit="10"/></g><g transform="translate(-1373,-142) scale(1,1)"><path fill="none" stroke="#000000" d="M 1987 172 L 1987 199" stroke-miterlimit="10"/></g><g transform="translate(-1373,-142) scale(1,1)"><path fill="none" stroke="#000000" d="M 1982.7904822439841 188.83732514237585 L 1987 199 L 1991.2095177560159 188.83732514237585" stroke-miterlimit="10"/></g><g transform="translate(-1373,-142) scale(1,1)"><path fill="none" stroke="#000000" d="M 1987 241 L 1987 295" stroke-miterlimit="10"/></g><g transform="translate(-1373,-142) scale(1,1)"><path fill="none" stroke="#000000" d="M 1982.7904822439841 284.83732514237585 L 1987 295 L 1991.2095177560159 284.83732514237585" stroke-miterlimit="10"/></g><g transform="translate(-1373,-142) scale(1,1)"><path fill="none" stroke="#000000" d="M 1987 337 L 1987 359" stroke-miterlimit="10"/></g><g transform="translate(-1373,-142) scale(1,1)"><path fill="none" stroke="#000000" d="M 1982.7904822439841 348.83732514237585 L 1987 359 L 1991.2095177560159 348.83732514237585" stroke-miterlimit="10"/></g><g transform="translate(-1373,-142) scale(1,1)"><path fill="none" stroke="#000000" d="M 1987 401 L 1987 503" stroke-miterlimit="10"/></g><g transform="translate(-1373,-142) scale(1,1)"><path fill="none" stroke="#000000" d="M 1982.7904822439841 492.83732514237585 L 1987 503 L 1991.2095177560159 492.83732514237585" stroke-miterlimit="10"/></g></g></svg>