<svg version="1.1" xmlns="http://www.w3.org/2000/svg" xmlns:xlink="http://www.w3.org/1999/xlink" width="1229" height="549"><defs/><g><g transform="translate(-158,-94) scale(1,1)"><path fill="#ffffff" stroke="none" d="M 219.02116672585228 135.68 C 219.02116672585228 130.886167936 222.90700905079774 127 227.700439453125 127 C 232.49386985545226 127 236.37971218039772 130.886167936 236.37971218039772 135.68 C 236.37971218039772 140.47383206400002 232.49386985545226 144.36 227.700439453125 144.36 C 222.90700905079774 144.36 219.02116672585228 140.47383206400002 219.02116672585228 135.68 Z"/></g><g transform="translate(-158,-94) scale(1,1)"><path fill="none" stroke="#000000" d="M 219.02116672585228 135.68 C 219.02116672585228 130.886167936 222.90700905079774 127 227.700439453125 127 C 232.49386985545226 127 236.37971218039772 130.886167936 236.37971218039772 135.68 C 236.37971218039772 140.47383206400002 232.49386985545226 144.36 227.700439453125 144.36 C 222.90700905079774 144.36 219.02116672585228 140.47383206400002 219.02116672585228 135.68 Z" stroke-miterlimit="10"/></g><g transform="translate(-158,-94) scale(1,1)"><path fill="none" stroke="#000000" d="M 227.700439453125 144.36 L 227.700439453125 161.64" stroke-miterlimit="10"/></g><g transform="translate(-158,-94) scale(1,1)"><path fill="none" stroke="#000000" d="M 218.51062127130683 150.84 L 236.89025763494317 150.84" stroke-miterlimit="10"/></g><g transform="translate(-158,-94) scale(1,1)"><path fill="none" stroke="#000000" d="M 227.700439453125 161.64 L 214.93680308948865 179" stroke-miterlimit="10"/></g><g transform="translate(-158,-94) scale(1,1)"><path fill="none" stroke="#000000" d="M 227.700439453125 161.64 L 240.46407581676135 179" stroke-miterlimit="10"/></g><g transform="translate(-158,-94) scale(1,1)"><g><path fill="none" stroke="none"/><text fill="#000000" stroke="none" font-family="Arial" font-size="13px" font-style="normal" font-weight="bold" text-decoration="none" x="205.302734375" y="199.5">Usuário</text></g></g><g transform="translate(-158,-94) scale(1,1)"><path fill="#C0C0C0" stroke="none" d="M 370 172 C 370 162.6111584 415.6669504 155 472 155 C 528.3330496 155 574 162.6111584 574 172 C 574 181.3888416 528.3330496 189 472 189 C 415.6669504 189 370 181.3888416 370 172 Z" opacity="0.2"/></g><g transform="translate(-158,-94) scale(1,1)"><path fill="#ffffff" stroke="none" d="M 363 165 C 363 155.6111584 408.6669504 148 465 148 C 521.3330496 148 567 155.6111584 567 165 C 567 174.3888416 521.3330496 182 465 182 C 408.6669504 182 363 174.3888416 363 165 Z"/></g><g transform="translate(-158,-94) scale(1,1)"><path fill="none" stroke="#000000" d="M 363 165 C 363 155.6111584 408.6669504 148 465 148 C 521.3330496 148 567 155.6111584 567 165 C 567 174.3888416 521.3330496 182 465 182 C 408.6669504 182 363 174.3888416 363 165 Z" stroke-miterlimit="10"/></g><g transform="translate(-158,-94) scale(1,1)"><g><path fill="none" stroke="none"/><text fill="#000000" stroke="none" font-family="Arial" font-size="13px" font-style="normal" font-weight="bold" text-decoration="none" x="402.129638671875" y="172">Insere trecho de texto</text></g></g><g transform="translate(-158,-94) scale(1,1)"><path fill="none" stroke="#000000" d="M 225 125 L 224 104 L 464 104 L 465 147" stroke-miterlimit="10"/></g><g transform="translate(-158,-94) scale(1,1)"><path fill="#ffffff" stroke="none" d="M 219.08024875710228 353.68 C 219.08024875710228 348.886167936 222.96609108204774 345 227.759521484375 345 C 232.55295188670226 345 236.43879421164772 348.886167936 236.43879421164772 353.68 C 236.43879421164772 358.473832064 232.55295188670226 362.36 227.759521484375 362.36 C 222.96609108204774 362.36 219.08024875710228 358.473832064 219.08024875710228 353.68 Z"/></g><g transform="translate(-158,-94) scale(1,1)"><path fill="none" stroke="#000000" d="M 219.08024875710228 353.68 C 219.08024875710228 348.886167936 222.96609108204774 345 227.759521484375 345 C 232.55295188670226 345 236.43879421164772 348.886167936 236.43879421164772 353.68 C 236.43879421164772 358.473832064 232.55295188670226 362.36 227.759521484375 362.36 C 222.96609108204774 362.36 219.08024875710228 358.473832064 219.08024875710228 353.68 Z" stroke-miterlimit="10"/></g><g transform="translate(-158,-94) scale(1,1)"><path fill="none" stroke="#000000" d="M 227.759521484375 362.36 L 227.759521484375 379.64" stroke-miterlimit="10"/></g><g transform="translate(-158,-94) scale(1,1)"><path fill="none" stroke="#000000" d="M 218.56970330255683 368.84 L 236.94933966619317 368.84" stroke-miterlimit="10"/></g><g transform="translate(-158,-94) scale(1,1)"><path fill="none" stroke="#000000" d="M 227.759521484375 379.64 L 214.99588512073865 397" stroke-miterlimit="10"/></g><g transform="translate(-158,-94) scale(1,1)"><path fill="none" stroke="#000000" d="M 227.759521484375 379.64 L 240.52315784801135 397" stroke-miterlimit="10"/></g><g transform="translate(-158,-94) scale(1,1)"><g><path fill="none" stroke="none"/><text fill="#000000" stroke="none" font-family="Arial" font-size="13px" font-style="normal" font-weight="bold" text-decoration="none" x="176.457763671875" y="417.5">Usuário Simulado</text></g></g><g transform="translate(-158,-94) scale(1,1)"><path fill="none" stroke="#000000" d="M 227 343 L 227 206" stroke-miterlimit="10"/></g><g transform="translate(-158,-94) scale(1,1)"><path fill="#FFFFFF" stroke="none" d="M 235.41903551203197 226.3253497152483 L 227 206 L 218.58096448796803 226.3253497152483"/></g><g transform="translate(-158,-94) scale(1,1)"><path fill="none" stroke="#000000" d="M 235.41903551203197 226.3253497152483 L 227 206 L 218.58096448796803 226.3253497152483 L 235.41903551203197 226.3253497152483" stroke-miterlimit="10"/></g><g transform="translate(-158,-94) scale(1,1)"><path fill="#ffffff" stroke="none" d="M 1050.1129636008523 289.68 C 1050.1129636008523 284.886167936 1053.9988059257978 281 1058.792236328125 281 C 1063.5856667304522 281 1067.4715090553977 284.886167936 1067.4715090553977 289.68 C 1067.4715090553977 294.473832064 1063.5856667304522 298.36 1058.792236328125 298.36 C 1053.9988059257978 298.36 1050.1129636008523 294.473832064 1050.1129636008523 289.68 Z"/></g><g transform="translate(-158,-94) scale(1,1)"><path fill="none" stroke="#000000" d="M 1050.1129636008523 289.68 C 1050.1129636008523 284.886167936 1053.9988059257978 281 1058.792236328125 281 C 1063.5856667304522 281 1067.4715090553977 284.886167936 1067.4715090553977 289.68 C 1067.4715090553977 294.473832064 1063.5856667304522 298.36 1058.792236328125 298.36 C 1053.9988059257978 298.36 1050.1129636008523 294.473832064 1050.1129636008523 289.68 Z" stroke-miterlimit="10"/></g><g transform="translate(-158,-94) scale(1,1)"><path fill="none" stroke="#000000" d="M 1058.792236328125 298.36 L 1058.792236328125 315.64" stroke-miterlimit="10"/></g><g transform="translate(-158,-94) scale(1,1)"><path fill="none" stroke="#000000" d="M 1049.6024181463067 304.84 L 1067.9820545099433 304.84" stroke-miterlimit="10"/></g><g transform="translate(-158,-94) scale(1,1)"><path fill="none" stroke="#000000" d="M 1058.792236328125 315.64 L 1046.0285999644886 333" stroke-miterlimit="10"/></g><g transform="translate(-158,-94) scale(1,1)"><path fill="none" stroke="#000000" d="M 1058.792236328125 315.64 L 1071.5558726917614 333" stroke-miterlimit="10"/></g><g transform="translate(-158,-94) scale(1,1)"><g><path fill="none" stroke="none"/><text fill="#000000" stroke="none" font-family="Arial" font-size="13px" font-style="normal" font-weight="bold" text-decoration="none" x="1023.023193359375" y="353.5">Gerenciador</text></g></g><g transform="translate(-158,-94) scale(1,1)"><path fill="#ffffff" stroke="none" d="M 1049.9916257102273 561.6800000000001 C 1049.9916257102273 556.8861679360001 1053.8774680351728 553 1058.6708984375 553 C 1063.4643288398272 553 1067.3501711647727 556.8861679360001 1067.3501711647727 561.6800000000001 C 1067.3501711647727 566.473832064 1063.4643288398272 570.36 1058.6708984375 570.36 C 1053.8774680351728 570.36 1049.9916257102273 566.473832064 1049.9916257102273 561.6800000000001 Z"/></g><g transform="translate(-158,-94) scale(1,1)"><path fill="none" stroke="#000000" d="M 1049.9916257102273 561.6800000000001 C 1049.9916257102273 556.8861679360001 1053.8774680351728 553 1058.6708984375 553 C 1063.4643288398272 553 1067.3501711647727 556.8861679360001 1067.3501711647727 561.6800000000001 C 1067.3501711647727 566.473832064 1063.4643288398272 570.36 1058.6708984375 570.36 C 1053.8774680351728 570.36 1049.9916257102273 566.473832064 1049.9916257102273 561.6800000000001 Z" stroke-miterlimit="10"/></g><g transform="translate(-158,-94) scale(1,1)"><path fill="none" stroke="#000000" d="M 1058.6708984375 570.36 L 1058.6708984375 587.64" stroke-miterlimit="10"/></g><g transform="translate(-158,-94) scale(1,1)"><path fill="none" stroke="#000000" d="M 1049.4810802556817 576.84 L 1067.8607166193183 576.84" stroke-miterlimit="10"/></g><g transform="translate(-158,-94) scale(1,1)"><path fill="none" stroke="#000000" d="M 1058.6708984375 587.64 L 1045.9072620738636 605" stroke-miterlimit="10"/></g><g transform="translate(-158,-94) scale(1,1)"><path fill="none" stroke="#000000" d="M 1058.6708984375 587.64 L 1071.4345348011364 605" stroke-miterlimit="10"/></g><g transform="translate(-158,-94) scale(1,1)"><g><path fill="none" stroke="none"/><text fill="#000000" stroke="none" font-family="Arial" font-size="13px" font-style="normal" font-weight="bold" text-decoration="none" x="1032.655029296875" y="625.5">Sugestor</text></g></g><g transform="translate(-158,-94) scale(1,1)"><path fill="#C0C0C0" stroke="none" d="M 352 288 C 352 278.6111584 405.725824 271 472 271 C 538.274176 271 592 278.6111584 592 288 C 592 297.3888416 538.274176 305 472 305 C 405.725824 305 352 297.3888416 352 288 Z" opacity="0.2"/></g><g transform="translate(-158,-94) scale(1,1)"><path fill="#ffffff" stroke="none" d="M 345 281 C 345 271.6111584 398.725824 264 465 264 C 531.274176 264 585 271.6111584 585 281 C 585 290.3888416 531.274176 298 465 298 C 398.725824 298 345 290.3888416 345 281 Z"/></g><g transform="translate(-158,-94) scale(1,1)"><path fill="none" stroke="#000000" d="M 345 281 C 345 271.6111584 398.725824 264 465 264 C 531.274176 264 585 271.6111584 585 281 C 585 290.3888416 531.274176 298 465 298 C 398.725824 298 345 290.3888416 345 281 Z" stroke-miterlimit="10"/></g><g transform="translate(-158,-94) scale(1,1)"><g><path fill="none" stroke="none"/><text fill="#000000" stroke="none" font-family="Arial" font-size="13px" font-style="normal" font-weight="bold" text-decoration="none" x="391.29736328125" y="288">Distribui o trecho de texto</text></g></g><g transform="translate(-158,-94) scale(1,1)"><path fill="none" stroke="#000000" d="M 465 183 L 465 263" stroke-miterlimit="10" stroke-dasharray="3"/></g><g transform="translate(-158,-94) scale(1,1)"><path fill="none" stroke="#000000" d="M 460.790482243984 252.83732514237585 L 465 263 L 469.209517756016 252.83732514237585" stroke-miterlimit="10"/></g><g transform="translate(-158,-94) scale(1,1)"><g><path fill="none" stroke="none"/><text fill="#000000" stroke="none" font-family="Arial" font-size="13px" font-style="normal" font-weight="normal" text-decoration="none" x="479" y="237">«include»</text></g></g><g transform="translate(-158,-94) scale(1,1)"><path fill="none" stroke="#000000" d="M 1057 360 L 1056 376 L 704 376 L 704 280 L 586 280" stroke-miterlimit="10"/></g><g transform="translate(-158,-94) scale(1,1)"><path fill="#C0C0C0" stroke="none" d="M 422 400 C 422 390.6111584 444.6096176 383 472.5 383 C 500.3903824 383 523 390.6111584 523 400 C 523 409.3888416 500.3903824 417 472.5 417 C 444.6096176 417 422 409.3888416 422 400 Z" opacity="0.2"/></g><g transform="translate(-158,-94) scale(1,1)"><path fill="#ffffff" stroke="none" d="M 415 393 C 415 383.6111584 437.6096176 376 465.5 376 C 493.3903824 376 516 383.6111584 516 393 C 516 402.3888416 493.3903824 410 465.5 410 C 437.6096176 410 415 402.3888416 415 393 Z"/></g><g transform="translate(-158,-94) scale(1,1)"><path fill="none" stroke="#000000" d="M 415 393 C 415 383.6111584 437.6096176 376 465.5 376 C 493.3903824 376 516 383.6111584 516 393 C 516 402.3888416 493.3903824 410 465.5 410 C 437.6096176 410 415 402.3888416 415 393 Z" stroke-miterlimit="10"/></g><g transform="translate(-158,-94) scale(1,1)"><g><path fill="none" stroke="none"/><text fill="#000000" stroke="none" font-family="Arial" font-size="13px" font-style="normal" font-weight="bold" text-decoration="none" x="444.5400390625" y="400">Sugere</text></g></g><g transform="translate(-158,-94) scale(1,1)"><path fill="none" stroke="#000000" d="M 465 299 L 465 375" stroke-miterlimit="10" stroke-dasharray="3"/></g><g transform="translate(-158,-94) scale(1,1)"><path fill="none" stroke="#000000" d="M 460.790482243984 364.83732514237585 L 465 375 L 469.209517756016 364.83732514237585" stroke-miterlimit="10"/></g><g transform="translate(-158,-94) scale(1,1)"><g><path fill="none" stroke="none"/><text fill="#000000" stroke="none" font-family="Arial" font-size="13px" font-style="normal" font-weight="normal" text-decoration="none" x="461" y="349">«include»</text></g></g><g transform="translate(-158,-94) scale(1,1)"><path fill="none" stroke="#000000" d="M 1025 591 L 880 592 L 880 392 L 517 393" stroke-miterlimit="10"/></g><g transform="translate(-158,-94) scale(1,1)"><path fill="#C0C0C0" stroke="none" d="M 764 172 C 764 162.6111584 821.9791184000001 155 893.5 155 C 965.0208815999999 155 1023 162.6111584 1023 172 C 1023 181.3888416 965.0208815999999 189 893.5 189 C 821.9791184000001 189 764 181.3888416 764 172 Z" opacity="0.2"/></g><g transform="translate(-158,-94) scale(1,1)"><path fill="#ffffff" stroke="none" d="M 757 165 C 757 155.6111584 814.9791184000001 148 886.5 148 C 958.0208815999999 148 1016 155.6111584 1016 165 C 1016 174.3888416 958.0208815999999 182 886.5 182 C 814.9791184000001 182 757 174.3888416 757 165 Z"/></g><g transform="translate(-158,-94) scale(1,1)"><path fill="none" stroke="#000000" d="M 757 165 C 757 155.6111584 814.9791184000001 148 886.5 148 C 958.0208815999999 148 1016 155.6111584 1016 165 C 1016 174.3888416 958.0208815999999 182 886.5 182 C 814.9791184000001 182 757 174.3888416 757 165 Z" stroke-miterlimit="10"/></g><g transform="translate(-158,-94) scale(1,1)"><g><path fill="none" stroke="none"/><text fill="#000000" stroke="none" font-family="Arial" font-size="13px" font-style="normal" font-weight="bold" text-decoration="none" x="806.646484375" y="172">Adiciona frase ao dicionário</text></g></g><g transform="translate(-158,-94) scale(1,1)"><path fill="none" stroke="#000000" d="M 1057 279 L 1056 160 L 1017 161" stroke-miterlimit="10"/></g><g transform="translate(-158,-94) scale(1,1)"><path fill="none" stroke="#000000" d="M 756 165 L 568 165" stroke-miterlimit="10" stroke-dasharray="3"/></g><g transform="translate(-158,-94) scale(1,1)"><path fill="none" stroke="#000000" d="M 578.1626748576241 160.790482243984 L 568 165 L 578.1626748576241 169.209517756016" stroke-miterlimit="10"/></g><g transform="translate(-158,-94) scale(1,1)"><g><path fill="none" stroke="none"/><text fill="#000000" stroke="none" font-family="Arial" font-size="13px" font-style="normal" font-weight="normal" text-decoration="none" x="590" y="161">«extend»</text></g></g><g transform="translate(-158,-94) scale(1,1)"><path fill="#C0C0C0" stroke="none" d="M 750 240 C 750 230.6111584 814.0232736 223 893 223 C 971.9767264 223 1036 230.6111584 1036 240 C 1036 249.3888416 971.9767264 257 893 257 C 814.0232736 257 750 249.3888416 750 240 Z" opacity="0.2"/></g><g transform="translate(-158,-94) scale(1,1)"><path fill="#ffffff" stroke="none" d="M 743 233 C 743 223.6111584 807.0232736 216 886 216 C 964.9767264 216 1029 223.6111584 1029 233 C 1029 242.3888416 964.9767264 250 886 250 C 807.0232736 250 743 242.3888416 743 233 Z"/></g><g transform="translate(-158,-94) scale(1,1)"><path fill="none" stroke="#000000" d="M 743 233 C 743 223.6111584 807.0232736 216 886 216 C 964.9767264 216 1029 223.6111584 1029 233 C 1029 242.3888416 964.9767264 250 886 250 C 807.0232736 250 743 242.3888416 743 233 Z" stroke-miterlimit="10"/></g><g transform="translate(-158,-94) scale(1,1)"><g><path fill="none" stroke="none"/><text fill="#000000" stroke="none" font-family="Arial" font-size="13px" font-style="normal" font-weight="bold" text-decoration="none" x="797.11376953125" y="240">Adicionar palavra ao dicionário</text></g></g><g transform="translate(-158,-94) scale(1,1)"><path fill="none" stroke="#000000" d="M 886 215 L 886 183" stroke-miterlimit="10" stroke-dasharray="3"/></g><g transform="translate(-158,-94) scale(1,1)"><path fill="none" stroke="#000000" d="M 890.209517756016 193.16267485762415 L 886 183 L 881.790482243984 193.16267485762415" stroke-miterlimit="10"/></g><g transform="translate(-158,-94) scale(1,1)"><g><path fill="none" stroke="none"/><text fill="#000000" stroke="none" font-family="Arial" font-size="13px" font-style="normal" font-weight="normal" text-decoration="none" x="888" y="214">«extend»</text></g></g><g transform="translate(-158,-94) scale(1,1)"><path fill="none" stroke="#000000" d="M 1015 319 L 888 320 L 886 251" stroke-miterlimit="10"/></g><g transform="translate(-158,-94) scale(1,1)"><path fill="#C0C0C0" stroke="none" d="M 1183 368 C 1183 358.6111584 1227.9953776 351 1283.5 351 C 1339.0046224 351 1384 358.6111584 1384 368 C 1384 377.3888416 1339.0046224 385 1283.5 385 C 1227.9953776 385 1183 377.3888416 1183 368 Z" opacity="0.2"/></g><g transform="translate(-158,-94) scale(1,1)"><path fill="#ffffff" stroke="none" d="M 1176 361 C 1176 351.6111584 1220.9953776 344 1276.5 344 C 1332.0046224 344 1377 351.6111584 1377 361 C 1377 370.3888416 1332.0046224 378 1276.5 378 C 1220.9953776 378 1176 370.3888416 1176 361 Z"/></g><g transform="translate(-158,-94) scale(1,1)"><path fill="none" stroke="#000000" d="M 1176 361 C 1176 351.6111584 1220.9953776 344 1276.5 344 C 1332.0046224 344 1377 351.6111584 1377 361 C 1377 370.3888416 1332.0046224 378 1276.5 378 C 1220.9953776 378 1176 370.3888416 1176 361 Z" stroke-miterlimit="10"/></g><g transform="translate(-158,-94) scale(1,1)"><g><path fill="none" stroke="none"/><text fill="#000000" stroke="none" font-family="Arial" font-size="13px" font-style="normal" font-weight="bold" text-decoration="none" x="1214.715087890625" y="368">Reproduz sugestores</text></g></g><g transform="translate(-158,-94) scale(1,1)"><path fill="none" stroke="#000000" d="M 1103 320 L 1112 320 L 1112 360 L 1175 360" stroke-miterlimit="10"/></g><g transform="translate(-158,-94) scale(1,1)"><path fill="none" stroke="#000000" d="M 1057 551 L 1056 496 L 1272 496 L 1275 379" stroke-miterlimit="10"/></g><g transform="translate(-158,-94) scale(1,1)"><path fill="#ffffff" stroke="none" d="M 218.66887180397728 505.68 C 218.66887180397728 500.886167936 222.55471412892274 497 227.34814453125 497 C 232.14157493357726 497 236.02741725852272 500.886167936 236.02741725852272 505.68 C 236.02741725852272 510.473832064 232.14157493357726 514.36 227.34814453125 514.36 C 222.55471412892274 514.36 218.66887180397728 510.473832064 218.66887180397728 505.68 Z"/></g><g transform="translate(-158,-94) scale(1,1)"><path fill="none" stroke="#000000" d="M 218.66887180397728 505.68 C 218.66887180397728 500.886167936 222.55471412892274 497 227.34814453125 497 C 232.14157493357726 497 236.02741725852272 500.886167936 236.02741725852272 505.68 C 236.02741725852272 510.473832064 232.14157493357726 514.36 227.34814453125 514.36 C 222.55471412892274 514.36 218.66887180397728 510.473832064 218.66887180397728 505.68 Z" stroke-miterlimit="10"/></g><g transform="translate(-158,-94) scale(1,1)"><path fill="none" stroke="#000000" d="M 227.34814453125 514.36 L 227.34814453125 531.64" stroke-miterlimit="10"/></g><g transform="translate(-158,-94) scale(1,1)"><path fill="none" stroke="#000000" d="M 218.15832634943183 520.84 L 236.53796271306817 520.84" stroke-miterlimit="10"/></g><g transform="translate(-158,-94) scale(1,1)"><path fill="none" stroke="#000000" d="M 227.34814453125 531.64 L 214.58450816761365 549" stroke-miterlimit="10"/></g><g transform="translate(-158,-94) scale(1,1)"><path fill="none" stroke="#000000" d="M 227.34814453125 531.64 L 240.11178089488635 549" stroke-miterlimit="10"/></g><g transform="translate(-158,-94) scale(1,1)"><g><path fill="none" stroke="none"/><text fill="#000000" stroke="none" font-family="Arial" font-size="13px" font-style="normal" font-weight="bold" text-decoration="none" x="180.734130859375" y="569.5">Interface de uso</text></g></g><g transform="translate(-158,-94) scale(1,1)"><path fill="none" stroke="#000000" d="M 283 536 L 320 536 L 320 160 L 362 161" stroke-miterlimit="10"/></g><g transform="translate(-158,-94) scale(1,1)"><path fill="#C0C0C0" stroke="none" d="M 372 504 C 372 494.6111584 416.9953776 487 472.5 487 C 528.0046224 487 573 494.6111584 573 504 C 573 513.3888416 528.0046224 521 472.5 521 C 416.9953776 521 372 513.3888416 372 504 Z" opacity="0.2"/></g><g transform="translate(-158,-94) scale(1,1)"><path fill="#ffffff" stroke="none" d="M 365 497 C 365 487.6111584 409.9953776 480 465.5 480 C 521.0046224 480 566 487.6111584 566 497 C 566 506.3888416 521.0046224 514 465.5 514 C 409.9953776 514 365 506.3888416 365 497 Z"/></g><g transform="translate(-158,-94) scale(1,1)"><path fill="none" stroke="#000000" d="M 365 497 C 365 487.6111584 409.9953776 480 465.5 480 C 521.0046224 480 566 487.6111584 566 497 C 566 506.3888416 521.0046224 514 465.5 514 C 409.9953776 514 365 506.3888416 365 497 Z" stroke-miterlimit="10"/></g><g transform="translate(-158,-94) scale(1,1)"><g><path fill="none" stroke="none"/><text fill="#000000" stroke="none" font-family="Arial" font-size="13px" font-style="normal" font-weight="bold" text-decoration="none" x="403.346923828125" y="504">Apresenta Sugestões</text></g></g><g transform="translate(-158,-94) scale(1,1)"><path fill="none" stroke="#000000" d="M 226 576 L 224 632 L 464 632 L 465 515" stroke-miterlimit="10"/></g><g transform="translate(-158,-94) scale(1,1)"><path fill="none" stroke="#000000" d="M 465 411 L 465 479" stroke-miterlimit="10" stroke-dasharray="3"/></g><g transform="translate(-158,-94) scale(1,1)"><path fill="none" stroke="#000000" d="M 460.790482243984 468.83732514237585 L 465 479 L 469.209517756016 468.83732514237585" stroke-miterlimit="10"/></g><g transform="translate(-158,-94) scale(1,1)"><g><path fill="none" stroke="none"/><text fill="#000000" stroke="none" font-family="Arial" font-size="13px" font-style="normal" font-weight="normal" text-decoration="none" x="463" y="461">«include»</text></g></g></g></svg>