<svg version="1.1" xmlns="http://www.w3.org/2000/svg" xmlns:xlink="http://www.w3.org/1999/xlink" width="1291" height="905"><defs/><g><g transform="translate(-304,-174) scale(1,1)"><rect fill="#C0C0C0" stroke="none" x="815" y="719" width="63.18994140625" height="44" opacity="0.2"/></g><g transform="translate(-304,-174) scale(1,1)"><rect fill="#ffffff" stroke="none" x="808" y="712" width="63.18994140625" height="44"/></g><g transform="translate(-304,-174) scale(1,1)"><path fill="none" stroke="#000000" d="M 808 712 L 871.18994140625 712 L 871.18994140625 756 L 808 756 L 808 712 Z Z" stroke-miterlimit="10"/></g><g transform="translate(-304,-174) scale(1,1)"><path fill="none" stroke="#000000" d="M 808 737 L 871.18994140625 737" stroke-miterlimit="10"/></g><g transform="translate(-304,-174) scale(1,1)"><path fill="none" stroke="#000000" d="M 808 747 L 871.18994140625 747" stroke-miterlimit="10"/></g><g transform="translate(-304,-174) scale(1,1)"><g><path fill="none" stroke="none"/><text fill="#000000" stroke="none" font-family="Arial" font-size="13px" font-style="normal" font-weight="bold" text-decoration="none" x="814.66455078125" y="731.5">interface</text></g></g><g transform="translate(-304,-174) scale(1,1)"><rect fill="#C0C0C0" stroke="none" x="474" y="495" width="211.64892578125" height="57" opacity="0.2"/></g><g transform="translate(-304,-174) scale(1,1)"><rect fill="#ffffff" stroke="none" x="467" y="488" width="211.64892578125" height="57"/></g><g transform="translate(-304,-174) scale(1,1)"><path fill="none" stroke="#000000" d="M 467 488 L 678.64892578125 488 L 678.64892578125 545 L 467 545 L 467 488 Z Z" stroke-miterlimit="10"/></g><g transform="translate(-304,-174) scale(1,1)"><path fill="none" stroke="#000000" d="M 467 513 L 678.64892578125 513" stroke-miterlimit="10"/></g><g transform="translate(-304,-174) scale(1,1)"><path fill="none" stroke="#000000" d="M 467 523 L 678.64892578125 523" stroke-miterlimit="10"/></g><g transform="translate(-304,-174) scale(1,1)"><g><path fill="none" stroke="none"/><text fill="#000000" stroke="none" font-family="Arial" font-size="13px" font-style="normal" font-weight="bold" text-decoration="none" x="537.055419921875" y="507.5">Gerenciador</text></g></g><g transform="translate(-304,-174) scale(1,1)"><g><path fill="none" stroke="none"/><text fill="#000000" stroke="none" font-family="Arial" font-size="13px" font-style="normal" font-weight="normal" text-decoration="none" x="472" y="540.5">+distribuir(tx: Texto): ArrayList&lt;int&gt;</text></g></g><g transform="translate(-304,-174) scale(1,1)"><rect fill="#C0C0C0" stroke="none" x="1069" y="191" width="99.3271484375" height="44" opacity="0.2"/></g><g transform="translate(-304,-174) scale(1,1)"><rect fill="#ffffff" stroke="none" x="1062" y="184" width="99.3271484375" height="44"/></g><g transform="translate(-304,-174) scale(1,1)"><path fill="none" stroke="#000000" d="M 1062 184 L 1161.3271484375 184 L 1161.3271484375 228 L 1062 228 L 1062 184 Z Z" stroke-miterlimit="10"/></g><g transform="translate(-304,-174) scale(1,1)"><path fill="none" stroke="#000000" d="M 1062 209 L 1161.3271484375 209" stroke-miterlimit="10"/></g><g transform="translate(-304,-174) scale(1,1)"><path fill="none" stroke="#000000" d="M 1062 219 L 1161.3271484375 219" stroke-miterlimit="10"/></g><g transform="translate(-304,-174) scale(1,1)"><g><path fill="none" stroke="none"/><text fill="#000000" stroke="none" font-family="Arial" font-size="13px" font-style="normal" font-weight="bold" text-decoration="none" x="1085.647705078125" y="203.5">Sugestor</text></g></g><g transform="translate(-304,-174) scale(1,1)"><path fill="#C0C0C0" stroke="none" d="M 1482.8212890625 698.5 C 1482.8212890625 692.1487248 1487.9700138625 687 1494.3212890625 687 C 1500.6725642625 687 1505.8212890625 692.1487248 1505.8212890625 698.5 C 1505.8212890625 704.8512752 1500.6725642625 710 1494.3212890625 710 C 1487.9700138625 710 1482.8212890625 704.8512752 1482.8212890625 698.5 Z" opacity="0.2"/></g><g transform="translate(-304,-174) scale(1,1)"><path fill="#ffffff" stroke="none" d="M 1475.8212890625 691.5 C 1475.8212890625 685.1487248 1480.9700138625 680 1487.3212890625 680 C 1493.6725642625 680 1498.8212890625 685.1487248 1498.8212890625 691.5 C 1498.8212890625 697.8512752 1493.6725642625 703 1487.3212890625 703 C 1480.9700138625 703 1475.8212890625 697.8512752 1475.8212890625 691.5 Z"/></g><g transform="translate(-304,-174) scale(1,1)"><path fill="none" stroke="#000000" d="M 1475.8212890625 691.5 C 1475.8212890625 685.1487248 1480.9700138625 680 1487.3212890625 680 C 1493.6725642625 680 1498.8212890625 685.1487248 1498.8212890625 691.5 C 1498.8212890625 697.8512752 1493.6725642625 703 1487.3212890625 703 C 1480.9700138625 703 1475.8212890625 697.8512752 1475.8212890625 691.5 Z" stroke-miterlimit="10"/></g><g transform="translate(-304,-174) scale(1,1)"><path fill="none" stroke="#000000" d="M 1427 728 L 1547.642578125 728" stroke-miterlimit="10"/></g><g transform="translate(-304,-174) scale(1,1)"><path fill="none" stroke="#000000" d="M 1427 751 L 1547.642578125 751" stroke-miterlimit="10"/></g><g transform="translate(-304,-174) scale(1,1)"><g><path fill="none" stroke="none"/><text fill="#000000" stroke="none" font-family="Arial" font-size="13px" font-style="normal" font-weight="bold" text-decoration="none" x="1449.3876953125" y="722.5">Armazenavel</text></g></g><g transform="translate(-304,-174) scale(1,1)"><g><path fill="none" stroke="none"/><text fill="#000000" stroke="none" font-family="Arial" font-size="13px" font-style="normal" font-weight="normal" text-decoration="none" x="1432" y="745.5">-obd: OBD</text></g></g><g transform="translate(-304,-174) scale(1,1)"><g><path fill="none" stroke="none"/><text fill="#000000" stroke="none" font-family="Arial" font-size="13px" font-style="normal" font-weight="normal" text-decoration="none" x="1432" y="768.5">+Salvar()</text></g></g><g transform="translate(-304,-174) scale(1,1)"><g><path fill="none" stroke="none"/><text fill="#000000" stroke="none" font-family="Arial" font-size="13px" font-style="normal" font-weight="normal" text-decoration="none" x="1432" y="783.5">+Carregar(id: int)</text></g></g><g transform="translate(-304,-174) scale(1,1)"><rect fill="#C0C0C0" stroke="none" x="321" y="314" width="516.28564453125" height="100" opacity="0.2"/></g><g transform="translate(-304,-174) scale(1,1)"><rect fill="#ffffff" stroke="none" x="314" y="307" width="516.28564453125" height="100"/></g><g transform="translate(-304,-174) scale(1,1)"><path fill="none" stroke="#000000" d="M 314 307 L 830.28564453125 307 L 830.28564453125 407 L 314 407 L 314 307 Z Z" stroke-miterlimit="10"/></g><g transform="translate(-304,-174) scale(1,1)"><path fill="none" stroke="#000000" d="M 314 332 L 830.28564453125 332" stroke-miterlimit="10"/></g><g transform="translate(-304,-174) scale(1,1)"><path fill="none" stroke="#000000" d="M 314 355 L 830.28564453125 355" stroke-miterlimit="10"/></g><g transform="translate(-304,-174) scale(1,1)"><g><path fill="none" stroke="none"/><text fill="#000000" stroke="none" font-family="Arial" font-size="13px" font-style="italic" font-weight="bold" text-decoration="none" x="525.17333984375" y="326.5">GerenciadorEvo</text></g></g><g transform="translate(-304,-174) scale(1,1)"><g><path fill="none" stroke="none"/><text fill="#000000" stroke="none" font-family="Arial" font-size="13px" font-style="normal" font-weight="normal" text-decoration="none" x="319" y="349.5">-lE: ArrayList&lt;EntidadeEvo&gt;</text></g></g><g transform="translate(-304,-174) scale(1,1)"><g><path fill="none" stroke="none"/><text fill="#000000" stroke="none" font-family="Arial" font-size="13px" font-style="italic" font-weight="normal" text-decoration="none" x="319" y="372.5">#rodarLEntidade(cF: Function&lt;T,Boolean&gt;)</text></g></g><g transform="translate(-304,-174) scale(1,1)"><g><path fill="none" stroke="none"/><text fill="#000000" stroke="none" font-family="Arial" font-size="13px" font-style="italic" font-weight="normal" text-decoration="none" x="319" y="387.5">#reproduzirEntidades(cA: Function&lt;ArrayList&lt;EntidadeEvo&gt;, ArrayList&lt;EntidadeEvo&gt;&gt;)</text></g></g><g transform="translate(-304,-174) scale(1,1)"><rect fill="#C0C0C0" stroke="none" x="923" y="314" width="390.17041015625" height="100" opacity="0.2"/></g><g transform="translate(-304,-174) scale(1,1)"><rect fill="#ffffff" stroke="none" x="916" y="307" width="390.17041015625" height="100"/></g><g transform="translate(-304,-174) scale(1,1)"><path fill="none" stroke="#000000" d="M 916 307 L 1306.17041015625 307 L 1306.17041015625 407 L 916 407 L 916 307 Z Z" stroke-miterlimit="10"/></g><g transform="translate(-304,-174) scale(1,1)"><path fill="none" stroke="#000000" d="M 916 332 L 1306.17041015625 332" stroke-miterlimit="10"/></g><g transform="translate(-304,-174) scale(1,1)"><path fill="none" stroke="#000000" d="M 916 355 L 1306.17041015625 355" stroke-miterlimit="10"/></g><g transform="translate(-304,-174) scale(1,1)"><g><path fill="none" stroke="none"/><text fill="#000000" stroke="none" font-family="Arial" font-size="13px" font-style="italic" font-weight="bold" text-decoration="none" x="1061.9384765625" y="326.5">EntidadeEvo&lt;R&gt;</text></g></g><g transform="translate(-304,-174) scale(1,1)"><g><path fill="none" stroke="none"/><text fill="#000000" stroke="none" font-family="Arial" font-size="13px" font-style="normal" font-weight="normal" text-decoration="none" x="921" y="349.5">-cg: CodigoGenEvo&lt;A&gt;</text></g></g><g transform="translate(-304,-174) scale(1,1)"><g><path fill="none" stroke="none"/><text fill="#000000" stroke="none" font-family="Arial" font-size="13px" font-style="normal" font-weight="normal" text-decoration="none" x="921" y="372.5">+executar(i: HashMap&lt;String, Object&gt;)</text></g></g><g transform="translate(-304,-174) scale(1,1)"><g><path fill="none" stroke="none"/><text fill="#000000" stroke="none" font-family="Arial" font-size="13px" font-style="normal" font-weight="normal" text-decoration="none" x="921" y="387.5">+reproduzir(lE: ArrayList&lt;EntidadeEvo&gt;): ArrayList&lt;EntidadeEvo&gt;</text><path fill="none" stroke="#000000" d="M 921 387.5 L 1302.17041015625 387.5" stroke-miterlimit="10"/></g></g><g transform="translate(-304,-174) scale(1,1)"><rect fill="#C0C0C0" stroke="none" x="1429" y="328" width="130.748046875" height="72" opacity="0.2"/></g><g transform="translate(-304,-174) scale(1,1)"><rect fill="#ffffff" stroke="none" x="1422" y="321" width="130.748046875" height="72"/></g><g transform="translate(-304,-174) scale(1,1)"><path fill="none" stroke="#000000" d="M 1422 321 L 1552.748046875 321 L 1552.748046875 393 L 1422 393 L 1422 321 Z Z" stroke-miterlimit="10"/></g><g transform="translate(-304,-174) scale(1,1)"><path fill="none" stroke="#000000" d="M 1422 346 L 1552.748046875 346" stroke-miterlimit="10"/></g><g transform="translate(-304,-174) scale(1,1)"><path fill="none" stroke="#000000" d="M 1422 369 L 1552.748046875 369" stroke-miterlimit="10"/></g><g transform="translate(-304,-174) scale(1,1)"><g><path fill="none" stroke="none"/><text fill="#000000" stroke="none" font-family="Arial" font-size="13px" font-style="italic" font-weight="bold" text-decoration="none" x="1431.3623046875" y="340.5">CodigoGenEvo&lt;A&gt;</text></g></g><g transform="translate(-304,-174) scale(1,1)"><g><path fill="none" stroke="none"/><text fill="#000000" stroke="none" font-family="Arial" font-size="13px" font-style="normal" font-weight="normal" text-decoration="none" x="1427" y="363.5">-cg: Arraylist&lt;A&gt;</text></g></g><g transform="translate(-304,-174) scale(1,1)"><path fill="none" stroke="#000000" d="M 1421 357 L 1307 357" stroke-miterlimit="10"/></g><g transform="translate(-304,-174) scale(1,1)"><path fill="#000000" stroke="none" d="M 1317.162674857624 352.790482243984 L 1307 357 L 1317.162674857624 361.209517756016 L 1329 357"/></g><g transform="translate(-304,-174) scale(1,1)"><path fill="none" stroke="#000000" d="M 1317.162674857624 352.790482243984 L 1307 357 L 1317.162674857624 361.209517756016 L 1329 357 L 1317.162674857624 352.790482243984" stroke-miterlimit="10"/></g><g transform="translate(-304,-174) scale(1,1)"><path fill="none" stroke="#000000" d="M 915 357 L 831 357" stroke-miterlimit="10"/></g><g transform="translate(-304,-174) scale(1,1)"><path fill="#000000" stroke="none" d="M 841.1626748576241 352.790482243984 L 831 357 L 841.1626748576241 361.209517756016 L 853 357"/></g><g transform="translate(-304,-174) scale(1,1)"><path fill="none" stroke="#000000" d="M 841.1626748576241 352.790482243984 L 831 357 L 841.1626748576241 361.209517756016 L 853 357 L 841.1626748576241 352.790482243984" stroke-miterlimit="10"/></g><g transform="translate(-304,-174) scale(1,1)"><path fill="none" stroke="#000000" d="M 1111 229 L 1111 306" stroke-miterlimit="10"/></g><g transform="translate(-304,-174) scale(1,1)"><path fill="#FFFFFF" stroke="none" d="M 1102.580964487968 285.6746502847517 L 1111 306 L 1119.419035512032 285.6746502847517"/></g><g transform="translate(-304,-174) scale(1,1)"><path fill="none" stroke="#000000" d="M 1102.580964487968 285.6746502847517 L 1111 306 L 1119.419035512032 285.6746502847517 L 1102.580964487968 285.6746502847517" stroke-miterlimit="10"/></g><g transform="translate(-304,-174) scale(1,1)"><path fill="none" stroke="#000000" d="M 572 487 L 572 408" stroke-miterlimit="10"/></g><g transform="translate(-304,-174) scale(1,1)"><path fill="#FFFFFF" stroke="none" d="M 580.419035512032 428.3253497152483 L 572 408 L 563.580964487968 428.3253497152483"/></g><g transform="translate(-304,-174) scale(1,1)"><path fill="none" stroke="#000000" d="M 580.419035512032 428.3253497152483 L 572 408 L 563.580964487968 428.3253497152483 L 580.419035512032 428.3253497152483" stroke-miterlimit="10"/></g><g transform="translate(-304,-174) scale(1,1)"><rect fill="#C0C0C0" stroke="none" x="1427" y="495" width="135.38818359375" height="57" opacity="0.2"/></g><g transform="translate(-304,-174) scale(1,1)"><rect fill="#ffffff" stroke="none" x="1420" y="488" width="135.38818359375" height="57"/></g><g transform="translate(-304,-174) scale(1,1)"><path fill="none" stroke="#000000" d="M 1420 488 L 1555.38818359375 488 L 1555.38818359375 545 L 1420 545 L 1420 488 Z Z" stroke-miterlimit="10"/></g><g transform="translate(-304,-174) scale(1,1)"><path fill="none" stroke="#000000" d="M 1420 513 L 1555.38818359375 513" stroke-miterlimit="10"/></g><g transform="translate(-304,-174) scale(1,1)"><path fill="none" stroke="#000000" d="M 1420 536 L 1555.38818359375 536" stroke-miterlimit="10"/></g><g transform="translate(-304,-174) scale(1,1)"><g><path fill="none" stroke="none"/><text fill="#000000" stroke="none" font-family="Arial" font-size="13px" font-style="normal" font-weight="bold" text-decoration="none" x="1428.794189453125" y="507.5">CodigoGenSugestor</text></g></g><g transform="translate(-304,-174) scale(1,1)"><g><path fill="none" stroke="none"/><text fill="#000000" stroke="none" font-family="Arial" font-size="13px" font-style="normal" font-weight="normal" text-decoration="none" x="1425" y="530.5">-id: int</text></g></g><g transform="translate(-304,-174) scale(1,1)"><path fill="none" stroke="#000000" d="M 1487 487 L 1487 394" stroke-miterlimit="10"/></g><g transform="translate(-304,-174) scale(1,1)"><path fill="#FFFFFF" stroke="none" d="M 1495.419035512032 414.3253497152483 L 1487 394 L 1478.580964487968 414.3253497152483"/></g><g transform="translate(-304,-174) scale(1,1)"><path fill="none" stroke="#000000" d="M 1495.419035512032 414.3253497152483 L 1487 394 L 1478.580964487968 414.3253497152483 L 1495.419035512032 414.3253497152483" stroke-miterlimit="10"/></g><g transform="translate(-304,-174) scale(1,1)"><path fill="none" stroke="#000000" d="M 1487 546 L 1487 680" stroke-miterlimit="10"/></g><g transform="translate(-304,-174) scale(1,1)"><path fill="none" stroke="#000000" d="M 807 734 L 576 736 L 573 546" stroke-miterlimit="10"/></g><g transform="translate(-304,-174) scale(1,1)"><rect fill="#C0C0C0" stroke="none" x="522" y="959" width="114.84716796875" height="117" opacity="0.2"/></g><g transform="translate(-304,-174) scale(1,1)"><rect fill="#ffffff" stroke="none" x="515" y="952" width="114.84716796875" height="117"/></g><g transform="translate(-304,-174) scale(1,1)"><path fill="none" stroke="#000000" d="M 515 952 L 629.84716796875 952 L 629.84716796875 1069 L 515 1069 L 515 952 Z Z" stroke-miterlimit="10"/></g><g transform="translate(-304,-174) scale(1,1)"><path fill="none" stroke="#000000" d="M 515 977 L 629.84716796875 977" stroke-miterlimit="10"/></g><g transform="translate(-304,-174) scale(1,1)"><path fill="none" stroke="#000000" d="M 515 1060 L 629.84716796875 1060" stroke-miterlimit="10"/></g><g transform="translate(-304,-174) scale(1,1)"><g><path fill="none" stroke="none"/><text fill="#000000" stroke="none" font-family="Arial" font-size="13px" font-style="normal" font-weight="bold" text-decoration="none" x="556.167236328125" y="971.5">Texto</text></g></g><g transform="translate(-304,-174) scale(1,1)"><g><path fill="none" stroke="none"/><text fill="#000000" stroke="none" font-family="Arial" font-size="13px" font-style="normal" font-weight="normal" text-decoration="none" x="520" y="994.5">-id: int</text></g></g><g transform="translate(-304,-174) scale(1,1)"><g><path fill="none" stroke="none"/><text fill="#000000" stroke="none" font-family="Arial" font-size="13px" font-style="normal" font-weight="normal" text-decoration="none" x="520" y="1009.5">-lF: ArrayList&lt;int&gt;</text></g></g><g transform="translate(-304,-174) scale(1,1)"><g><path fill="none" stroke="none"/><text fill="#000000" stroke="none" font-family="Arial" font-size="13px" font-style="normal" font-weight="normal" text-decoration="none" x="520" y="1024.5">-fA: int</text></g></g><g transform="translate(-304,-174) scale(1,1)"><g><path fill="none" stroke="none"/><text fill="#000000" stroke="none" font-family="Arial" font-size="13px" font-style="normal" font-weight="normal" text-decoration="none" x="520" y="1039.5">-ds: String</text></g></g><g transform="translate(-304,-174) scale(1,1)"><g><path fill="none" stroke="none"/><text fill="#000000" stroke="none" font-family="Arial" font-size="13px" font-style="normal" font-weight="normal" text-decoration="none" x="520" y="1054.5">-pC: int</text></g></g><g transform="translate(-304,-174) scale(1,1)"><path fill="none" stroke="#000000" d="M 573 951 L 576 768 L 840 768 L 840 757" stroke-miterlimit="10"/></g><g transform="translate(-304,-174) scale(1,1)"><path fill="none" stroke="#000000" d="M 514 1009 L 416 1008 L 416 512 L 466 513" stroke-miterlimit="10"/></g><g transform="translate(-304,-174) scale(1,1)"><path fill="none" stroke="#000000" d="M 631 1009 L 1584 1000 L 1584 696 L 1498.8212890625 694.6226530997984" stroke-miterlimit="10"/></g><g transform="translate(-304,-174) scale(1,1)"><path fill="none" stroke="#000000" d="M 1033 538 L 1032 736 L 872 734" stroke-miterlimit="10"/></g><g transform="translate(-304,-174) scale(1,1)"><path fill="none" stroke="#000000" d="M 1007 515 L 680 516" stroke-miterlimit="10"/></g><g transform="translate(-304,-174) scale(1,1)"><rect fill="#C0C0C0" stroke="none" x="1015" y="500" width="50.919921875" height="44" opacity="0.2"/></g><g transform="translate(-304,-174) scale(1,1)"><rect fill="#ffffff" stroke="none" x="1008" y="493" width="50.919921875" height="44"/></g><g transform="translate(-304,-174) scale(1,1)"><path fill="none" stroke="#000000" d="M 1008 493 L 1058.919921875 493 L 1058.919921875 537 L 1008 537 L 1008 493 Z Z" stroke-miterlimit="10"/></g><g transform="translate(-304,-174) scale(1,1)"><path fill="none" stroke="#000000" d="M 1008 518 L 1058.919921875 518" stroke-miterlimit="10"/></g><g transform="translate(-304,-174) scale(1,1)"><path fill="none" stroke="#000000" d="M 1008 528 L 1058.919921875 528" stroke-miterlimit="10"/></g><g transform="translate(-304,-174) scale(1,1)"><g><path fill="none" stroke="none"/><text fill="#000000" stroke="none" font-family="Arial" font-size="13px" font-style="normal" font-weight="bold" text-decoration="none" x="1019.37451171875" y="512.5">OBD</text></g></g><g transform="translate(-304,-174) scale(1,1)"><path fill="none" stroke="#000000" d="M 1032 492 L 1032 472 L 1072 472 L 1072 728 L 1426 733" stroke-miterlimit="10"/></g><g transform="translate(-304,-174) scale(1,1)"><path fill="#000000" stroke="none" d="M 1415.778888159855 737.0655716389267 L 1426 733 L 1415.8977892312826 728.647375781852 L 1404.002194124141 732.6892965271771"/></g><g transform="translate(-304,-174) scale(1,1)"><path fill="none" stroke="#000000" d="M 1415.778888159855 737.0655716389267 L 1426 733 L 1415.8977892312826 728.647375781852 L 1404.002194124141 732.6892965271771 L 1415.778888159855 737.0655716389267" stroke-miterlimit="10"/></g></g></svg>